ISO-10303-21;
HEADER;
/* Generated by software containing ST-Developer
 * from STEP Tools, Inc. (www.steptools.com) 
 */

FILE_DESCRIPTION(
/* description */ (''),
/* implementation_level */ '2;1');

FILE_NAME(
/* name */ 'Bottom.step',
/* time_stamp */ '2026-06-07T13:36:40+02:00',
/* author */ (''),
/* organization */ (''),
/* preprocessor_version */ 'ST-DEVELOPER v20.1',
/* originating_system */ 'Autodesk Translation Framework v15.8.0.0',
/* authorisation */ '');

FILE_SCHEMA (('AUTOMOTIVE_DESIGN { 1 0 10303 214 3 1 1 }'));
ENDSEC;

DATA;
#10=MECHANICAL_DESIGN_GEOMETRIC_PRESENTATION_REPRESENTATION('',(#13),#663);
#11=SHAPE_REPRESENTATION_RELATIONSHIP('SRR','None',#670,#12);
#12=ADVANCED_BREP_SHAPE_REPRESENTATION('',(#14),#662);
#13=STYLED_ITEM('',(#679),#14);
#14=MANIFOLD_SOLID_BREP('Body2',#399);
#15=FACE_BOUND('',#71,.T.);
#16=FACE_BOUND('',#72,.T.);
#17=FACE_BOUND('',#73,.T.);
#18=FACE_BOUND('',#74,.T.);
#19=PLANE('',#429);
#20=PLANE('',#430);
#21=PLANE('',#431);
#22=PLANE('',#432);
#23=PLANE('',#433);
#24=PLANE('',#434);
#25=PLANE('',#435);
#26=PLANE('',#436);
#27=PLANE('',#437);
#28=PLANE('',#438);
#29=PLANE('',#439);
#30=PLANE('',#440);
#31=PLANE('',#441);
#32=PLANE('',#442);
#33=CYLINDRICAL_SURFACE('',#415,2.45);
#34=CYLINDRICAL_SURFACE('',#419,2.45);
#35=CYLINDRICAL_SURFACE('',#423,2.45);
#36=CYLINDRICAL_SURFACE('',#427,2.45);
#37=FACE_OUTER_BOUND('',#59,.T.);
#38=FACE_OUTER_BOUND('',#60,.T.);
#39=FACE_OUTER_BOUND('',#61,.T.);
#40=FACE_OUTER_BOUND('',#62,.T.);
#41=FACE_OUTER_BOUND('',#63,.T.);
#42=FACE_OUTER_BOUND('',#64,.T.);
#43=FACE_OUTER_BOUND('',#65,.T.);
#44=FACE_OUTER_BOUND('',#66,.T.);
#45=FACE_OUTER_BOUND('',#67,.T.);
#46=FACE_OUTER_BOUND('',#68,.T.);
#47=FACE_OUTER_BOUND('',#69,.T.);
#48=FACE_OUTER_BOUND('',#70,.T.);
#49=FACE_OUTER_BOUND('',#75,.T.);
#50=FACE_OUTER_BOUND('',#76,.T.);
#51=FACE_OUTER_BOUND('',#77,.T.);
#52=FACE_OUTER_BOUND('',#78,.T.);
#53=FACE_OUTER_BOUND('',#79,.T.);
#54=FACE_OUTER_BOUND('',#80,.T.);
#55=FACE_OUTER_BOUND('',#81,.T.);
#56=FACE_OUTER_BOUND('',#82,.T.);
#57=FACE_OUTER_BOUND('',#83,.T.);
#58=FACE_OUTER_BOUND('',#84,.T.);
#59=EDGE_LOOP('',(#269,#270,#271));
#60=EDGE_LOOP('',(#272,#273,#274,#275));
#61=EDGE_LOOP('',(#276,#277,#278));
#62=EDGE_LOOP('',(#279,#280,#281,#282));
#63=EDGE_LOOP('',(#283,#284,#285));
#64=EDGE_LOOP('',(#286,#287,#288,#289));
#65=EDGE_LOOP('',(#290,#291,#292));
#66=EDGE_LOOP('',(#293,#294,#295,#296));
#67=EDGE_LOOP('',(#297,#298,#299,#300));
#68=EDGE_LOOP('',(#301,#302,#303,#304));
#69=EDGE_LOOP('',(#305,#306,#307,#308));
#70=EDGE_LOOP('',(#309,#310,#311,#312,#313,#314,#315,#316,#317,#318,#319,
#320));
#71=EDGE_LOOP('',(#321));
#72=EDGE_LOOP('',(#322));
#73=EDGE_LOOP('',(#323));
#74=EDGE_LOOP('',(#324));
#75=EDGE_LOOP('',(#325,#326,#327,#328,#329,#330,#331,#332));
#76=EDGE_LOOP('',(#333,#334,#335,#336));
#77=EDGE_LOOP('',(#337,#338,#339,#340));
#78=EDGE_LOOP('',(#341,#342,#343,#344));
#79=EDGE_LOOP('',(#345,#346,#347,#348,#349,#350,#351,#352));
#80=EDGE_LOOP('',(#353,#354,#355,#356));
#81=EDGE_LOOP('',(#357,#358,#359,#360));
#82=EDGE_LOOP('',(#361,#362,#363,#364));
#83=EDGE_LOOP('',(#365,#366,#367,#368));
#84=EDGE_LOOP('',(#369,#370,#371,#372));
#85=LINE('',#554,#129);
#86=LINE('',#558,#130);
#87=LINE('',#563,#131);
#88=LINE('',#567,#132);
#89=LINE('',#572,#133);
#90=LINE('',#576,#134);
#91=LINE('',#581,#135);
#92=LINE('',#585,#136);
#93=LINE('',#589,#137);
#94=LINE('',#591,#138);
#95=LINE('',#593,#139);
#96=LINE('',#594,#140);
#97=LINE('',#597,#141);
#98=LINE('',#599,#142);
#99=LINE('',#600,#143);
#100=LINE('',#603,#144);
#101=LINE('',#605,#145);
#102=LINE('',#606,#146);
#103=LINE('',#609,#147);
#104=LINE('',#611,#148);
#105=LINE('',#613,#149);
#106=LINE('',#615,#150);
#107=LINE('',#616,#151);
#108=LINE('',#618,#152);
#109=LINE('',#620,#153);
#110=LINE('',#622,#154);
#111=LINE('',#624,#155);
#112=LINE('',#625,#156);
#113=LINE('',#628,#157);
#114=LINE('',#630,#158);
#115=LINE('',#631,#159);
#116=LINE('',#634,#160);
#117=LINE('',#636,#161);
#118=LINE('',#637,#162);
#119=LINE('',#640,#163);
#120=LINE('',#642,#164);
#121=LINE('',#643,#165);
#122=LINE('',#645,#166);
#123=LINE('',#647,#167);
#124=LINE('',#651,#168);
#125=LINE('',#652,#169);
#126=LINE('',#655,#170);
#127=LINE('',#656,#171);
#128=LINE('',#658,#172);
#129=VECTOR('',#449,1.225);
#130=VECTOR('',#454,2.45);
#131=VECTOR('',#459,1.225);
#132=VECTOR('',#464,2.45);
#133=VECTOR('',#469,1.225);
#134=VECTOR('',#474,2.45);
#135=VECTOR('',#479,1.225);
#136=VECTOR('',#484,2.45);
#137=VECTOR('',#487,10.);
#138=VECTOR('',#488,10.);
#139=VECTOR('',#489,10.);
#140=VECTOR('',#490,10.);
#141=VECTOR('',#493,10.);
#142=VECTOR('',#494,10.);
#143=VECTOR('',#495,10.);
#144=VECTOR('',#498,10.);
#145=VECTOR('',#499,10.);
#146=VECTOR('',#500,10.);
#147=VECTOR('',#503,10.);
#148=VECTOR('',#504,10.);
#149=VECTOR('',#505,10.);
#150=VECTOR('',#506,10.);
#151=VECTOR('',#507,10.);
#152=VECTOR('',#508,10.);
#153=VECTOR('',#509,10.);
#154=VECTOR('',#510,10.);
#155=VECTOR('',#511,10.);
#156=VECTOR('',#512,10.);
#157=VECTOR('',#515,10.);
#158=VECTOR('',#516,10.);
#159=VECTOR('',#517,10.);
#160=VECTOR('',#520,10.);
#161=VECTOR('',#521,10.);
#162=VECTOR('',#522,10.);
#163=VECTOR('',#525,10.);
#164=VECTOR('',#526,10.);
#165=VECTOR('',#527,10.);
#166=VECTOR('',#530,10.);
#167=VECTOR('',#533,10.);
#168=VECTOR('',#538,10.);
#169=VECTOR('',#539,10.);
#170=VECTOR('',#542,10.);
#171=VECTOR('',#543,10.);
#172=VECTOR('',#546,10.);
#173=CIRCLE('',#414,2.45);
#174=CIRCLE('',#416,2.45);
#175=CIRCLE('',#418,2.45);
#176=CIRCLE('',#420,2.45);
#177=CIRCLE('',#422,2.45);
#178=CIRCLE('',#424,2.45);
#179=CIRCLE('',#426,2.45);
#180=CIRCLE('',#428,2.45);
#181=VERTEX_POINT('',#551);
#182=VERTEX_POINT('',#553);
#183=VERTEX_POINT('',#556);
#184=VERTEX_POINT('',#560);
#185=VERTEX_POINT('',#562);
#186=VERTEX_POINT('',#565);
#187=VERTEX_POINT('',#569);
#188=VERTEX_POINT('',#571);
#189=VERTEX_POINT('',#574);
#190=VERTEX_POINT('',#578);
#191=VERTEX_POINT('',#580);
#192=VERTEX_POINT('',#583);
#193=VERTEX_POINT('',#587);
#194=VERTEX_POINT('',#588);
#195=VERTEX_POINT('',#590);
#196=VERTEX_POINT('',#592);
#197=VERTEX_POINT('',#596);
#198=VERTEX_POINT('',#598);
#199=VERTEX_POINT('',#602);
#200=VERTEX_POINT('',#604);
#201=VERTEX_POINT('',#608);
#202=VERTEX_POINT('',#610);
#203=VERTEX_POINT('',#612);
#204=VERTEX_POINT('',#614);
#205=VERTEX_POINT('',#617);
#206=VERTEX_POINT('',#619);
#207=VERTEX_POINT('',#621);
#208=VERTEX_POINT('',#623);
#209=VERTEX_POINT('',#627);
#210=VERTEX_POINT('',#629);
#211=VERTEX_POINT('',#633);
#212=VERTEX_POINT('',#635);
#213=VERTEX_POINT('',#639);
#214=VERTEX_POINT('',#641);
#215=VERTEX_POINT('',#650);
#216=VERTEX_POINT('',#654);
#217=EDGE_CURVE('',#181,#181,#173,.T.);
#218=EDGE_CURVE('',#181,#182,#85,.T.);
#219=EDGE_CURVE('',#183,#183,#174,.T.);
#220=EDGE_CURVE('',#183,#181,#86,.T.);
#221=EDGE_CURVE('',#184,#184,#175,.T.);
#222=EDGE_CURVE('',#184,#185,#87,.T.);
#223=EDGE_CURVE('',#186,#186,#176,.T.);
#224=EDGE_CURVE('',#186,#184,#88,.T.);
#225=EDGE_CURVE('',#187,#187,#177,.T.);
#226=EDGE_CURVE('',#187,#188,#89,.T.);
#227=EDGE_CURVE('',#189,#189,#178,.T.);
#228=EDGE_CURVE('',#189,#187,#90,.T.);
#229=EDGE_CURVE('',#190,#190,#179,.T.);
#230=EDGE_CURVE('',#190,#191,#91,.T.);
#231=EDGE_CURVE('',#192,#192,#180,.T.);
#232=EDGE_CURVE('',#192,#190,#92,.T.);
#233=EDGE_CURVE('',#193,#194,#93,.T.);
#234=EDGE_CURVE('',#195,#193,#94,.T.);
#235=EDGE_CURVE('',#196,#195,#95,.T.);
#236=EDGE_CURVE('',#196,#194,#96,.T.);
#237=EDGE_CURVE('',#194,#197,#97,.T.);
#238=EDGE_CURVE('',#198,#196,#98,.T.);
#239=EDGE_CURVE('',#198,#197,#99,.T.);
#240=EDGE_CURVE('',#197,#199,#100,.T.);
#241=EDGE_CURVE('',#200,#198,#101,.T.);
#242=EDGE_CURVE('',#199,#200,#102,.T.);
#243=EDGE_CURVE('',#201,#200,#103,.T.);
#244=EDGE_CURVE('',#201,#202,#104,.T.);
#245=EDGE_CURVE('',#202,#203,#105,.T.);
#246=EDGE_CURVE('',#203,#204,#106,.T.);
#247=EDGE_CURVE('',#195,#204,#107,.T.);
#248=EDGE_CURVE('',#193,#205,#108,.T.);
#249=EDGE_CURVE('',#205,#206,#109,.T.);
#250=EDGE_CURVE('',#206,#207,#110,.T.);
#251=EDGE_CURVE('',#207,#208,#111,.T.);
#252=EDGE_CURVE('',#208,#199,#112,.T.);
#253=EDGE_CURVE('',#209,#208,#113,.T.);
#254=EDGE_CURVE('',#210,#209,#114,.T.);
#255=EDGE_CURVE('',#210,#205,#115,.T.);
#256=EDGE_CURVE('',#211,#202,#116,.T.);
#257=EDGE_CURVE('',#212,#211,#117,.T.);
#258=EDGE_CURVE('',#203,#212,#118,.T.);
#259=EDGE_CURVE('',#211,#213,#119,.T.);
#260=EDGE_CURVE('',#214,#213,#120,.T.);
#261=EDGE_CURVE('',#212,#214,#121,.T.);
#262=EDGE_CURVE('',#213,#201,#122,.T.);
#263=EDGE_CURVE('',#204,#214,#123,.T.);
#264=EDGE_CURVE('',#209,#215,#124,.T.);
#265=EDGE_CURVE('',#215,#207,#125,.T.);
#266=EDGE_CURVE('',#215,#216,#126,.T.);
#267=EDGE_CURVE('',#216,#206,#127,.T.);
#268=EDGE_CURVE('',#216,#210,#128,.T.);
#269=ORIENTED_EDGE('',*,*,#217,.F.);
#270=ORIENTED_EDGE('',*,*,#218,.T.);
#271=ORIENTED_EDGE('',*,*,#218,.F.);
#272=ORIENTED_EDGE('',*,*,#219,.F.);
#273=ORIENTED_EDGE('',*,*,#220,.T.);
#274=ORIENTED_EDGE('',*,*,#217,.T.);
#275=ORIENTED_EDGE('',*,*,#220,.F.);
#276=ORIENTED_EDGE('',*,*,#221,.F.);
#277=ORIENTED_EDGE('',*,*,#222,.T.);
#278=ORIENTED_EDGE('',*,*,#222,.F.);
#279=ORIENTED_EDGE('',*,*,#223,.F.);
#280=ORIENTED_EDGE('',*,*,#224,.T.);
#281=ORIENTED_EDGE('',*,*,#221,.T.);
#282=ORIENTED_EDGE('',*,*,#224,.F.);
#283=ORIENTED_EDGE('',*,*,#225,.F.);
#284=ORIENTED_EDGE('',*,*,#226,.T.);
#285=ORIENTED_EDGE('',*,*,#226,.F.);
#286=ORIENTED_EDGE('',*,*,#227,.F.);
#287=ORIENTED_EDGE('',*,*,#228,.T.);
#288=ORIENTED_EDGE('',*,*,#225,.T.);
#289=ORIENTED_EDGE('',*,*,#228,.F.);
#290=ORIENTED_EDGE('',*,*,#229,.F.);
#291=ORIENTED_EDGE('',*,*,#230,.T.);
#292=ORIENTED_EDGE('',*,*,#230,.F.);
#293=ORIENTED_EDGE('',*,*,#231,.F.);
#294=ORIENTED_EDGE('',*,*,#232,.T.);
#295=ORIENTED_EDGE('',*,*,#229,.T.);
#296=ORIENTED_EDGE('',*,*,#232,.F.);
#297=ORIENTED_EDGE('',*,*,#233,.F.);
#298=ORIENTED_EDGE('',*,*,#234,.F.);
#299=ORIENTED_EDGE('',*,*,#235,.F.);
#300=ORIENTED_EDGE('',*,*,#236,.T.);
#301=ORIENTED_EDGE('',*,*,#237,.F.);
#302=ORIENTED_EDGE('',*,*,#236,.F.);
#303=ORIENTED_EDGE('',*,*,#238,.F.);
#304=ORIENTED_EDGE('',*,*,#239,.T.);
#305=ORIENTED_EDGE('',*,*,#240,.F.);
#306=ORIENTED_EDGE('',*,*,#239,.F.);
#307=ORIENTED_EDGE('',*,*,#241,.F.);
#308=ORIENTED_EDGE('',*,*,#242,.F.);
#309=ORIENTED_EDGE('',*,*,#243,.F.);
#310=ORIENTED_EDGE('',*,*,#244,.T.);
#311=ORIENTED_EDGE('',*,*,#245,.T.);
#312=ORIENTED_EDGE('',*,*,#246,.T.);
#313=ORIENTED_EDGE('',*,*,#247,.F.);
#314=ORIENTED_EDGE('',*,*,#234,.T.);
#315=ORIENTED_EDGE('',*,*,#248,.T.);
#316=ORIENTED_EDGE('',*,*,#249,.T.);
#317=ORIENTED_EDGE('',*,*,#250,.T.);
#318=ORIENTED_EDGE('',*,*,#251,.T.);
#319=ORIENTED_EDGE('',*,*,#252,.T.);
#320=ORIENTED_EDGE('',*,*,#242,.T.);
#321=ORIENTED_EDGE('',*,*,#219,.T.);
#322=ORIENTED_EDGE('',*,*,#223,.T.);
#323=ORIENTED_EDGE('',*,*,#227,.T.);
#324=ORIENTED_EDGE('',*,*,#231,.T.);
#325=ORIENTED_EDGE('',*,*,#233,.T.);
#326=ORIENTED_EDGE('',*,*,#237,.T.);
#327=ORIENTED_EDGE('',*,*,#240,.T.);
#328=ORIENTED_EDGE('',*,*,#252,.F.);
#329=ORIENTED_EDGE('',*,*,#253,.F.);
#330=ORIENTED_EDGE('',*,*,#254,.F.);
#331=ORIENTED_EDGE('',*,*,#255,.T.);
#332=ORIENTED_EDGE('',*,*,#248,.F.);
#333=ORIENTED_EDGE('',*,*,#256,.F.);
#334=ORIENTED_EDGE('',*,*,#257,.F.);
#335=ORIENTED_EDGE('',*,*,#258,.F.);
#336=ORIENTED_EDGE('',*,*,#245,.F.);
#337=ORIENTED_EDGE('',*,*,#257,.T.);
#338=ORIENTED_EDGE('',*,*,#259,.T.);
#339=ORIENTED_EDGE('',*,*,#260,.F.);
#340=ORIENTED_EDGE('',*,*,#261,.F.);
#341=ORIENTED_EDGE('',*,*,#256,.T.);
#342=ORIENTED_EDGE('',*,*,#244,.F.);
#343=ORIENTED_EDGE('',*,*,#262,.F.);
#344=ORIENTED_EDGE('',*,*,#259,.F.);
#345=ORIENTED_EDGE('',*,*,#235,.T.);
#346=ORIENTED_EDGE('',*,*,#247,.T.);
#347=ORIENTED_EDGE('',*,*,#263,.T.);
#348=ORIENTED_EDGE('',*,*,#260,.T.);
#349=ORIENTED_EDGE('',*,*,#262,.T.);
#350=ORIENTED_EDGE('',*,*,#243,.T.);
#351=ORIENTED_EDGE('',*,*,#241,.T.);
#352=ORIENTED_EDGE('',*,*,#238,.T.);
#353=ORIENTED_EDGE('',*,*,#258,.T.);
#354=ORIENTED_EDGE('',*,*,#261,.T.);
#355=ORIENTED_EDGE('',*,*,#263,.F.);
#356=ORIENTED_EDGE('',*,*,#246,.F.);
#357=ORIENTED_EDGE('',*,*,#264,.F.);
#358=ORIENTED_EDGE('',*,*,#253,.T.);
#359=ORIENTED_EDGE('',*,*,#251,.F.);
#360=ORIENTED_EDGE('',*,*,#265,.F.);
#361=ORIENTED_EDGE('',*,*,#266,.F.);
#362=ORIENTED_EDGE('',*,*,#265,.T.);
#363=ORIENTED_EDGE('',*,*,#250,.F.);
#364=ORIENTED_EDGE('',*,*,#267,.F.);
#365=ORIENTED_EDGE('',*,*,#268,.F.);
#366=ORIENTED_EDGE('',*,*,#267,.T.);
#367=ORIENTED_EDGE('',*,*,#249,.F.);
#368=ORIENTED_EDGE('',*,*,#255,.F.);
#369=ORIENTED_EDGE('',*,*,#264,.T.);
#370=ORIENTED_EDGE('',*,*,#266,.T.);
#371=ORIENTED_EDGE('',*,*,#268,.T.);
#372=ORIENTED_EDGE('',*,*,#254,.T.);
#373=CONICAL_SURFACE('',#413,1.225,1.02974425867665);
#374=CONICAL_SURFACE('',#417,1.225,1.02974425867665);
#375=CONICAL_SURFACE('',#421,1.225,1.02974425867665);
#376=CONICAL_SURFACE('',#425,1.225,1.02974425867665);
#377=ADVANCED_FACE('',(#37),#373,.F.);
#378=ADVANCED_FACE('',(#38),#33,.F.);
#379=ADVANCED_FACE('',(#39),#374,.F.);
#380=ADVANCED_FACE('',(#40),#34,.F.);
#381=ADVANCED_FACE('',(#41),#375,.F.);
#382=ADVANCED_FACE('',(#42),#35,.F.);
#383=ADVANCED_FACE('',(#43),#376,.F.);
#384=ADVANCED_FACE('',(#44),#36,.F.);
#385=ADVANCED_FACE('',(#45),#19,.F.);
#386=ADVANCED_FACE('',(#46),#20,.F.);
#387=ADVANCED_FACE('',(#47),#21,.F.);
#388=ADVANCED_FACE('',(#48,#15,#16,#17,#18),#22,.T.);
#389=ADVANCED_FACE('',(#49),#23,.T.);
#390=ADVANCED_FACE('',(#50),#24,.F.);
#391=ADVANCED_FACE('',(#51),#25,.F.);
#392=ADVANCED_FACE('',(#52),#26,.F.);
#393=ADVANCED_FACE('',(#53),#27,.T.);
#394=ADVANCED_FACE('',(#54),#28,.T.);
#395=ADVANCED_FACE('',(#55),#29,.T.);
#396=ADVANCED_FACE('',(#56),#30,.T.);
#397=ADVANCED_FACE('',(#57),#31,.T.);
#398=ADVANCED_FACE('',(#58),#32,.T.);
#399=CLOSED_SHELL('',(#377,#378,#379,#380,#381,#382,#383,#384,#385,#386,
#387,#388,#389,#390,#391,#392,#393,#394,#395,#396,#397,#398));
#400=DERIVED_UNIT_ELEMENT(#402,1.);
#401=DERIVED_UNIT_ELEMENT(#665,-3.);
#402=(
MASS_UNIT()
NAMED_UNIT(*)
SI_UNIT(.KILO.,.GRAM.)
);
#403=DERIVED_UNIT((#400,#401));
#404=MEASURE_REPRESENTATION_ITEM('density measure',
POSITIVE_RATIO_MEASURE(7850.),#403);
#405=PROPERTY_DEFINITION_REPRESENTATION(#410,#407);
#406=PROPERTY_DEFINITION_REPRESENTATION(#411,#408);
#407=REPRESENTATION('material name',(#409),#662);
#408=REPRESENTATION('density',(#404),#662);
#409=DESCRIPTIVE_REPRESENTATION_ITEM('Steel','Steel');
#410=PROPERTY_DEFINITION('material property','material name',#672);
#411=PROPERTY_DEFINITION('material property','density of part',#672);
#412=AXIS2_PLACEMENT_3D('',#549,#443,#444);
#413=AXIS2_PLACEMENT_3D('',#550,#445,#446);
#414=AXIS2_PLACEMENT_3D('',#552,#447,#448);
#415=AXIS2_PLACEMENT_3D('',#555,#450,#451);
#416=AXIS2_PLACEMENT_3D('',#557,#452,#453);
#417=AXIS2_PLACEMENT_3D('',#559,#455,#456);
#418=AXIS2_PLACEMENT_3D('',#561,#457,#458);
#419=AXIS2_PLACEMENT_3D('',#564,#460,#461);
#420=AXIS2_PLACEMENT_3D('',#566,#462,#463);
#421=AXIS2_PLACEMENT_3D('',#568,#465,#466);
#422=AXIS2_PLACEMENT_3D('',#570,#467,#468);
#423=AXIS2_PLACEMENT_3D('',#573,#470,#471);
#424=AXIS2_PLACEMENT_3D('',#575,#472,#473);
#425=AXIS2_PLACEMENT_3D('',#577,#475,#476);
#426=AXIS2_PLACEMENT_3D('',#579,#477,#478);
#427=AXIS2_PLACEMENT_3D('',#582,#480,#481);
#428=AXIS2_PLACEMENT_3D('',#584,#482,#483);
#429=AXIS2_PLACEMENT_3D('',#586,#485,#486);
#430=AXIS2_PLACEMENT_3D('',#595,#491,#492);
#431=AXIS2_PLACEMENT_3D('',#601,#496,#497);
#432=AXIS2_PLACEMENT_3D('',#607,#501,#502);
#433=AXIS2_PLACEMENT_3D('',#626,#513,#514);
#434=AXIS2_PLACEMENT_3D('',#632,#518,#519);
#435=AXIS2_PLACEMENT_3D('',#638,#523,#524);
#436=AXIS2_PLACEMENT_3D('',#644,#528,#529);
#437=AXIS2_PLACEMENT_3D('',#646,#531,#532);
#438=AXIS2_PLACEMENT_3D('',#648,#534,#535);
#439=AXIS2_PLACEMENT_3D('',#649,#536,#537);
#440=AXIS2_PLACEMENT_3D('',#653,#540,#541);
#441=AXIS2_PLACEMENT_3D('',#657,#544,#545);
#442=AXIS2_PLACEMENT_3D('',#659,#547,#548);
#443=DIRECTION('axis',(0.,0.,1.));
#444=DIRECTION('refdir',(1.,0.,0.));
#445=DIRECTION('center_axis',(0.,1.,0.));
#446=DIRECTION('ref_axis',(0.,0.,1.));
#447=DIRECTION('center_axis',(0.,-1.,0.));
#448=DIRECTION('ref_axis',(0.,0.,1.));
#449=DIRECTION('',(-1.04972719113862E-16,-0.515038074910054,0.857167300702112));
#450=DIRECTION('center_axis',(0.,-1.,0.));
#451=DIRECTION('ref_axis',(0.,0.,1.));
#452=DIRECTION('center_axis',(0.,-1.,0.));
#453=DIRECTION('ref_axis',(0.,0.,1.));
#454=DIRECTION('',(0.,-1.,0.));
#455=DIRECTION('center_axis',(0.,1.,0.));
#456=DIRECTION('ref_axis',(0.,0.,1.));
#457=DIRECTION('center_axis',(0.,-1.,0.));
#458=DIRECTION('ref_axis',(0.,0.,1.));
#459=DIRECTION('',(-1.04972719113862E-16,-0.515038074910054,0.857167300702112));
#460=DIRECTION('center_axis',(0.,-1.,0.));
#461=DIRECTION('ref_axis',(0.,0.,1.));
#462=DIRECTION('center_axis',(0.,-1.,0.));
#463=DIRECTION('ref_axis',(0.,0.,1.));
#464=DIRECTION('',(0.,-1.,0.));
#465=DIRECTION('center_axis',(0.,1.,0.));
#466=DIRECTION('ref_axis',(0.,0.,1.));
#467=DIRECTION('center_axis',(0.,-1.,0.));
#468=DIRECTION('ref_axis',(0.,0.,1.));
#469=DIRECTION('',(-1.04972719113862E-16,-0.515038074910054,0.857167300702112));
#470=DIRECTION('center_axis',(0.,-1.,0.));
#471=DIRECTION('ref_axis',(0.,0.,1.));
#472=DIRECTION('center_axis',(0.,-1.,0.));
#473=DIRECTION('ref_axis',(0.,0.,1.));
#474=DIRECTION('',(0.,-1.,0.));
#475=DIRECTION('center_axis',(0.,1.,0.));
#476=DIRECTION('ref_axis',(0.,0.,1.));
#477=DIRECTION('center_axis',(0.,-1.,0.));
#478=DIRECTION('ref_axis',(0.,0.,1.));
#479=DIRECTION('',(-1.04972719113862E-16,-0.515038074910054,0.857167300702112));
#480=DIRECTION('center_axis',(0.,-1.,0.));
#481=DIRECTION('ref_axis',(0.,0.,1.));
#482=DIRECTION('center_axis',(0.,-1.,0.));
#483=DIRECTION('ref_axis',(0.,0.,1.));
#484=DIRECTION('',(0.,-1.,0.));
#485=DIRECTION('center_axis',(0.,0.,1.));
#486=DIRECTION('ref_axis',(0.,1.,0.));
#487=DIRECTION('',(0.,-1.,0.));
#488=DIRECTION('',(-1.,0.,0.));
#489=DIRECTION('',(0.,1.,0.));
#490=DIRECTION('',(-1.,0.,0.));
#491=DIRECTION('center_axis',(0.,-1.,0.));
#492=DIRECTION('ref_axis',(0.,0.,1.));
#493=DIRECTION('',(0.,0.,-1.));
#494=DIRECTION('',(0.,0.,1.));
#495=DIRECTION('',(-1.,0.,0.));
#496=DIRECTION('center_axis',(0.,0.,-1.));
#497=DIRECTION('ref_axis',(0.,-1.,0.));
#498=DIRECTION('',(0.,1.,0.));
#499=DIRECTION('',(0.,-1.,0.));
#500=DIRECTION('',(1.,0.,0.));
#501=DIRECTION('center_axis',(0.,1.,0.));
#502=DIRECTION('ref_axis',(1.,0.,0.));
#503=DIRECTION('',(0.,0.,1.));
#504=DIRECTION('',(-1.,0.,0.));
#505=DIRECTION('',(0.,0.,1.));
#506=DIRECTION('',(1.,0.,0.));
#507=DIRECTION('',(0.,0.,1.));
#508=DIRECTION('',(0.,0.,1.));
#509=DIRECTION('',(-1.,0.,0.));
#510=DIRECTION('',(0.,0.,-1.));
#511=DIRECTION('',(1.,0.,0.));
#512=DIRECTION('',(0.,0.,1.));
#513=DIRECTION('center_axis',(-1.,0.,0.));
#514=DIRECTION('ref_axis',(0.,0.,1.));
#515=DIRECTION('',(0.,1.,0.));
#516=DIRECTION('',(0.,0.,-1.));
#517=DIRECTION('',(0.,1.,0.));
#518=DIRECTION('center_axis',(1.,0.,0.));
#519=DIRECTION('ref_axis',(0.,0.,-1.));
#520=DIRECTION('',(0.,1.,0.));
#521=DIRECTION('',(0.,0.,-1.));
#522=DIRECTION('',(0.,-1.,0.));
#523=DIRECTION('center_axis',(0.,1.,0.));
#524=DIRECTION('ref_axis',(1.,0.,0.));
#525=DIRECTION('',(1.,0.,0.));
#526=DIRECTION('',(0.,0.,-1.));
#527=DIRECTION('',(1.,0.,0.));
#528=DIRECTION('center_axis',(0.,0.,1.));
#529=DIRECTION('ref_axis',(1.,0.,0.));
#530=DIRECTION('',(0.,1.,0.));
#531=DIRECTION('center_axis',(1.,0.,0.));
#532=DIRECTION('ref_axis',(0.,0.,-1.));
#533=DIRECTION('',(0.,-1.,0.));
#534=DIRECTION('center_axis',(0.,0.,1.));
#535=DIRECTION('ref_axis',(1.,0.,0.));
#536=DIRECTION('center_axis',(0.,0.,1.));
#537=DIRECTION('ref_axis',(1.,0.,0.));
#538=DIRECTION('',(-1.,0.,0.));
#539=DIRECTION('',(0.,1.,0.));
#540=DIRECTION('center_axis',(1.,0.,0.));
#541=DIRECTION('ref_axis',(0.,0.,-1.));
#542=DIRECTION('',(0.,0.,1.));
#543=DIRECTION('',(0.,1.,0.));
#544=DIRECTION('center_axis',(0.,0.,-1.));
#545=DIRECTION('ref_axis',(-1.,0.,0.));
#546=DIRECTION('',(1.,0.,0.));
#547=DIRECTION('center_axis',(0.,1.,0.));
#548=DIRECTION('ref_axis',(1.,0.,0.));
#549=CARTESIAN_POINT('',(0.,0.,0.));
#550=CARTESIAN_POINT('Origin',(-6.1052909386021,-4.73605425830876,-7.57919586787724));
#551=CARTESIAN_POINT('',(-6.1052909386021,-4.,-10.0291958678772));
#552=CARTESIAN_POINT('Origin',(-6.1052909386021,-4.,-7.57919586787724));
#553=CARTESIAN_POINT('',(-6.1052909386021,-5.47210851661752,-7.57919586787724));
#554=CARTESIAN_POINT('',(-6.1052909386021,-4.73605425830876,-8.80419586787724));
#555=CARTESIAN_POINT('Origin',(-6.1052909386021,-2.,-7.57919586787724));
#556=CARTESIAN_POINT('',(-6.1052909386021,0.,-10.0291958678772));
#557=CARTESIAN_POINT('Origin',(-6.1052909386021,0.,-7.57919586787724));
#558=CARTESIAN_POINT('',(-6.1052909386021,-2.,-10.0291958678772));
#559=CARTESIAN_POINT('Origin',(-5.92047852574343,-4.73605425830876,25.755901487733));
#560=CARTESIAN_POINT('',(-5.92047852574343,-4.,23.305901487733));
#561=CARTESIAN_POINT('Origin',(-5.92047852574343,-4.,25.755901487733));
#562=CARTESIAN_POINT('',(-5.92047852574343,-5.47210851661752,25.755901487733));
#563=CARTESIAN_POINT('',(-5.92047852574343,-4.73605425830876,24.530901487733));
#564=CARTESIAN_POINT('Origin',(-5.92047852574343,-2.,25.755901487733));
#565=CARTESIAN_POINT('',(-5.92047852574343,0.,23.305901487733));
#566=CARTESIAN_POINT('Origin',(-5.92047852574343,0.,25.755901487733));
#567=CARTESIAN_POINT('',(-5.92047852574343,-2.,23.305901487733));
#568=CARTESIAN_POINT('Origin',(84.5275141725995,-4.73605425830876,25.942359975901));
#569=CARTESIAN_POINT('',(84.5275141725995,-4.,23.492359975901));
#570=CARTESIAN_POINT('Origin',(84.5275141725995,-4.,25.942359975901));
#571=CARTESIAN_POINT('',(84.5275141725995,-5.47210851661752,25.942359975901));
#572=CARTESIAN_POINT('',(84.5275141725995,-4.73605425830876,24.717359975901));
#573=CARTESIAN_POINT('Origin',(84.5275141725995,-2.,25.942359975901));
#574=CARTESIAN_POINT('',(84.5275141725995,0.,23.492359975901));
#575=CARTESIAN_POINT('Origin',(84.5275141725995,0.,25.942359975901));
#576=CARTESIAN_POINT('',(84.5275141725995,-2.,23.492359975901));
#577=CARTESIAN_POINT('Origin',(84.7066974639893,-4.73605425830876,-5.98556041717529));
#578=CARTESIAN_POINT('',(84.7066974639893,-4.,-8.43556041717529));
#579=CARTESIAN_POINT('Origin',(84.7066974639893,-4.,-5.98556041717529));
#580=CARTESIAN_POINT('',(84.7066974639893,-5.47210851661752,-5.98556041717529));
#581=CARTESIAN_POINT('',(84.7066974639893,-4.73605425830876,-7.21056041717529));
#582=CARTESIAN_POINT('Origin',(84.7066974639893,-2.,-5.98556041717529));
#583=CARTESIAN_POINT('',(84.7066974639893,0.,-8.43556041717529));
#584=CARTESIAN_POINT('Origin',(84.7066974639893,0.,-5.98556041717529));
#585=CARTESIAN_POINT('',(84.7066974639893,-2.,-8.43556041717529));
#586=CARTESIAN_POINT('Origin',(89.9874738563142,-6.57770612152699,17.1020359159701));
#587=CARTESIAN_POINT('',(80.,0.,17.1020359159701));
#588=CARTESIAN_POINT('',(80.,-6.57770612152699,17.1020359159701));
#589=CARTESIAN_POINT('',(80.,-8.2888530607635,17.1020359159701));
#590=CARTESIAN_POINT('',(89.9874738563142,0.,17.1020359159701));
#591=CARTESIAN_POINT('',(64.4249738563142,0.,17.1020359159701));
#592=CARTESIAN_POINT('',(89.9874738563142,-6.57770612152699,17.1020359159701));
#593=CARTESIAN_POINT('',(89.9874738563142,-9.7888530607635,17.1020359159701));
#594=CARTESIAN_POINT('',(89.9874738563142,-6.57770612152699,17.1020359159701));
#595=CARTESIAN_POINT('Origin',(89.9874738563142,-6.57770612152699,1.3155412243054));
#596=CARTESIAN_POINT('',(80.,-6.57770612152699,1.3155412243054));
#597=CARTESIAN_POINT('',(80.,-6.57770612152699,-0.592229387847301));
#598=CARTESIAN_POINT('',(89.9874738563142,-6.57770612152699,1.3155412243054));
#599=CARTESIAN_POINT('',(89.9874738563142,-6.57770612152699,16.1057828765773));
#600=CARTESIAN_POINT('',(89.9874738563142,-6.57770612152699,1.3155412243054));
#601=CARTESIAN_POINT('Origin',(89.9874738563142,0.,1.3155412243054));
#602=CARTESIAN_POINT('',(80.,0.,1.3155412243054));
#603=CARTESIAN_POINT('',(80.,-5.,1.3155412243054));
#604=CARTESIAN_POINT('',(89.9874738563142,0.,1.3155412243054));
#605=CARTESIAN_POINT('',(89.9874738563142,-6.5,1.3155412243054));
#606=CARTESIAN_POINT('',(64.4249738563142,0.,1.3155412243054));
#607=CARTESIAN_POINT('Origin',(38.8624738563142,0.,8.94602452884925));
#608=CARTESIAN_POINT('',(89.9874738563142,0.,-12.5039754711507));
#609=CARTESIAN_POINT('',(89.9874738563142,0.,30.8960245288493));
#610=CARTESIAN_POINT('',(-11.7625261436858,0.,-12.5039754711507));
#611=CARTESIAN_POINT('',(64.3749738563142,0.,-12.5039754711507));
#612=CARTESIAN_POINT('',(-11.7625261436858,0.,31.3960245288493));
#613=CARTESIAN_POINT('',(-11.7625261436858,0.,-2.02897547115074));
#614=CARTESIAN_POINT('',(89.9874738563142,0.,31.3960245288493));
#615=CARTESIAN_POINT('',(89.8874738563142,0.,31.3960245288493));
#616=CARTESIAN_POINT('',(89.9874738563142,0.,30.8960245288493));
#617=CARTESIAN_POINT('',(80.,0.,21.4));
#618=CARTESIAN_POINT('',(80.,0.,21.4));
#619=CARTESIAN_POINT('',(-1.75000000000001,0.,21.4));
#620=CARTESIAN_POINT('',(-1.75000000000001,0.,21.4));
#621=CARTESIAN_POINT('',(-1.75000000000001,0.,-2.5));
#622=CARTESIAN_POINT('',(-1.75000000000001,0.,-2.5));
#623=CARTESIAN_POINT('',(80.,0.,-2.5));
#624=CARTESIAN_POINT('',(80.,0.,-2.5));
#625=CARTESIAN_POINT('',(80.,0.,21.4));
#626=CARTESIAN_POINT('Origin',(80.,-10.,-2.5));
#627=CARTESIAN_POINT('',(80.,-10.,-2.5));
#628=CARTESIAN_POINT('',(80.,-10.,-2.5));
#629=CARTESIAN_POINT('',(80.,-10.,21.4));
#630=CARTESIAN_POINT('',(80.,-10.,3.22301226442463));
#631=CARTESIAN_POINT('',(80.,-10.,21.4));
#632=CARTESIAN_POINT('Origin',(-11.7625261436858,-13.,-13.0039754711507));
#633=CARTESIAN_POINT('',(-11.7625261436858,-13.,-12.5039754711507));
#634=CARTESIAN_POINT('',(-11.7625261436858,-13.,-12.5039754711507));
#635=CARTESIAN_POINT('',(-11.7625261436858,-13.,31.3960245288493));
#636=CARTESIAN_POINT('',(-11.7625261436858,-13.,-2.02897547115074));
#637=CARTESIAN_POINT('',(-11.7625261436858,-13.,31.3960245288493));
#638=CARTESIAN_POINT('Origin',(38.8624738563142,-13.,8.94602452884925));
#639=CARTESIAN_POINT('',(89.9874738563142,-13.,-12.5039754711507));
#640=CARTESIAN_POINT('',(89.8874738563142,-13.,-12.5039754711507));
#641=CARTESIAN_POINT('',(89.9874738563142,-13.,31.3960245288493));
#642=CARTESIAN_POINT('',(89.9874738563142,-13.,30.8960245288493));
#643=CARTESIAN_POINT('',(89.8874738563142,-13.,31.3960245288493));
#644=CARTESIAN_POINT('Origin',(89.8874738563142,-13.,-12.5039754711507));
#645=CARTESIAN_POINT('',(89.9874738563142,-13.,-12.5039754711507));
#646=CARTESIAN_POINT('Origin',(89.9874738563142,-13.,30.8960245288493));
#647=CARTESIAN_POINT('',(89.9874738563142,-13.,31.3960245288493));
#648=CARTESIAN_POINT('Origin',(-12.1625261436858,-13.,31.3960245288493));
#649=CARTESIAN_POINT('Origin',(-1.75000000000001,-10.,-2.5));
#650=CARTESIAN_POINT('',(-1.75000000000001,-10.,-2.5));
#651=CARTESIAN_POINT('',(18.5562369281571,-10.,-2.5));
#652=CARTESIAN_POINT('',(-1.75000000000001,-10.,-2.5));
#653=CARTESIAN_POINT('Origin',(-1.75000000000001,-10.,21.4));
#654=CARTESIAN_POINT('',(-1.75000000000001,-10.,21.4));
#655=CARTESIAN_POINT('',(-1.75000000000001,-10.,15.1730122644246));
#656=CARTESIAN_POINT('',(-1.75000000000001,-10.,21.4));
#657=CARTESIAN_POINT('Origin',(80.,-10.,21.4));
#658=CARTESIAN_POINT('',(59.4312369281571,-10.,21.4));
#659=CARTESIAN_POINT('Origin',(38.8624738563142,-10.,8.94602452884925));
#660=UNCERTAINTY_MEASURE_WITH_UNIT(LENGTH_MEASURE(0.01),#664,
'DISTANCE_ACCURACY_VALUE',
'Maximum model space distance between geometric entities at asserted c
onnectivities');
#661=UNCERTAINTY_MEASURE_WITH_UNIT(LENGTH_MEASURE(0.01),#664,
'DISTANCE_ACCURACY_VALUE',
'Maximum model space distance between geometric entities at asserted c
onnectivities');
#662=(
GEOMETRIC_REPRESENTATION_CONTEXT(3)
GLOBAL_UNCERTAINTY_ASSIGNED_CONTEXT((#660))
GLOBAL_UNIT_ASSIGNED_CONTEXT((#664,#666,#667))
REPRESENTATION_CONTEXT('','3D')
);
#663=(
GEOMETRIC_REPRESENTATION_CONTEXT(3)
GLOBAL_UNCERTAINTY_ASSIGNED_CONTEXT((#661))
GLOBAL_UNIT_ASSIGNED_CONTEXT((#664,#666,#667))
REPRESENTATION_CONTEXT('','3D')
);
#664=(
LENGTH_UNIT()
NAMED_UNIT(*)
SI_UNIT(.MILLI.,.METRE.)
);
#665=(
LENGTH_UNIT()
NAMED_UNIT(*)
SI_UNIT($,.METRE.)
);
#666=(
NAMED_UNIT(*)
PLANE_ANGLE_UNIT()
SI_UNIT($,.RADIAN.)
);
#667=(
NAMED_UNIT(*)
SI_UNIT($,.STERADIAN.)
SOLID_ANGLE_UNIT()
);
#668=SHAPE_DEFINITION_REPRESENTATION(#669,#670);
#669=PRODUCT_DEFINITION_SHAPE('',$,#672);
#670=SHAPE_REPRESENTATION('',(#412),#662);
#671=PRODUCT_DEFINITION_CONTEXT('part definition',#676,'design');
#672=PRODUCT_DEFINITION('2026-06-06-21-35-58-979','Top Plate',#673,#671);
#673=PRODUCT_DEFINITION_FORMATION('',$,#678);
#674=PRODUCT_RELATED_PRODUCT_CATEGORY('Top Plate','Top Plate',(#678));
#675=APPLICATION_PROTOCOL_DEFINITION('international standard',
'automotive_design',2009,#676);
#676=APPLICATION_CONTEXT(
'Core Data for Automotive Mechanical Design Process');
#677=PRODUCT_CONTEXT('part definition',#676,'mechanical');
#678=PRODUCT('2026-06-06-21-35-58-979','Top Plate',$,(#677));
#679=PRESENTATION_STYLE_ASSIGNMENT((#680));
#680=SURFACE_STYLE_USAGE(.BOTH.,#681);
#681=SURFACE_SIDE_STYLE('',(#682));
#682=SURFACE_STYLE_FILL_AREA(#683);
#683=FILL_AREA_STYLE('Steel - Satin',(#684));
#684=FILL_AREA_STYLE_COLOUR('Steel - Satin',#685);
#685=COLOUR_RGB('Steel - Satin',0.627450980392157,0.627450980392157,0.627450980392157);
ENDSEC;
END-ISO-10303-21;
