ISO-10303-21;
HEADER;
/* Generated by software containing ST-Developer
 * from STEP Tools, Inc. (www.steptools.com) 
 */

FILE_DESCRIPTION(
/* description */ (''),
/* implementation_level */ '2;1');

FILE_NAME(
/* name */ 'Top.step',
/* time_stamp */ '2026-06-07T14:32:51+02:00',
/* author */ (''),
/* organization */ (''),
/* preprocessor_version */ 'ST-DEVELOPER v20.1',
/* originating_system */ 'Autodesk Translation Framework v15.8.0.0',
/* authorisation */ '');

FILE_SCHEMA (('AUTOMOTIVE_DESIGN { 1 0 10303 214 3 1 1 }'));
ENDSEC;

DATA;
#10=MECHANICAL_DESIGN_GEOMETRIC_PRESENTATION_REPRESENTATION('',(#13),#1443);
#11=SHAPE_REPRESENTATION_RELATIONSHIP('SRR','None',#1450,#12);
#12=ADVANCED_BREP_SHAPE_REPRESENTATION('',(#14),#1442);
#13=STYLED_ITEM('',(#1459),#14);
#14=MANIFOLD_SOLID_BREP('Body5',#855);
#15=FACE_BOUND('',#102,.T.);
#16=FACE_BOUND('',#103,.T.);
#17=FACE_BOUND('',#104,.T.);
#18=FACE_BOUND('',#105,.T.);
#19=FACE_BOUND('',#106,.T.);
#20=FACE_BOUND('',#107,.T.);
#21=FACE_BOUND('',#108,.T.);
#22=FACE_BOUND('',#109,.T.);
#23=FACE_BOUND('',#145,.T.);
#24=FACE_BOUND('',#146,.T.);
#25=FACE_BOUND('',#147,.T.);
#26=FACE_BOUND('',#148,.T.);
#27=FACE_BOUND('',#149,.T.);
#28=FACE_BOUND('',#150,.T.);
#29=FACE_BOUND('',#151,.T.);
#30=FACE_BOUND('',#152,.T.);
#31=PLANE('',#881);
#32=PLANE('',#882);
#33=PLANE('',#883);
#34=PLANE('',#900);
#35=PLANE('',#901);
#36=PLANE('',#902);
#37=PLANE('',#905);
#38=PLANE('',#908);
#39=PLANE('',#911);
#40=PLANE('',#914);
#41=PLANE('',#917);
#42=PLANE('',#920);
#43=PLANE('',#923);
#44=PLANE('',#926);
#45=PLANE('',#929);
#46=PLANE('',#932);
#47=PLANE('',#935);
#48=PLANE('',#938);
#49=PLANE('',#941);
#50=PLANE('',#944);
#51=PLANE('',#947);
#52=PLANE('',#950);
#53=FACE_OUTER_BOUND('',#95,.T.);
#54=FACE_OUTER_BOUND('',#96,.T.);
#55=FACE_OUTER_BOUND('',#97,.T.);
#56=FACE_OUTER_BOUND('',#98,.T.);
#57=FACE_OUTER_BOUND('',#99,.T.);
#58=FACE_OUTER_BOUND('',#100,.T.);
#59=FACE_OUTER_BOUND('',#101,.T.);
#60=FACE_OUTER_BOUND('',#110,.T.);
#61=FACE_OUTER_BOUND('',#111,.T.);
#62=FACE_OUTER_BOUND('',#112,.T.);
#63=FACE_OUTER_BOUND('',#113,.T.);
#64=FACE_OUTER_BOUND('',#114,.T.);
#65=FACE_OUTER_BOUND('',#115,.T.);
#66=FACE_OUTER_BOUND('',#116,.T.);
#67=FACE_OUTER_BOUND('',#117,.T.);
#68=FACE_OUTER_BOUND('',#118,.T.);
#69=FACE_OUTER_BOUND('',#119,.T.);
#70=FACE_OUTER_BOUND('',#120,.T.);
#71=FACE_OUTER_BOUND('',#121,.T.);
#72=FACE_OUTER_BOUND('',#122,.T.);
#73=FACE_OUTER_BOUND('',#123,.T.);
#74=FACE_OUTER_BOUND('',#124,.T.);
#75=FACE_OUTER_BOUND('',#125,.T.);
#76=FACE_OUTER_BOUND('',#126,.T.);
#77=FACE_OUTER_BOUND('',#127,.T.);
#78=FACE_OUTER_BOUND('',#128,.T.);
#79=FACE_OUTER_BOUND('',#129,.T.);
#80=FACE_OUTER_BOUND('',#130,.T.);
#81=FACE_OUTER_BOUND('',#131,.T.);
#82=FACE_OUTER_BOUND('',#132,.T.);
#83=FACE_OUTER_BOUND('',#133,.T.);
#84=FACE_OUTER_BOUND('',#134,.T.);
#85=FACE_OUTER_BOUND('',#135,.T.);
#86=FACE_OUTER_BOUND('',#136,.T.);
#87=FACE_OUTER_BOUND('',#137,.T.);
#88=FACE_OUTER_BOUND('',#138,.T.);
#89=FACE_OUTER_BOUND('',#139,.T.);
#90=FACE_OUTER_BOUND('',#140,.T.);
#91=FACE_OUTER_BOUND('',#141,.T.);
#92=FACE_OUTER_BOUND('',#142,.T.);
#93=FACE_OUTER_BOUND('',#143,.T.);
#94=FACE_OUTER_BOUND('',#144,.T.);
#95=EDGE_LOOP('',(#553,#554,#555,#556));
#96=EDGE_LOOP('',(#557,#558,#559,#560));
#97=EDGE_LOOP('',(#561,#562,#563,#564));
#98=EDGE_LOOP('',(#565,#566,#567,#568));
#99=EDGE_LOOP('',(#569,#570,#571,#572));
#100=EDGE_LOOP('',(#573,#574,#575,#576));
#101=EDGE_LOOP('',(#577,#578,#579,#580));
#102=EDGE_LOOP('',(#581));
#103=EDGE_LOOP('',(#582));
#104=EDGE_LOOP('',(#583,#584,#585,#586,#587,#588,#589,#590));
#105=EDGE_LOOP('',(#591,#592,#593,#594,#595,#596,#597,#598));
#106=EDGE_LOOP('',(#599,#600,#601,#602,#603,#604,#605,#606));
#107=EDGE_LOOP('',(#607,#608,#609,#610,#611,#612,#613,#614));
#108=EDGE_LOOP('',(#615));
#109=EDGE_LOOP('',(#616));
#110=EDGE_LOOP('',(#617,#618,#619,#620));
#111=EDGE_LOOP('',(#621,#622,#623,#624));
#112=EDGE_LOOP('',(#625,#626,#627,#628));
#113=EDGE_LOOP('',(#629,#630,#631,#632));
#114=EDGE_LOOP('',(#633,#634,#635,#636));
#115=EDGE_LOOP('',(#637,#638,#639,#640));
#116=EDGE_LOOP('',(#641,#642,#643,#644));
#117=EDGE_LOOP('',(#645,#646,#647,#648));
#118=EDGE_LOOP('',(#649,#650,#651,#652));
#119=EDGE_LOOP('',(#653,#654,#655,#656));
#120=EDGE_LOOP('',(#657,#658,#659,#660));
#121=EDGE_LOOP('',(#661,#662,#663,#664));
#122=EDGE_LOOP('',(#665,#666,#667,#668));
#123=EDGE_LOOP('',(#669,#670,#671,#672));
#124=EDGE_LOOP('',(#673,#674,#675,#676));
#125=EDGE_LOOP('',(#677,#678,#679,#680));
#126=EDGE_LOOP('',(#681,#682,#683,#684));
#127=EDGE_LOOP('',(#685,#686,#687,#688));
#128=EDGE_LOOP('',(#689,#690,#691,#692));
#129=EDGE_LOOP('',(#693,#694,#695,#696));
#130=EDGE_LOOP('',(#697,#698,#699,#700));
#131=EDGE_LOOP('',(#701,#702,#703,#704));
#132=EDGE_LOOP('',(#705,#706,#707,#708));
#133=EDGE_LOOP('',(#709,#710,#711,#712));
#134=EDGE_LOOP('',(#713,#714,#715,#716));
#135=EDGE_LOOP('',(#717,#718,#719,#720));
#136=EDGE_LOOP('',(#721,#722,#723,#724));
#137=EDGE_LOOP('',(#725,#726,#727,#728));
#138=EDGE_LOOP('',(#729,#730,#731,#732));
#139=EDGE_LOOP('',(#733,#734,#735,#736));
#140=EDGE_LOOP('',(#737,#738,#739,#740));
#141=EDGE_LOOP('',(#741,#742,#743,#744));
#142=EDGE_LOOP('',(#745,#746,#747,#748));
#143=EDGE_LOOP('',(#749,#750,#751,#752));
#144=EDGE_LOOP('',(#753,#754,#755,#756));
#145=EDGE_LOOP('',(#757));
#146=EDGE_LOOP('',(#758));
#147=EDGE_LOOP('',(#759,#760,#761,#762,#763,#764,#765,#766));
#148=EDGE_LOOP('',(#767,#768,#769,#770,#771,#772,#773,#774));
#149=EDGE_LOOP('',(#775,#776,#777,#778,#779,#780,#781,#782));
#150=EDGE_LOOP('',(#783,#784,#785,#786,#787,#788,#789,#790));
#151=EDGE_LOOP('',(#791));
#152=EDGE_LOOP('',(#792));
#153=LINE('',#1202,#233);
#154=LINE('',#1208,#234);
#155=LINE('',#1214,#235);
#156=LINE('',#1220,#236);
#157=LINE('',#1225,#237);
#158=LINE('',#1227,#238);
#159=LINE('',#1229,#239);
#160=LINE('',#1230,#240);
#161=LINE('',#1234,#241);
#162=LINE('',#1235,#242);
#163=LINE('',#1236,#243);
#164=LINE('',#1239,#244);
#165=LINE('',#1240,#245);
#166=LINE('',#1245,#246);
#167=LINE('',#1249,#247);
#168=LINE('',#1253,#248);
#169=LINE('',#1256,#249);
#170=LINE('',#1261,#250);
#171=LINE('',#1265,#251);
#172=LINE('',#1269,#252);
#173=LINE('',#1272,#253);
#174=LINE('',#1277,#254);
#175=LINE('',#1281,#255);
#176=LINE('',#1285,#256);
#177=LINE('',#1288,#257);
#178=LINE('',#1293,#258);
#179=LINE('',#1297,#259);
#180=LINE('',#1301,#260);
#181=LINE('',#1304,#261);
#182=LINE('',#1307,#262);
#183=LINE('',#1308,#263);
#184=LINE('',#1310,#264);
#185=LINE('',#1314,#265);
#186=LINE('',#1315,#266);
#187=LINE('',#1316,#267);
#188=LINE('',#1320,#268);
#189=LINE('',#1323,#269);
#190=LINE('',#1324,#270);
#191=LINE('',#1328,#271);
#192=LINE('',#1331,#272);
#193=LINE('',#1332,#273);
#194=LINE('',#1336,#274);
#195=LINE('',#1339,#275);
#196=LINE('',#1340,#276);
#197=LINE('',#1346,#277);
#198=LINE('',#1347,#278);
#199=LINE('',#1348,#279);
#200=LINE('',#1352,#280);
#201=LINE('',#1355,#281);
#202=LINE('',#1356,#282);
#203=LINE('',#1360,#283);
#204=LINE('',#1363,#284);
#205=LINE('',#1364,#285);
#206=LINE('',#1368,#286);
#207=LINE('',#1371,#287);
#208=LINE('',#1372,#288);
#209=LINE('',#1378,#289);
#210=LINE('',#1379,#290);
#211=LINE('',#1380,#291);
#212=LINE('',#1384,#292);
#213=LINE('',#1387,#293);
#214=LINE('',#1388,#294);
#215=LINE('',#1392,#295);
#216=LINE('',#1395,#296);
#217=LINE('',#1396,#297);
#218=LINE('',#1400,#298);
#219=LINE('',#1403,#299);
#220=LINE('',#1404,#300);
#221=LINE('',#1410,#301);
#222=LINE('',#1411,#302);
#223=LINE('',#1412,#303);
#224=LINE('',#1416,#304);
#225=LINE('',#1419,#305);
#226=LINE('',#1420,#306);
#227=LINE('',#1424,#307);
#228=LINE('',#1427,#308);
#229=LINE('',#1428,#309);
#230=LINE('',#1432,#310);
#231=LINE('',#1435,#311);
#232=LINE('',#1436,#312);
#233=VECTOR('',#957,1.8);
#234=VECTOR('',#964,1.8);
#235=VECTOR('',#971,1.8);
#236=VECTOR('',#978,1.8);
#237=VECTOR('',#983,10.);
#238=VECTOR('',#984,10.);
#239=VECTOR('',#985,10.);
#240=VECTOR('',#986,10.);
#241=VECTOR('',#989,10.);
#242=VECTOR('',#990,10.);
#243=VECTOR('',#991,10.);
#244=VECTOR('',#994,10.);
#245=VECTOR('',#995,10.);
#246=VECTOR('',#998,10.);
#247=VECTOR('',#1001,10.);
#248=VECTOR('',#1004,10.);
#249=VECTOR('',#1007,10.);
#250=VECTOR('',#1010,10.);
#251=VECTOR('',#1013,10.);
#252=VECTOR('',#1016,10.);
#253=VECTOR('',#1019,10.);
#254=VECTOR('',#1022,10.);
#255=VECTOR('',#1025,10.);
#256=VECTOR('',#1028,10.);
#257=VECTOR('',#1031,10.);
#258=VECTOR('',#1034,10.);
#259=VECTOR('',#1037,10.);
#260=VECTOR('',#1040,10.);
#261=VECTOR('',#1043,10.);
#262=VECTOR('',#1046,10.);
#263=VECTOR('',#1047,10.);
#264=VECTOR('',#1050,10.);
#265=VECTOR('',#1053,10.);
#266=VECTOR('',#1054,10.);
#267=VECTOR('',#1055,10.);
#268=VECTOR('',#1060,10.);
#269=VECTOR('',#1063,10.);
#270=VECTOR('',#1064,10.);
#271=VECTOR('',#1069,10.);
#272=VECTOR('',#1072,10.);
#273=VECTOR('',#1073,10.);
#274=VECTOR('',#1078,10.);
#275=VECTOR('',#1081,10.);
#276=VECTOR('',#1082,10.);
#277=VECTOR('',#1089,10.);
#278=VECTOR('',#1090,10.);
#279=VECTOR('',#1091,10.);
#280=VECTOR('',#1096,10.);
#281=VECTOR('',#1099,10.);
#282=VECTOR('',#1100,10.);
#283=VECTOR('',#1105,10.);
#284=VECTOR('',#1108,10.);
#285=VECTOR('',#1109,10.);
#286=VECTOR('',#1114,10.);
#287=VECTOR('',#1117,10.);
#288=VECTOR('',#1118,10.);
#289=VECTOR('',#1125,10.);
#290=VECTOR('',#1126,10.);
#291=VECTOR('',#1127,10.);
#292=VECTOR('',#1132,10.);
#293=VECTOR('',#1135,10.);
#294=VECTOR('',#1136,10.);
#295=VECTOR('',#1141,10.);
#296=VECTOR('',#1144,10.);
#297=VECTOR('',#1145,10.);
#298=VECTOR('',#1150,10.);
#299=VECTOR('',#1153,10.);
#300=VECTOR('',#1154,10.);
#301=VECTOR('',#1161,10.);
#302=VECTOR('',#1162,10.);
#303=VECTOR('',#1163,10.);
#304=VECTOR('',#1168,10.);
#305=VECTOR('',#1171,10.);
#306=VECTOR('',#1172,10.);
#307=VECTOR('',#1177,10.);
#308=VECTOR('',#1180,10.);
#309=VECTOR('',#1181,10.);
#310=VECTOR('',#1186,10.);
#311=VECTOR('',#1189,10.);
#312=VECTOR('',#1190,10.);
#313=CIRCLE('',#870,1.8);
#314=CIRCLE('',#871,1.8);
#315=CIRCLE('',#873,1.8);
#316=CIRCLE('',#874,1.8);
#317=CIRCLE('',#876,1.8);
#318=CIRCLE('',#877,1.8);
#319=CIRCLE('',#879,1.8);
#320=CIRCLE('',#880,1.8);
#321=CIRCLE('',#884,0.5);
#322=CIRCLE('',#885,0.499999999999998);
#323=CIRCLE('',#886,0.499999999999998);
#324=CIRCLE('',#887,0.5);
#325=CIRCLE('',#888,0.5);
#326=CIRCLE('',#889,0.499999999999998);
#327=CIRCLE('',#890,0.499999999999998);
#328=CIRCLE('',#891,0.499999999999998);
#329=CIRCLE('',#892,0.5);
#330=CIRCLE('',#893,0.500000000000003);
#331=CIRCLE('',#894,0.499999999999998);
#332=CIRCLE('',#895,0.499999999999998);
#333=CIRCLE('',#896,0.5);
#334=CIRCLE('',#897,0.499999999999998);
#335=CIRCLE('',#898,0.499999999999998);
#336=CIRCLE('',#899,0.499999999999998);
#337=CIRCLE('',#904,0.499999999999998);
#338=CIRCLE('',#907,0.499999999999998);
#339=CIRCLE('',#910,0.499999999999998);
#340=CIRCLE('',#913,0.5);
#341=CIRCLE('',#916,0.499999999999998);
#342=CIRCLE('',#919,0.499999999999998);
#343=CIRCLE('',#922,0.500000000000003);
#344=CIRCLE('',#925,0.5);
#345=CIRCLE('',#928,0.499999999999998);
#346=CIRCLE('',#931,0.499999999999998);
#347=CIRCLE('',#934,0.499999999999998);
#348=CIRCLE('',#937,0.5);
#349=CIRCLE('',#940,0.5);
#350=CIRCLE('',#943,0.499999999999998);
#351=CIRCLE('',#946,0.499999999999998);
#352=CIRCLE('',#949,0.5);
#353=VERTEX_POINT('',#1199);
#354=VERTEX_POINT('',#1201);
#355=VERTEX_POINT('',#1205);
#356=VERTEX_POINT('',#1207);
#357=VERTEX_POINT('',#1211);
#358=VERTEX_POINT('',#1213);
#359=VERTEX_POINT('',#1217);
#360=VERTEX_POINT('',#1219);
#361=VERTEX_POINT('',#1223);
#362=VERTEX_POINT('',#1224);
#363=VERTEX_POINT('',#1226);
#364=VERTEX_POINT('',#1228);
#365=VERTEX_POINT('',#1232);
#366=VERTEX_POINT('',#1233);
#367=VERTEX_POINT('',#1238);
#368=VERTEX_POINT('',#1241);
#369=VERTEX_POINT('',#1242);
#370=VERTEX_POINT('',#1244);
#371=VERTEX_POINT('',#1246);
#372=VERTEX_POINT('',#1248);
#373=VERTEX_POINT('',#1250);
#374=VERTEX_POINT('',#1252);
#375=VERTEX_POINT('',#1254);
#376=VERTEX_POINT('',#1257);
#377=VERTEX_POINT('',#1258);
#378=VERTEX_POINT('',#1260);
#379=VERTEX_POINT('',#1262);
#380=VERTEX_POINT('',#1264);
#381=VERTEX_POINT('',#1266);
#382=VERTEX_POINT('',#1268);
#383=VERTEX_POINT('',#1270);
#384=VERTEX_POINT('',#1273);
#385=VERTEX_POINT('',#1274);
#386=VERTEX_POINT('',#1276);
#387=VERTEX_POINT('',#1278);
#388=VERTEX_POINT('',#1280);
#389=VERTEX_POINT('',#1282);
#390=VERTEX_POINT('',#1284);
#391=VERTEX_POINT('',#1286);
#392=VERTEX_POINT('',#1289);
#393=VERTEX_POINT('',#1290);
#394=VERTEX_POINT('',#1292);
#395=VERTEX_POINT('',#1294);
#396=VERTEX_POINT('',#1296);
#397=VERTEX_POINT('',#1298);
#398=VERTEX_POINT('',#1300);
#399=VERTEX_POINT('',#1302);
#400=VERTEX_POINT('',#1306);
#401=VERTEX_POINT('',#1312);
#402=VERTEX_POINT('',#1313);
#403=VERTEX_POINT('',#1318);
#404=VERTEX_POINT('',#1322);
#405=VERTEX_POINT('',#1326);
#406=VERTEX_POINT('',#1330);
#407=VERTEX_POINT('',#1334);
#408=VERTEX_POINT('',#1338);
#409=VERTEX_POINT('',#1344);
#410=VERTEX_POINT('',#1345);
#411=VERTEX_POINT('',#1350);
#412=VERTEX_POINT('',#1354);
#413=VERTEX_POINT('',#1358);
#414=VERTEX_POINT('',#1362);
#415=VERTEX_POINT('',#1366);
#416=VERTEX_POINT('',#1370);
#417=VERTEX_POINT('',#1376);
#418=VERTEX_POINT('',#1377);
#419=VERTEX_POINT('',#1382);
#420=VERTEX_POINT('',#1386);
#421=VERTEX_POINT('',#1390);
#422=VERTEX_POINT('',#1394);
#423=VERTEX_POINT('',#1398);
#424=VERTEX_POINT('',#1402);
#425=VERTEX_POINT('',#1408);
#426=VERTEX_POINT('',#1409);
#427=VERTEX_POINT('',#1414);
#428=VERTEX_POINT('',#1418);
#429=VERTEX_POINT('',#1422);
#430=VERTEX_POINT('',#1426);
#431=VERTEX_POINT('',#1430);
#432=VERTEX_POINT('',#1434);
#433=EDGE_CURVE('',#353,#353,#313,.T.);
#434=EDGE_CURVE('',#353,#354,#153,.T.);
#435=EDGE_CURVE('',#354,#354,#314,.T.);
#436=EDGE_CURVE('',#355,#355,#315,.T.);
#437=EDGE_CURVE('',#355,#356,#154,.T.);
#438=EDGE_CURVE('',#356,#356,#316,.T.);
#439=EDGE_CURVE('',#357,#357,#317,.T.);
#440=EDGE_CURVE('',#357,#358,#155,.T.);
#441=EDGE_CURVE('',#358,#358,#318,.T.);
#442=EDGE_CURVE('',#359,#359,#319,.T.);
#443=EDGE_CURVE('',#359,#360,#156,.T.);
#444=EDGE_CURVE('',#360,#360,#320,.T.);
#445=EDGE_CURVE('',#361,#362,#157,.T.);
#446=EDGE_CURVE('',#362,#363,#158,.T.);
#447=EDGE_CURVE('',#363,#364,#159,.T.);
#448=EDGE_CURVE('',#364,#361,#160,.T.);
#449=EDGE_CURVE('',#365,#366,#161,.T.);
#450=EDGE_CURVE('',#362,#365,#162,.T.);
#451=EDGE_CURVE('',#366,#361,#163,.T.);
#452=EDGE_CURVE('',#365,#367,#164,.T.);
#453=EDGE_CURVE('',#367,#363,#165,.T.);
#454=EDGE_CURVE('',#368,#369,#321,.T.);
#455=EDGE_CURVE('',#369,#370,#166,.T.);
#456=EDGE_CURVE('',#370,#371,#322,.T.);
#457=EDGE_CURVE('',#371,#372,#167,.T.);
#458=EDGE_CURVE('',#372,#373,#323,.T.);
#459=EDGE_CURVE('',#373,#374,#168,.T.);
#460=EDGE_CURVE('',#374,#375,#324,.T.);
#461=EDGE_CURVE('',#375,#368,#169,.T.);
#462=EDGE_CURVE('',#376,#377,#325,.T.);
#463=EDGE_CURVE('',#377,#378,#170,.T.);
#464=EDGE_CURVE('',#378,#379,#326,.T.);
#465=EDGE_CURVE('',#379,#380,#171,.T.);
#466=EDGE_CURVE('',#380,#381,#327,.T.);
#467=EDGE_CURVE('',#381,#382,#172,.T.);
#468=EDGE_CURVE('',#382,#383,#328,.T.);
#469=EDGE_CURVE('',#383,#376,#173,.T.);
#470=EDGE_CURVE('',#384,#385,#329,.T.);
#471=EDGE_CURVE('',#385,#386,#174,.T.);
#472=EDGE_CURVE('',#386,#387,#330,.T.);
#473=EDGE_CURVE('',#387,#388,#175,.T.);
#474=EDGE_CURVE('',#388,#389,#331,.T.);
#475=EDGE_CURVE('',#389,#390,#176,.T.);
#476=EDGE_CURVE('',#390,#391,#332,.T.);
#477=EDGE_CURVE('',#391,#384,#177,.T.);
#478=EDGE_CURVE('',#392,#393,#333,.T.);
#479=EDGE_CURVE('',#393,#394,#178,.T.);
#480=EDGE_CURVE('',#394,#395,#334,.T.);
#481=EDGE_CURVE('',#395,#396,#179,.T.);
#482=EDGE_CURVE('',#396,#397,#335,.T.);
#483=EDGE_CURVE('',#397,#398,#180,.T.);
#484=EDGE_CURVE('',#398,#399,#336,.T.);
#485=EDGE_CURVE('',#399,#392,#181,.T.);
#486=EDGE_CURVE('',#400,#366,#182,.T.);
#487=EDGE_CURVE('',#367,#400,#183,.T.);
#488=EDGE_CURVE('',#400,#364,#184,.T.);
#489=EDGE_CURVE('',#401,#402,#185,.T.);
#490=EDGE_CURVE('',#402,#392,#186,.T.);
#491=EDGE_CURVE('',#401,#399,#187,.T.);
#492=EDGE_CURVE('',#403,#401,#337,.T.);
#493=EDGE_CURVE('',#403,#398,#188,.T.);
#494=EDGE_CURVE('',#404,#403,#189,.T.);
#495=EDGE_CURVE('',#404,#397,#190,.T.);
#496=EDGE_CURVE('',#405,#404,#338,.T.);
#497=EDGE_CURVE('',#405,#396,#191,.T.);
#498=EDGE_CURVE('',#406,#405,#192,.T.);
#499=EDGE_CURVE('',#406,#395,#193,.T.);
#500=EDGE_CURVE('',#407,#406,#339,.T.);
#501=EDGE_CURVE('',#407,#394,#194,.T.);
#502=EDGE_CURVE('',#408,#407,#195,.T.);
#503=EDGE_CURVE('',#408,#393,#196,.T.);
#504=EDGE_CURVE('',#402,#408,#340,.T.);
#505=EDGE_CURVE('',#409,#410,#197,.T.);
#506=EDGE_CURVE('',#410,#384,#198,.T.);
#507=EDGE_CURVE('',#409,#391,#199,.T.);
#508=EDGE_CURVE('',#411,#409,#341,.T.);
#509=EDGE_CURVE('',#411,#390,#200,.T.);
#510=EDGE_CURVE('',#412,#411,#201,.T.);
#511=EDGE_CURVE('',#412,#389,#202,.T.);
#512=EDGE_CURVE('',#413,#412,#342,.T.);
#513=EDGE_CURVE('',#413,#388,#203,.T.);
#514=EDGE_CURVE('',#414,#413,#204,.T.);
#515=EDGE_CURVE('',#414,#387,#205,.T.);
#516=EDGE_CURVE('',#415,#414,#343,.T.);
#517=EDGE_CURVE('',#415,#386,#206,.T.);
#518=EDGE_CURVE('',#416,#415,#207,.T.);
#519=EDGE_CURVE('',#416,#385,#208,.T.);
#520=EDGE_CURVE('',#410,#416,#344,.T.);
#521=EDGE_CURVE('',#417,#418,#209,.T.);
#522=EDGE_CURVE('',#418,#376,#210,.T.);
#523=EDGE_CURVE('',#417,#383,#211,.T.);
#524=EDGE_CURVE('',#419,#417,#345,.T.);
#525=EDGE_CURVE('',#419,#382,#212,.T.);
#526=EDGE_CURVE('',#420,#419,#213,.T.);
#527=EDGE_CURVE('',#420,#381,#214,.T.);
#528=EDGE_CURVE('',#421,#420,#346,.T.);
#529=EDGE_CURVE('',#421,#380,#215,.T.);
#530=EDGE_CURVE('',#422,#421,#216,.T.);
#531=EDGE_CURVE('',#422,#379,#217,.T.);
#532=EDGE_CURVE('',#423,#422,#347,.T.);
#533=EDGE_CURVE('',#423,#378,#218,.T.);
#534=EDGE_CURVE('',#424,#423,#219,.T.);
#535=EDGE_CURVE('',#424,#377,#220,.T.);
#536=EDGE_CURVE('',#418,#424,#348,.T.);
#537=EDGE_CURVE('',#425,#426,#221,.T.);
#538=EDGE_CURVE('',#426,#368,#222,.T.);
#539=EDGE_CURVE('',#425,#375,#223,.T.);
#540=EDGE_CURVE('',#427,#425,#349,.T.);
#541=EDGE_CURVE('',#427,#374,#224,.T.);
#542=EDGE_CURVE('',#428,#427,#225,.T.);
#543=EDGE_CURVE('',#428,#373,#226,.T.);
#544=EDGE_CURVE('',#429,#428,#350,.T.);
#545=EDGE_CURVE('',#429,#372,#227,.T.);
#546=EDGE_CURVE('',#430,#429,#228,.T.);
#547=EDGE_CURVE('',#430,#371,#229,.T.);
#548=EDGE_CURVE('',#431,#430,#351,.T.);
#549=EDGE_CURVE('',#431,#370,#230,.T.);
#550=EDGE_CURVE('',#432,#431,#231,.T.);
#551=EDGE_CURVE('',#432,#369,#232,.T.);
#552=EDGE_CURVE('',#426,#432,#352,.T.);
#553=ORIENTED_EDGE('',*,*,#433,.F.);
#554=ORIENTED_EDGE('',*,*,#434,.T.);
#555=ORIENTED_EDGE('',*,*,#435,.F.);
#556=ORIENTED_EDGE('',*,*,#434,.F.);
#557=ORIENTED_EDGE('',*,*,#436,.F.);
#558=ORIENTED_EDGE('',*,*,#437,.T.);
#559=ORIENTED_EDGE('',*,*,#438,.F.);
#560=ORIENTED_EDGE('',*,*,#437,.F.);
#561=ORIENTED_EDGE('',*,*,#439,.F.);
#562=ORIENTED_EDGE('',*,*,#440,.T.);
#563=ORIENTED_EDGE('',*,*,#441,.F.);
#564=ORIENTED_EDGE('',*,*,#440,.F.);
#565=ORIENTED_EDGE('',*,*,#442,.F.);
#566=ORIENTED_EDGE('',*,*,#443,.T.);
#567=ORIENTED_EDGE('',*,*,#444,.F.);
#568=ORIENTED_EDGE('',*,*,#443,.F.);
#569=ORIENTED_EDGE('',*,*,#445,.T.);
#570=ORIENTED_EDGE('',*,*,#446,.T.);
#571=ORIENTED_EDGE('',*,*,#447,.T.);
#572=ORIENTED_EDGE('',*,*,#448,.T.);
#573=ORIENTED_EDGE('',*,*,#449,.F.);
#574=ORIENTED_EDGE('',*,*,#450,.F.);
#575=ORIENTED_EDGE('',*,*,#445,.F.);
#576=ORIENTED_EDGE('',*,*,#451,.F.);
#577=ORIENTED_EDGE('',*,*,#450,.T.);
#578=ORIENTED_EDGE('',*,*,#452,.T.);
#579=ORIENTED_EDGE('',*,*,#453,.T.);
#580=ORIENTED_EDGE('',*,*,#446,.F.);
#581=ORIENTED_EDGE('',*,*,#436,.T.);
#582=ORIENTED_EDGE('',*,*,#442,.T.);
#583=ORIENTED_EDGE('',*,*,#454,.T.);
#584=ORIENTED_EDGE('',*,*,#455,.T.);
#585=ORIENTED_EDGE('',*,*,#456,.T.);
#586=ORIENTED_EDGE('',*,*,#457,.T.);
#587=ORIENTED_EDGE('',*,*,#458,.T.);
#588=ORIENTED_EDGE('',*,*,#459,.T.);
#589=ORIENTED_EDGE('',*,*,#460,.T.);
#590=ORIENTED_EDGE('',*,*,#461,.T.);
#591=ORIENTED_EDGE('',*,*,#462,.T.);
#592=ORIENTED_EDGE('',*,*,#463,.T.);
#593=ORIENTED_EDGE('',*,*,#464,.T.);
#594=ORIENTED_EDGE('',*,*,#465,.T.);
#595=ORIENTED_EDGE('',*,*,#466,.T.);
#596=ORIENTED_EDGE('',*,*,#467,.T.);
#597=ORIENTED_EDGE('',*,*,#468,.T.);
#598=ORIENTED_EDGE('',*,*,#469,.T.);
#599=ORIENTED_EDGE('',*,*,#470,.T.);
#600=ORIENTED_EDGE('',*,*,#471,.T.);
#601=ORIENTED_EDGE('',*,*,#472,.T.);
#602=ORIENTED_EDGE('',*,*,#473,.T.);
#603=ORIENTED_EDGE('',*,*,#474,.T.);
#604=ORIENTED_EDGE('',*,*,#475,.T.);
#605=ORIENTED_EDGE('',*,*,#476,.T.);
#606=ORIENTED_EDGE('',*,*,#477,.T.);
#607=ORIENTED_EDGE('',*,*,#478,.T.);
#608=ORIENTED_EDGE('',*,*,#479,.T.);
#609=ORIENTED_EDGE('',*,*,#480,.T.);
#610=ORIENTED_EDGE('',*,*,#481,.T.);
#611=ORIENTED_EDGE('',*,*,#482,.T.);
#612=ORIENTED_EDGE('',*,*,#483,.T.);
#613=ORIENTED_EDGE('',*,*,#484,.T.);
#614=ORIENTED_EDGE('',*,*,#485,.T.);
#615=ORIENTED_EDGE('',*,*,#439,.T.);
#616=ORIENTED_EDGE('',*,*,#433,.T.);
#617=ORIENTED_EDGE('',*,*,#449,.T.);
#618=ORIENTED_EDGE('',*,*,#486,.F.);
#619=ORIENTED_EDGE('',*,*,#487,.F.);
#620=ORIENTED_EDGE('',*,*,#452,.F.);
#621=ORIENTED_EDGE('',*,*,#487,.T.);
#622=ORIENTED_EDGE('',*,*,#488,.T.);
#623=ORIENTED_EDGE('',*,*,#447,.F.);
#624=ORIENTED_EDGE('',*,*,#453,.F.);
#625=ORIENTED_EDGE('',*,*,#489,.T.);
#626=ORIENTED_EDGE('',*,*,#490,.T.);
#627=ORIENTED_EDGE('',*,*,#485,.F.);
#628=ORIENTED_EDGE('',*,*,#491,.F.);
#629=ORIENTED_EDGE('',*,*,#492,.T.);
#630=ORIENTED_EDGE('',*,*,#491,.T.);
#631=ORIENTED_EDGE('',*,*,#484,.F.);
#632=ORIENTED_EDGE('',*,*,#493,.F.);
#633=ORIENTED_EDGE('',*,*,#494,.T.);
#634=ORIENTED_EDGE('',*,*,#493,.T.);
#635=ORIENTED_EDGE('',*,*,#483,.F.);
#636=ORIENTED_EDGE('',*,*,#495,.F.);
#637=ORIENTED_EDGE('',*,*,#496,.T.);
#638=ORIENTED_EDGE('',*,*,#495,.T.);
#639=ORIENTED_EDGE('',*,*,#482,.F.);
#640=ORIENTED_EDGE('',*,*,#497,.F.);
#641=ORIENTED_EDGE('',*,*,#498,.T.);
#642=ORIENTED_EDGE('',*,*,#497,.T.);
#643=ORIENTED_EDGE('',*,*,#481,.F.);
#644=ORIENTED_EDGE('',*,*,#499,.F.);
#645=ORIENTED_EDGE('',*,*,#500,.T.);
#646=ORIENTED_EDGE('',*,*,#499,.T.);
#647=ORIENTED_EDGE('',*,*,#480,.F.);
#648=ORIENTED_EDGE('',*,*,#501,.F.);
#649=ORIENTED_EDGE('',*,*,#502,.T.);
#650=ORIENTED_EDGE('',*,*,#501,.T.);
#651=ORIENTED_EDGE('',*,*,#479,.F.);
#652=ORIENTED_EDGE('',*,*,#503,.F.);
#653=ORIENTED_EDGE('',*,*,#504,.T.);
#654=ORIENTED_EDGE('',*,*,#503,.T.);
#655=ORIENTED_EDGE('',*,*,#478,.F.);
#656=ORIENTED_EDGE('',*,*,#490,.F.);
#657=ORIENTED_EDGE('',*,*,#505,.T.);
#658=ORIENTED_EDGE('',*,*,#506,.T.);
#659=ORIENTED_EDGE('',*,*,#477,.F.);
#660=ORIENTED_EDGE('',*,*,#507,.F.);
#661=ORIENTED_EDGE('',*,*,#508,.T.);
#662=ORIENTED_EDGE('',*,*,#507,.T.);
#663=ORIENTED_EDGE('',*,*,#476,.F.);
#664=ORIENTED_EDGE('',*,*,#509,.F.);
#665=ORIENTED_EDGE('',*,*,#510,.T.);
#666=ORIENTED_EDGE('',*,*,#509,.T.);
#667=ORIENTED_EDGE('',*,*,#475,.F.);
#668=ORIENTED_EDGE('',*,*,#511,.F.);
#669=ORIENTED_EDGE('',*,*,#512,.T.);
#670=ORIENTED_EDGE('',*,*,#511,.T.);
#671=ORIENTED_EDGE('',*,*,#474,.F.);
#672=ORIENTED_EDGE('',*,*,#513,.F.);
#673=ORIENTED_EDGE('',*,*,#514,.T.);
#674=ORIENTED_EDGE('',*,*,#513,.T.);
#675=ORIENTED_EDGE('',*,*,#473,.F.);
#676=ORIENTED_EDGE('',*,*,#515,.F.);
#677=ORIENTED_EDGE('',*,*,#516,.T.);
#678=ORIENTED_EDGE('',*,*,#515,.T.);
#679=ORIENTED_EDGE('',*,*,#472,.F.);
#680=ORIENTED_EDGE('',*,*,#517,.F.);
#681=ORIENTED_EDGE('',*,*,#518,.T.);
#682=ORIENTED_EDGE('',*,*,#517,.T.);
#683=ORIENTED_EDGE('',*,*,#471,.F.);
#684=ORIENTED_EDGE('',*,*,#519,.F.);
#685=ORIENTED_EDGE('',*,*,#520,.T.);
#686=ORIENTED_EDGE('',*,*,#519,.T.);
#687=ORIENTED_EDGE('',*,*,#470,.F.);
#688=ORIENTED_EDGE('',*,*,#506,.F.);
#689=ORIENTED_EDGE('',*,*,#521,.T.);
#690=ORIENTED_EDGE('',*,*,#522,.T.);
#691=ORIENTED_EDGE('',*,*,#469,.F.);
#692=ORIENTED_EDGE('',*,*,#523,.F.);
#693=ORIENTED_EDGE('',*,*,#524,.T.);
#694=ORIENTED_EDGE('',*,*,#523,.T.);
#695=ORIENTED_EDGE('',*,*,#468,.F.);
#696=ORIENTED_EDGE('',*,*,#525,.F.);
#697=ORIENTED_EDGE('',*,*,#526,.T.);
#698=ORIENTED_EDGE('',*,*,#525,.T.);
#699=ORIENTED_EDGE('',*,*,#467,.F.);
#700=ORIENTED_EDGE('',*,*,#527,.F.);
#701=ORIENTED_EDGE('',*,*,#528,.T.);
#702=ORIENTED_EDGE('',*,*,#527,.T.);
#703=ORIENTED_EDGE('',*,*,#466,.F.);
#704=ORIENTED_EDGE('',*,*,#529,.F.);
#705=ORIENTED_EDGE('',*,*,#530,.T.);
#706=ORIENTED_EDGE('',*,*,#529,.T.);
#707=ORIENTED_EDGE('',*,*,#465,.F.);
#708=ORIENTED_EDGE('',*,*,#531,.F.);
#709=ORIENTED_EDGE('',*,*,#532,.T.);
#710=ORIENTED_EDGE('',*,*,#531,.T.);
#711=ORIENTED_EDGE('',*,*,#464,.F.);
#712=ORIENTED_EDGE('',*,*,#533,.F.);
#713=ORIENTED_EDGE('',*,*,#534,.T.);
#714=ORIENTED_EDGE('',*,*,#533,.T.);
#715=ORIENTED_EDGE('',*,*,#463,.F.);
#716=ORIENTED_EDGE('',*,*,#535,.F.);
#717=ORIENTED_EDGE('',*,*,#536,.T.);
#718=ORIENTED_EDGE('',*,*,#535,.T.);
#719=ORIENTED_EDGE('',*,*,#462,.F.);
#720=ORIENTED_EDGE('',*,*,#522,.F.);
#721=ORIENTED_EDGE('',*,*,#537,.T.);
#722=ORIENTED_EDGE('',*,*,#538,.T.);
#723=ORIENTED_EDGE('',*,*,#461,.F.);
#724=ORIENTED_EDGE('',*,*,#539,.F.);
#725=ORIENTED_EDGE('',*,*,#540,.T.);
#726=ORIENTED_EDGE('',*,*,#539,.T.);
#727=ORIENTED_EDGE('',*,*,#460,.F.);
#728=ORIENTED_EDGE('',*,*,#541,.F.);
#729=ORIENTED_EDGE('',*,*,#542,.T.);
#730=ORIENTED_EDGE('',*,*,#541,.T.);
#731=ORIENTED_EDGE('',*,*,#459,.F.);
#732=ORIENTED_EDGE('',*,*,#543,.F.);
#733=ORIENTED_EDGE('',*,*,#544,.T.);
#734=ORIENTED_EDGE('',*,*,#543,.T.);
#735=ORIENTED_EDGE('',*,*,#458,.F.);
#736=ORIENTED_EDGE('',*,*,#545,.F.);
#737=ORIENTED_EDGE('',*,*,#546,.T.);
#738=ORIENTED_EDGE('',*,*,#545,.T.);
#739=ORIENTED_EDGE('',*,*,#457,.F.);
#740=ORIENTED_EDGE('',*,*,#547,.F.);
#741=ORIENTED_EDGE('',*,*,#548,.T.);
#742=ORIENTED_EDGE('',*,*,#547,.T.);
#743=ORIENTED_EDGE('',*,*,#456,.F.);
#744=ORIENTED_EDGE('',*,*,#549,.F.);
#745=ORIENTED_EDGE('',*,*,#550,.T.);
#746=ORIENTED_EDGE('',*,*,#549,.T.);
#747=ORIENTED_EDGE('',*,*,#455,.F.);
#748=ORIENTED_EDGE('',*,*,#551,.F.);
#749=ORIENTED_EDGE('',*,*,#552,.T.);
#750=ORIENTED_EDGE('',*,*,#551,.T.);
#751=ORIENTED_EDGE('',*,*,#454,.F.);
#752=ORIENTED_EDGE('',*,*,#538,.F.);
#753=ORIENTED_EDGE('',*,*,#451,.T.);
#754=ORIENTED_EDGE('',*,*,#448,.F.);
#755=ORIENTED_EDGE('',*,*,#488,.F.);
#756=ORIENTED_EDGE('',*,*,#486,.T.);
#757=ORIENTED_EDGE('',*,*,#438,.T.);
#758=ORIENTED_EDGE('',*,*,#444,.T.);
#759=ORIENTED_EDGE('',*,*,#504,.F.);
#760=ORIENTED_EDGE('',*,*,#489,.F.);
#761=ORIENTED_EDGE('',*,*,#492,.F.);
#762=ORIENTED_EDGE('',*,*,#494,.F.);
#763=ORIENTED_EDGE('',*,*,#496,.F.);
#764=ORIENTED_EDGE('',*,*,#498,.F.);
#765=ORIENTED_EDGE('',*,*,#500,.F.);
#766=ORIENTED_EDGE('',*,*,#502,.F.);
#767=ORIENTED_EDGE('',*,*,#520,.F.);
#768=ORIENTED_EDGE('',*,*,#505,.F.);
#769=ORIENTED_EDGE('',*,*,#508,.F.);
#770=ORIENTED_EDGE('',*,*,#510,.F.);
#771=ORIENTED_EDGE('',*,*,#512,.F.);
#772=ORIENTED_EDGE('',*,*,#514,.F.);
#773=ORIENTED_EDGE('',*,*,#516,.F.);
#774=ORIENTED_EDGE('',*,*,#518,.F.);
#775=ORIENTED_EDGE('',*,*,#536,.F.);
#776=ORIENTED_EDGE('',*,*,#521,.F.);
#777=ORIENTED_EDGE('',*,*,#524,.F.);
#778=ORIENTED_EDGE('',*,*,#526,.F.);
#779=ORIENTED_EDGE('',*,*,#528,.F.);
#780=ORIENTED_EDGE('',*,*,#530,.F.);
#781=ORIENTED_EDGE('',*,*,#532,.F.);
#782=ORIENTED_EDGE('',*,*,#534,.F.);
#783=ORIENTED_EDGE('',*,*,#552,.F.);
#784=ORIENTED_EDGE('',*,*,#537,.F.);
#785=ORIENTED_EDGE('',*,*,#540,.F.);
#786=ORIENTED_EDGE('',*,*,#542,.F.);
#787=ORIENTED_EDGE('',*,*,#544,.F.);
#788=ORIENTED_EDGE('',*,*,#546,.F.);
#789=ORIENTED_EDGE('',*,*,#548,.F.);
#790=ORIENTED_EDGE('',*,*,#550,.F.);
#791=ORIENTED_EDGE('',*,*,#441,.T.);
#792=ORIENTED_EDGE('',*,*,#435,.T.);
#793=CYLINDRICAL_SURFACE('',#869,1.8);
#794=CYLINDRICAL_SURFACE('',#872,1.8);
#795=CYLINDRICAL_SURFACE('',#875,1.8);
#796=CYLINDRICAL_SURFACE('',#878,1.8);
#797=CYLINDRICAL_SURFACE('',#903,0.499999999999998);
#798=CYLINDRICAL_SURFACE('',#906,0.499999999999998);
#799=CYLINDRICAL_SURFACE('',#909,0.499999999999998);
#800=CYLINDRICAL_SURFACE('',#912,0.5);
#801=CYLINDRICAL_SURFACE('',#915,0.499999999999998);
#802=CYLINDRICAL_SURFACE('',#918,0.499999999999998);
#803=CYLINDRICAL_SURFACE('',#921,0.500000000000003);
#804=CYLINDRICAL_SURFACE('',#924,0.5);
#805=CYLINDRICAL_SURFACE('',#927,0.499999999999998);
#806=CYLINDRICAL_SURFACE('',#930,0.499999999999998);
#807=CYLINDRICAL_SURFACE('',#933,0.499999999999998);
#808=CYLINDRICAL_SURFACE('',#936,0.5);
#809=CYLINDRICAL_SURFACE('',#939,0.5);
#810=CYLINDRICAL_SURFACE('',#942,0.499999999999998);
#811=CYLINDRICAL_SURFACE('',#945,0.499999999999998);
#812=CYLINDRICAL_SURFACE('',#948,0.5);
#813=ADVANCED_FACE('',(#53),#793,.F.);
#814=ADVANCED_FACE('',(#54),#794,.F.);
#815=ADVANCED_FACE('',(#55),#795,.F.);
#816=ADVANCED_FACE('',(#56),#796,.F.);
#817=ADVANCED_FACE('',(#57),#31,.T.);
#818=ADVANCED_FACE('',(#58),#32,.F.);
#819=ADVANCED_FACE('',(#59,#15,#16,#17,#18,#19,#20,#21,#22),#33,.T.);
#820=ADVANCED_FACE('',(#60),#34,.F.);
#821=ADVANCED_FACE('',(#61),#35,.T.);
#822=ADVANCED_FACE('',(#62),#36,.T.);
#823=ADVANCED_FACE('',(#63),#797,.F.);
#824=ADVANCED_FACE('',(#64),#37,.T.);
#825=ADVANCED_FACE('',(#65),#798,.F.);
#826=ADVANCED_FACE('',(#66),#38,.T.);
#827=ADVANCED_FACE('',(#67),#799,.F.);
#828=ADVANCED_FACE('',(#68),#39,.T.);
#829=ADVANCED_FACE('',(#69),#800,.F.);
#830=ADVANCED_FACE('',(#70),#40,.T.);
#831=ADVANCED_FACE('',(#71),#801,.F.);
#832=ADVANCED_FACE('',(#72),#41,.T.);
#833=ADVANCED_FACE('',(#73),#802,.F.);
#834=ADVANCED_FACE('',(#74),#42,.T.);
#835=ADVANCED_FACE('',(#75),#803,.F.);
#836=ADVANCED_FACE('',(#76),#43,.T.);
#837=ADVANCED_FACE('',(#77),#804,.F.);
#838=ADVANCED_FACE('',(#78),#44,.T.);
#839=ADVANCED_FACE('',(#79),#805,.F.);
#840=ADVANCED_FACE('',(#80),#45,.T.);
#841=ADVANCED_FACE('',(#81),#806,.F.);
#842=ADVANCED_FACE('',(#82),#46,.T.);
#843=ADVANCED_FACE('',(#83),#807,.F.);
#844=ADVANCED_FACE('',(#84),#47,.T.);
#845=ADVANCED_FACE('',(#85),#808,.F.);
#846=ADVANCED_FACE('',(#86),#48,.T.);
#847=ADVANCED_FACE('',(#87),#809,.F.);
#848=ADVANCED_FACE('',(#88),#49,.T.);
#849=ADVANCED_FACE('',(#89),#810,.F.);
#850=ADVANCED_FACE('',(#90),#50,.T.);
#851=ADVANCED_FACE('',(#91),#811,.F.);
#852=ADVANCED_FACE('',(#92),#51,.T.);
#853=ADVANCED_FACE('',(#93),#812,.F.);
#854=ADVANCED_FACE('',(#94,#23,#24,#25,#26,#27,#28,#29,#30),#52,.F.);
#855=CLOSED_SHELL('',(#813,#814,#815,#816,#817,#818,#819,#820,#821,#822,
#823,#824,#825,#826,#827,#828,#829,#830,#831,#832,#833,#834,#835,#836,#837,
#838,#839,#840,#841,#842,#843,#844,#845,#846,#847,#848,#849,#850,#851,#852,
#853,#854));
#856=DERIVED_UNIT_ELEMENT(#858,1.);
#857=DERIVED_UNIT_ELEMENT(#1445,-3.);
#858=(
MASS_UNIT()
NAMED_UNIT(*)
SI_UNIT(.KILO.,.GRAM.)
);
#859=DERIVED_UNIT((#856,#857));
#860=MEASURE_REPRESENTATION_ITEM('density measure',
POSITIVE_RATIO_MEASURE(7850.),#859);
#861=PROPERTY_DEFINITION_REPRESENTATION(#866,#863);
#862=PROPERTY_DEFINITION_REPRESENTATION(#867,#864);
#863=REPRESENTATION('material name',(#865),#1442);
#864=REPRESENTATION('density',(#860),#1442);
#865=DESCRIPTIVE_REPRESENTATION_ITEM('Steel','Steel');
#866=PROPERTY_DEFINITION('material property','material name',#1452);
#867=PROPERTY_DEFINITION('material property','density of part',#1452);
#868=AXIS2_PLACEMENT_3D('',#1197,#951,#952);
#869=AXIS2_PLACEMENT_3D('',#1198,#953,#954);
#870=AXIS2_PLACEMENT_3D('',#1200,#955,#956);
#871=AXIS2_PLACEMENT_3D('',#1203,#958,#959);
#872=AXIS2_PLACEMENT_3D('',#1204,#960,#961);
#873=AXIS2_PLACEMENT_3D('',#1206,#962,#963);
#874=AXIS2_PLACEMENT_3D('',#1209,#965,#966);
#875=AXIS2_PLACEMENT_3D('',#1210,#967,#968);
#876=AXIS2_PLACEMENT_3D('',#1212,#969,#970);
#877=AXIS2_PLACEMENT_3D('',#1215,#972,#973);
#878=AXIS2_PLACEMENT_3D('',#1216,#974,#975);
#879=AXIS2_PLACEMENT_3D('',#1218,#976,#977);
#880=AXIS2_PLACEMENT_3D('',#1221,#979,#980);
#881=AXIS2_PLACEMENT_3D('',#1222,#981,#982);
#882=AXIS2_PLACEMENT_3D('',#1231,#987,#988);
#883=AXIS2_PLACEMENT_3D('',#1237,#992,#993);
#884=AXIS2_PLACEMENT_3D('',#1243,#996,#997);
#885=AXIS2_PLACEMENT_3D('',#1247,#999,#1000);
#886=AXIS2_PLACEMENT_3D('',#1251,#1002,#1003);
#887=AXIS2_PLACEMENT_3D('',#1255,#1005,#1006);
#888=AXIS2_PLACEMENT_3D('',#1259,#1008,#1009);
#889=AXIS2_PLACEMENT_3D('',#1263,#1011,#1012);
#890=AXIS2_PLACEMENT_3D('',#1267,#1014,#1015);
#891=AXIS2_PLACEMENT_3D('',#1271,#1017,#1018);
#892=AXIS2_PLACEMENT_3D('',#1275,#1020,#1021);
#893=AXIS2_PLACEMENT_3D('',#1279,#1023,#1024);
#894=AXIS2_PLACEMENT_3D('',#1283,#1026,#1027);
#895=AXIS2_PLACEMENT_3D('',#1287,#1029,#1030);
#896=AXIS2_PLACEMENT_3D('',#1291,#1032,#1033);
#897=AXIS2_PLACEMENT_3D('',#1295,#1035,#1036);
#898=AXIS2_PLACEMENT_3D('',#1299,#1038,#1039);
#899=AXIS2_PLACEMENT_3D('',#1303,#1041,#1042);
#900=AXIS2_PLACEMENT_3D('',#1305,#1044,#1045);
#901=AXIS2_PLACEMENT_3D('',#1309,#1048,#1049);
#902=AXIS2_PLACEMENT_3D('',#1311,#1051,#1052);
#903=AXIS2_PLACEMENT_3D('',#1317,#1056,#1057);
#904=AXIS2_PLACEMENT_3D('',#1319,#1058,#1059);
#905=AXIS2_PLACEMENT_3D('',#1321,#1061,#1062);
#906=AXIS2_PLACEMENT_3D('',#1325,#1065,#1066);
#907=AXIS2_PLACEMENT_3D('',#1327,#1067,#1068);
#908=AXIS2_PLACEMENT_3D('',#1329,#1070,#1071);
#909=AXIS2_PLACEMENT_3D('',#1333,#1074,#1075);
#910=AXIS2_PLACEMENT_3D('',#1335,#1076,#1077);
#911=AXIS2_PLACEMENT_3D('',#1337,#1079,#1080);
#912=AXIS2_PLACEMENT_3D('',#1341,#1083,#1084);
#913=AXIS2_PLACEMENT_3D('',#1342,#1085,#1086);
#914=AXIS2_PLACEMENT_3D('',#1343,#1087,#1088);
#915=AXIS2_PLACEMENT_3D('',#1349,#1092,#1093);
#916=AXIS2_PLACEMENT_3D('',#1351,#1094,#1095);
#917=AXIS2_PLACEMENT_3D('',#1353,#1097,#1098);
#918=AXIS2_PLACEMENT_3D('',#1357,#1101,#1102);
#919=AXIS2_PLACEMENT_3D('',#1359,#1103,#1104);
#920=AXIS2_PLACEMENT_3D('',#1361,#1106,#1107);
#921=AXIS2_PLACEMENT_3D('',#1365,#1110,#1111);
#922=AXIS2_PLACEMENT_3D('',#1367,#1112,#1113);
#923=AXIS2_PLACEMENT_3D('',#1369,#1115,#1116);
#924=AXIS2_PLACEMENT_3D('',#1373,#1119,#1120);
#925=AXIS2_PLACEMENT_3D('',#1374,#1121,#1122);
#926=AXIS2_PLACEMENT_3D('',#1375,#1123,#1124);
#927=AXIS2_PLACEMENT_3D('',#1381,#1128,#1129);
#928=AXIS2_PLACEMENT_3D('',#1383,#1130,#1131);
#929=AXIS2_PLACEMENT_3D('',#1385,#1133,#1134);
#930=AXIS2_PLACEMENT_3D('',#1389,#1137,#1138);
#931=AXIS2_PLACEMENT_3D('',#1391,#1139,#1140);
#932=AXIS2_PLACEMENT_3D('',#1393,#1142,#1143);
#933=AXIS2_PLACEMENT_3D('',#1397,#1146,#1147);
#934=AXIS2_PLACEMENT_3D('',#1399,#1148,#1149);
#935=AXIS2_PLACEMENT_3D('',#1401,#1151,#1152);
#936=AXIS2_PLACEMENT_3D('',#1405,#1155,#1156);
#937=AXIS2_PLACEMENT_3D('',#1406,#1157,#1158);
#938=AXIS2_PLACEMENT_3D('',#1407,#1159,#1160);
#939=AXIS2_PLACEMENT_3D('',#1413,#1164,#1165);
#940=AXIS2_PLACEMENT_3D('',#1415,#1166,#1167);
#941=AXIS2_PLACEMENT_3D('',#1417,#1169,#1170);
#942=AXIS2_PLACEMENT_3D('',#1421,#1173,#1174);
#943=AXIS2_PLACEMENT_3D('',#1423,#1175,#1176);
#944=AXIS2_PLACEMENT_3D('',#1425,#1178,#1179);
#945=AXIS2_PLACEMENT_3D('',#1429,#1182,#1183);
#946=AXIS2_PLACEMENT_3D('',#1431,#1184,#1185);
#947=AXIS2_PLACEMENT_3D('',#1433,#1187,#1188);
#948=AXIS2_PLACEMENT_3D('',#1437,#1191,#1192);
#949=AXIS2_PLACEMENT_3D('',#1438,#1193,#1194);
#950=AXIS2_PLACEMENT_3D('',#1439,#1195,#1196);
#951=DIRECTION('axis',(0.,0.,1.));
#952=DIRECTION('refdir',(1.,0.,0.));
#953=DIRECTION('center_axis',(0.,-1.,0.));
#954=DIRECTION('ref_axis',(0.,0.,1.));
#955=DIRECTION('center_axis',(0.,-1.,0.));
#956=DIRECTION('ref_axis',(0.,0.,1.));
#957=DIRECTION('',(0.,-1.,0.));
#958=DIRECTION('center_axis',(0.,1.,0.));
#959=DIRECTION('ref_axis',(0.,0.,1.));
#960=DIRECTION('center_axis',(0.,-1.,0.));
#961=DIRECTION('ref_axis',(0.,0.,1.));
#962=DIRECTION('center_axis',(0.,-1.,0.));
#963=DIRECTION('ref_axis',(0.,0.,1.));
#964=DIRECTION('',(0.,-1.,0.));
#965=DIRECTION('center_axis',(0.,1.,0.));
#966=DIRECTION('ref_axis',(0.,0.,1.));
#967=DIRECTION('center_axis',(0.,-1.,0.));
#968=DIRECTION('ref_axis',(0.,0.,1.));
#969=DIRECTION('center_axis',(0.,-1.,0.));
#970=DIRECTION('ref_axis',(0.,0.,1.));
#971=DIRECTION('',(0.,-1.,0.));
#972=DIRECTION('center_axis',(0.,1.,0.));
#973=DIRECTION('ref_axis',(0.,0.,1.));
#974=DIRECTION('center_axis',(0.,-1.,0.));
#975=DIRECTION('ref_axis',(0.,0.,1.));
#976=DIRECTION('center_axis',(0.,-1.,0.));
#977=DIRECTION('ref_axis',(0.,0.,1.));
#978=DIRECTION('',(0.,-1.,0.));
#979=DIRECTION('center_axis',(0.,1.,0.));
#980=DIRECTION('ref_axis',(0.,0.,1.));
#981=DIRECTION('center_axis',(1.,0.,0.));
#982=DIRECTION('ref_axis',(0.,0.,-1.));
#983=DIRECTION('',(0.,1.,0.));
#984=DIRECTION('',(0.,0.,1.));
#985=DIRECTION('',(0.,-1.,0.));
#986=DIRECTION('',(0.,0.,-1.));
#987=DIRECTION('center_axis',(0.,0.,1.));
#988=DIRECTION('ref_axis',(1.,0.,0.));
#989=DIRECTION('',(0.,-1.,0.));
#990=DIRECTION('',(-1.,0.,0.));
#991=DIRECTION('',(1.,0.,0.));
#992=DIRECTION('center_axis',(0.,1.,0.));
#993=DIRECTION('ref_axis',(1.,0.,0.));
#994=DIRECTION('',(0.,0.,1.));
#995=DIRECTION('',(1.,0.,0.));
#996=DIRECTION('center_axis',(0.,-1.,0.));
#997=DIRECTION('ref_axis',(0.,0.,-1.));
#998=DIRECTION('',(1.,0.,0.));
#999=DIRECTION('center_axis',(0.,-1.,0.));
#1000=DIRECTION('ref_axis',(1.,0.,0.));
#1001=DIRECTION('',(0.,0.,1.));
#1002=DIRECTION('center_axis',(0.,-1.,0.));
#1003=DIRECTION('ref_axis',(0.,0.,1.));
#1004=DIRECTION('',(-1.,0.,0.));
#1005=DIRECTION('center_axis',(0.,-1.,0.));
#1006=DIRECTION('ref_axis',(-1.,0.,0.));
#1007=DIRECTION('',(0.,0.,-1.));
#1008=DIRECTION('center_axis',(0.,-1.,0.));
#1009=DIRECTION('ref_axis',(0.,0.,-1.));
#1010=DIRECTION('',(1.,0.,0.));
#1011=DIRECTION('center_axis',(0.,-1.,0.));
#1012=DIRECTION('ref_axis',(1.,0.,0.));
#1013=DIRECTION('',(0.,0.,1.));
#1014=DIRECTION('center_axis',(0.,-1.,0.));
#1015=DIRECTION('ref_axis',(0.,0.,1.));
#1016=DIRECTION('',(-1.,0.,0.));
#1017=DIRECTION('center_axis',(0.,-1.,0.));
#1018=DIRECTION('ref_axis',(-1.,0.,0.));
#1019=DIRECTION('',(0.,0.,-1.));
#1020=DIRECTION('center_axis',(0.,-1.,0.));
#1021=DIRECTION('ref_axis',(0.,0.,-1.));
#1022=DIRECTION('',(1.,0.,0.));
#1023=DIRECTION('center_axis',(0.,-1.,0.));
#1024=DIRECTION('ref_axis',(1.,0.,0.));
#1025=DIRECTION('',(0.,0.,1.));
#1026=DIRECTION('center_axis',(0.,-1.,0.));
#1027=DIRECTION('ref_axis',(0.,0.,1.));
#1028=DIRECTION('',(-1.,0.,0.));
#1029=DIRECTION('center_axis',(0.,-1.,0.));
#1030=DIRECTION('ref_axis',(-1.,0.,0.));
#1031=DIRECTION('',(0.,0.,-1.));
#1032=DIRECTION('center_axis',(0.,-1.,0.));
#1033=DIRECTION('ref_axis',(0.,0.,-1.));
#1034=DIRECTION('',(1.,0.,0.));
#1035=DIRECTION('center_axis',(0.,-1.,0.));
#1036=DIRECTION('ref_axis',(1.,0.,0.));
#1037=DIRECTION('',(0.,0.,1.));
#1038=DIRECTION('center_axis',(0.,-1.,0.));
#1039=DIRECTION('ref_axis',(0.,0.,1.));
#1040=DIRECTION('',(-1.,0.,0.));
#1041=DIRECTION('center_axis',(0.,-1.,0.));
#1042=DIRECTION('ref_axis',(-1.,0.,0.));
#1043=DIRECTION('',(0.,0.,-1.));
#1044=DIRECTION('center_axis',(1.,0.,0.));
#1045=DIRECTION('ref_axis',(0.,0.,-1.));
#1046=DIRECTION('',(0.,0.,-1.));
#1047=DIRECTION('',(0.,-1.,0.));
#1048=DIRECTION('center_axis',(0.,0.,1.));
#1049=DIRECTION('ref_axis',(1.,0.,0.));
#1050=DIRECTION('',(1.,0.,0.));
#1051=DIRECTION('center_axis',(1.,0.,0.));
#1052=DIRECTION('ref_axis',(0.,0.,-1.));
#1053=DIRECTION('',(0.,0.,-1.));
#1054=DIRECTION('',(0.,1.,0.));
#1055=DIRECTION('',(0.,1.,0.));
#1056=DIRECTION('center_axis',(0.,1.,0.));
#1057=DIRECTION('ref_axis',(-1.,0.,0.));
#1058=DIRECTION('center_axis',(0.,-1.,0.));
#1059=DIRECTION('ref_axis',(-1.,0.,0.));
#1060=DIRECTION('',(0.,1.,0.));
#1061=DIRECTION('center_axis',(0.,0.,-1.));
#1062=DIRECTION('ref_axis',(-1.,0.,0.));
#1063=DIRECTION('',(-1.,0.,0.));
#1064=DIRECTION('',(0.,1.,0.));
#1065=DIRECTION('center_axis',(0.,1.,0.));
#1066=DIRECTION('ref_axis',(0.,0.,1.));
#1067=DIRECTION('center_axis',(0.,-1.,0.));
#1068=DIRECTION('ref_axis',(0.,0.,1.));
#1069=DIRECTION('',(0.,1.,0.));
#1070=DIRECTION('center_axis',(-1.,0.,0.));
#1071=DIRECTION('ref_axis',(0.,0.,1.));
#1072=DIRECTION('',(0.,0.,1.));
#1073=DIRECTION('',(0.,1.,0.));
#1074=DIRECTION('center_axis',(0.,1.,0.));
#1075=DIRECTION('ref_axis',(1.,0.,0.));
#1076=DIRECTION('center_axis',(0.,-1.,0.));
#1077=DIRECTION('ref_axis',(1.,0.,0.));
#1078=DIRECTION('',(0.,1.,0.));
#1079=DIRECTION('center_axis',(0.,0.,1.));
#1080=DIRECTION('ref_axis',(1.,0.,0.));
#1081=DIRECTION('',(1.,0.,0.));
#1082=DIRECTION('',(0.,1.,0.));
#1083=DIRECTION('center_axis',(0.,1.,0.));
#1084=DIRECTION('ref_axis',(0.,0.,-1.));
#1085=DIRECTION('center_axis',(0.,-1.,0.));
#1086=DIRECTION('ref_axis',(0.,0.,-1.));
#1087=DIRECTION('center_axis',(1.,0.,0.));
#1088=DIRECTION('ref_axis',(0.,0.,-1.));
#1089=DIRECTION('',(0.,0.,-1.));
#1090=DIRECTION('',(0.,1.,0.));
#1091=DIRECTION('',(0.,1.,0.));
#1092=DIRECTION('center_axis',(0.,1.,0.));
#1093=DIRECTION('ref_axis',(-1.,0.,0.));
#1094=DIRECTION('center_axis',(0.,-1.,0.));
#1095=DIRECTION('ref_axis',(-1.,0.,0.));
#1096=DIRECTION('',(0.,1.,0.));
#1097=DIRECTION('center_axis',(0.,0.,-1.));
#1098=DIRECTION('ref_axis',(-1.,0.,0.));
#1099=DIRECTION('',(-1.,0.,0.));
#1100=DIRECTION('',(0.,1.,0.));
#1101=DIRECTION('center_axis',(0.,1.,0.));
#1102=DIRECTION('ref_axis',(0.,0.,1.));
#1103=DIRECTION('center_axis',(0.,-1.,0.));
#1104=DIRECTION('ref_axis',(0.,0.,1.));
#1105=DIRECTION('',(0.,1.,0.));
#1106=DIRECTION('center_axis',(-1.,0.,0.));
#1107=DIRECTION('ref_axis',(0.,0.,1.));
#1108=DIRECTION('',(0.,0.,1.));
#1109=DIRECTION('',(0.,1.,0.));
#1110=DIRECTION('center_axis',(0.,1.,0.));
#1111=DIRECTION('ref_axis',(1.,0.,0.));
#1112=DIRECTION('center_axis',(0.,-1.,0.));
#1113=DIRECTION('ref_axis',(1.,0.,0.));
#1114=DIRECTION('',(0.,1.,0.));
#1115=DIRECTION('center_axis',(0.,0.,1.));
#1116=DIRECTION('ref_axis',(1.,0.,0.));
#1117=DIRECTION('',(1.,0.,0.));
#1118=DIRECTION('',(0.,1.,0.));
#1119=DIRECTION('center_axis',(0.,1.,0.));
#1120=DIRECTION('ref_axis',(0.,0.,-1.));
#1121=DIRECTION('center_axis',(0.,-1.,0.));
#1122=DIRECTION('ref_axis',(0.,0.,-1.));
#1123=DIRECTION('center_axis',(1.,0.,0.));
#1124=DIRECTION('ref_axis',(0.,0.,-1.));
#1125=DIRECTION('',(0.,0.,-1.));
#1126=DIRECTION('',(0.,1.,0.));
#1127=DIRECTION('',(0.,1.,0.));
#1128=DIRECTION('center_axis',(0.,1.,0.));
#1129=DIRECTION('ref_axis',(-1.,0.,0.));
#1130=DIRECTION('center_axis',(0.,-1.,0.));
#1131=DIRECTION('ref_axis',(-1.,0.,0.));
#1132=DIRECTION('',(0.,1.,0.));
#1133=DIRECTION('center_axis',(0.,0.,-1.));
#1134=DIRECTION('ref_axis',(-1.,0.,0.));
#1135=DIRECTION('',(-1.,0.,0.));
#1136=DIRECTION('',(0.,1.,0.));
#1137=DIRECTION('center_axis',(0.,1.,0.));
#1138=DIRECTION('ref_axis',(0.,0.,1.));
#1139=DIRECTION('center_axis',(0.,-1.,0.));
#1140=DIRECTION('ref_axis',(0.,0.,1.));
#1141=DIRECTION('',(0.,1.,0.));
#1142=DIRECTION('center_axis',(-1.,0.,0.));
#1143=DIRECTION('ref_axis',(0.,0.,1.));
#1144=DIRECTION('',(0.,0.,1.));
#1145=DIRECTION('',(0.,1.,0.));
#1146=DIRECTION('center_axis',(0.,1.,0.));
#1147=DIRECTION('ref_axis',(1.,0.,0.));
#1148=DIRECTION('center_axis',(0.,-1.,0.));
#1149=DIRECTION('ref_axis',(1.,0.,0.));
#1150=DIRECTION('',(0.,1.,0.));
#1151=DIRECTION('center_axis',(0.,0.,1.));
#1152=DIRECTION('ref_axis',(1.,0.,0.));
#1153=DIRECTION('',(1.,0.,0.));
#1154=DIRECTION('',(0.,1.,0.));
#1155=DIRECTION('center_axis',(0.,1.,0.));
#1156=DIRECTION('ref_axis',(0.,0.,-1.));
#1157=DIRECTION('center_axis',(0.,-1.,0.));
#1158=DIRECTION('ref_axis',(0.,0.,-1.));
#1159=DIRECTION('center_axis',(1.,0.,0.));
#1160=DIRECTION('ref_axis',(0.,0.,-1.));
#1161=DIRECTION('',(0.,0.,-1.));
#1162=DIRECTION('',(0.,1.,0.));
#1163=DIRECTION('',(0.,1.,0.));
#1164=DIRECTION('center_axis',(0.,1.,0.));
#1165=DIRECTION('ref_axis',(-1.,0.,0.));
#1166=DIRECTION('center_axis',(0.,-1.,0.));
#1167=DIRECTION('ref_axis',(-1.,0.,0.));
#1168=DIRECTION('',(0.,1.,0.));
#1169=DIRECTION('center_axis',(0.,0.,-1.));
#1170=DIRECTION('ref_axis',(-1.,0.,0.));
#1171=DIRECTION('',(-1.,0.,0.));
#1172=DIRECTION('',(0.,1.,0.));
#1173=DIRECTION('center_axis',(0.,1.,0.));
#1174=DIRECTION('ref_axis',(0.,0.,1.));
#1175=DIRECTION('center_axis',(0.,-1.,0.));
#1176=DIRECTION('ref_axis',(0.,0.,1.));
#1177=DIRECTION('',(0.,1.,0.));
#1178=DIRECTION('center_axis',(-1.,0.,0.));
#1179=DIRECTION('ref_axis',(0.,0.,1.));
#1180=DIRECTION('',(0.,0.,1.));
#1181=DIRECTION('',(0.,1.,0.));
#1182=DIRECTION('center_axis',(0.,1.,0.));
#1183=DIRECTION('ref_axis',(1.,0.,0.));
#1184=DIRECTION('center_axis',(0.,-1.,0.));
#1185=DIRECTION('ref_axis',(1.,0.,0.));
#1186=DIRECTION('',(0.,1.,0.));
#1187=DIRECTION('center_axis',(0.,0.,1.));
#1188=DIRECTION('ref_axis',(1.,0.,0.));
#1189=DIRECTION('',(1.,0.,0.));
#1190=DIRECTION('',(0.,1.,0.));
#1191=DIRECTION('center_axis',(0.,1.,0.));
#1192=DIRECTION('ref_axis',(0.,0.,-1.));
#1193=DIRECTION('center_axis',(0.,-1.,0.));
#1194=DIRECTION('ref_axis',(0.,0.,-1.));
#1195=DIRECTION('center_axis',(0.,1.,0.));
#1196=DIRECTION('ref_axis',(1.,0.,0.));
#1197=CARTESIAN_POINT('',(0.,0.,0.));
#1198=CARTESIAN_POINT('Origin',(-5.92122349884894,1.,25.7901573920465));
#1199=CARTESIAN_POINT('',(-5.92122349884894,3.,23.9901573920465));
#1200=CARTESIAN_POINT('Origin',(-5.92122349884894,3.,25.7901573920465));
#1201=CARTESIAN_POINT('',(-5.92122349884894,0.,23.9901573920465));
#1202=CARTESIAN_POINT('',(-5.92122349884894,1.,23.9901573920465));
#1203=CARTESIAN_POINT('Origin',(-5.92122349884894,0.,25.7901573920465));
#1204=CARTESIAN_POINT('Origin',(-6.11626289816827,1.,-7.7020053561672));
#1205=CARTESIAN_POINT('',(-6.11626289816827,3.,-9.5020053561672));
#1206=CARTESIAN_POINT('Origin',(-6.11626289816827,3.,-7.7020053561672));
#1207=CARTESIAN_POINT('',(-6.11626289816827,0.,-9.5020053561672));
#1208=CARTESIAN_POINT('',(-6.11626289816827,1.,-9.5020053561672));
#1209=CARTESIAN_POINT('Origin',(-6.11626289816827,0.,-7.7020053561672));
#1210=CARTESIAN_POINT('Origin',(84.4387138269732,1.,25.9777721015348));
#1211=CARTESIAN_POINT('',(84.4387138269732,3.,24.1777721015348));
#1212=CARTESIAN_POINT('Origin',(84.4387138269732,3.,25.9777721015348));
#1213=CARTESIAN_POINT('',(84.4387138269732,0.,24.1777721015348));
#1214=CARTESIAN_POINT('',(84.4387138269732,1.,24.1777721015348));
#1215=CARTESIAN_POINT('Origin',(84.4387138269732,0.,25.9777721015348));
#1216=CARTESIAN_POINT('Origin',(84.6939865158617,1.,-6.29264820714856));
#1217=CARTESIAN_POINT('',(84.6939865158617,3.,-8.09264820714856));
#1218=CARTESIAN_POINT('Origin',(84.6939865158617,3.,-6.29264820714856));
#1219=CARTESIAN_POINT('',(84.6939865158617,0.,-8.09264820714856));
#1220=CARTESIAN_POINT('',(84.6939865158617,1.,-8.09264820714856));
#1221=CARTESIAN_POINT('Origin',(84.6939865158617,0.,-6.29264820714856));
#1222=CARTESIAN_POINT('Origin',(90.,0.,18.94));
#1223=CARTESIAN_POINT('',(90.,0.,-12.51));
#1224=CARTESIAN_POINT('',(90.,3.,-12.51));
#1225=CARTESIAN_POINT('',(90.,0.,-12.51));
#1226=CARTESIAN_POINT('',(90.,3.,31.39));
#1227=CARTESIAN_POINT('',(90.,3.,-0.110000000000001));
#1228=CARTESIAN_POINT('',(90.,0.,31.39));
#1229=CARTESIAN_POINT('',(90.,0.,31.39));
#1230=CARTESIAN_POINT('',(90.,0.,18.94));
#1231=CARTESIAN_POINT('Origin',(76.2,0.,-12.51));
#1232=CARTESIAN_POINT('',(-11.7695,3.,-12.51));
#1233=CARTESIAN_POINT('',(-11.7695,0.,-12.51));
#1234=CARTESIAN_POINT('',(-11.7695,0.,-12.51));
#1235=CARTESIAN_POINT('',(57.15,3.,-12.51));
#1236=CARTESIAN_POINT('',(89.9,0.,-12.51));
#1237=CARTESIAN_POINT('Origin',(38.1,3.,9.415));
#1238=CARTESIAN_POINT('',(-11.7695,3.,31.39));
#1239=CARTESIAN_POINT('',(-11.7695,3.,4.6525));
#1240=CARTESIAN_POINT('',(89.9,3.,31.39));
#1241=CARTESIAN_POINT('',(2.525,3.,2.915));
#1242=CARTESIAN_POINT('',(3.025,3.,2.415));
#1243=CARTESIAN_POINT('Origin',(3.025,3.,2.915));
#1244=CARTESIAN_POINT('',(16.025,3.,2.415));
#1245=CARTESIAN_POINT('',(3.025,3.,2.415));
#1246=CARTESIAN_POINT('',(16.525,3.,2.915));
#1247=CARTESIAN_POINT('Origin',(16.025,3.,2.915));
#1248=CARTESIAN_POINT('',(16.525,3.,15.915));
#1249=CARTESIAN_POINT('',(16.525,3.,2.915));
#1250=CARTESIAN_POINT('',(16.025,3.,16.415));
#1251=CARTESIAN_POINT('Origin',(16.025,3.,15.915));
#1252=CARTESIAN_POINT('',(3.025,3.,16.415));
#1253=CARTESIAN_POINT('',(3.025,3.,16.415));
#1254=CARTESIAN_POINT('',(2.525,3.,15.915));
#1255=CARTESIAN_POINT('Origin',(3.025,3.,15.915));
#1256=CARTESIAN_POINT('',(2.525,3.,2.915));
#1257=CARTESIAN_POINT('',(40.625,3.,2.915));
#1258=CARTESIAN_POINT('',(41.125,3.,2.415));
#1259=CARTESIAN_POINT('Origin',(41.125,3.,2.915));
#1260=CARTESIAN_POINT('',(54.125,3.,2.415));
#1261=CARTESIAN_POINT('',(41.125,3.,2.415));
#1262=CARTESIAN_POINT('',(54.625,3.,2.915));
#1263=CARTESIAN_POINT('Origin',(54.125,3.,2.915));
#1264=CARTESIAN_POINT('',(54.625,3.,15.915));
#1265=CARTESIAN_POINT('',(54.625,3.,2.915));
#1266=CARTESIAN_POINT('',(54.125,3.,16.415));
#1267=CARTESIAN_POINT('Origin',(54.125,3.,15.915));
#1268=CARTESIAN_POINT('',(41.125,3.,16.415));
#1269=CARTESIAN_POINT('',(41.125,3.,16.415));
#1270=CARTESIAN_POINT('',(40.625,3.,15.915));
#1271=CARTESIAN_POINT('Origin',(41.125,3.,15.915));
#1272=CARTESIAN_POINT('',(40.625,3.,2.915));
#1273=CARTESIAN_POINT('',(21.575,3.,2.915));
#1274=CARTESIAN_POINT('',(22.075,3.,2.415));
#1275=CARTESIAN_POINT('Origin',(22.075,3.,2.915));
#1276=CARTESIAN_POINT('',(35.075,3.,2.41499999999999));
#1277=CARTESIAN_POINT('',(22.075,3.,2.415));
#1278=CARTESIAN_POINT('',(35.575,3.,2.915));
#1279=CARTESIAN_POINT('Origin',(35.075,3.,2.915));
#1280=CARTESIAN_POINT('',(35.575,3.,15.915));
#1281=CARTESIAN_POINT('',(35.575,3.,2.915));
#1282=CARTESIAN_POINT('',(35.075,3.,16.415));
#1283=CARTESIAN_POINT('Origin',(35.075,3.,15.915));
#1284=CARTESIAN_POINT('',(22.075,3.,16.415));
#1285=CARTESIAN_POINT('',(22.075,3.,16.415));
#1286=CARTESIAN_POINT('',(21.575,3.,15.915));
#1287=CARTESIAN_POINT('Origin',(22.075,3.,15.915));
#1288=CARTESIAN_POINT('',(21.575,3.,2.915));
#1289=CARTESIAN_POINT('',(59.675,3.,2.915));
#1290=CARTESIAN_POINT('',(60.175,3.,2.415));
#1291=CARTESIAN_POINT('Origin',(60.175,3.,2.915));
#1292=CARTESIAN_POINT('',(73.175,3.,2.415));
#1293=CARTESIAN_POINT('',(60.175,3.,2.415));
#1294=CARTESIAN_POINT('',(73.675,3.,2.915));
#1295=CARTESIAN_POINT('Origin',(73.175,3.,2.915));
#1296=CARTESIAN_POINT('',(73.675,3.,15.915));
#1297=CARTESIAN_POINT('',(73.675,3.,2.915));
#1298=CARTESIAN_POINT('',(73.175,3.,16.415));
#1299=CARTESIAN_POINT('Origin',(73.175,3.,15.915));
#1300=CARTESIAN_POINT('',(60.175,3.,16.415));
#1301=CARTESIAN_POINT('',(60.175,3.,16.415));
#1302=CARTESIAN_POINT('',(59.675,3.,15.915));
#1303=CARTESIAN_POINT('Origin',(60.175,3.,15.915));
#1304=CARTESIAN_POINT('',(59.675,3.,2.915));
#1305=CARTESIAN_POINT('Origin',(-11.7695,0.,-0.110000000000001));
#1306=CARTESIAN_POINT('',(-11.7695,0.,31.39));
#1307=CARTESIAN_POINT('',(-11.7695,0.,4.6525));
#1308=CARTESIAN_POINT('',(-11.7695,0.,31.39));
#1309=CARTESIAN_POINT('Origin',(0.,0.,31.39));
#1310=CARTESIAN_POINT('',(0.,0.,31.39));
#1311=CARTESIAN_POINT('Origin',(59.675,0.,15.915));
#1312=CARTESIAN_POINT('',(59.675,0.,15.915));
#1313=CARTESIAN_POINT('',(59.675,0.,2.915));
#1314=CARTESIAN_POINT('',(59.675,0.,2.915));
#1315=CARTESIAN_POINT('',(59.675,0.,2.915));
#1316=CARTESIAN_POINT('',(59.675,0.,15.915));
#1317=CARTESIAN_POINT('Origin',(60.175,0.,15.915));
#1318=CARTESIAN_POINT('',(60.175,0.,16.415));
#1319=CARTESIAN_POINT('Origin',(60.175,0.,15.915));
#1320=CARTESIAN_POINT('',(60.175,0.,16.415));
#1321=CARTESIAN_POINT('Origin',(73.175,0.,16.415));
#1322=CARTESIAN_POINT('',(73.175,0.,16.415));
#1323=CARTESIAN_POINT('',(60.175,0.,16.415));
#1324=CARTESIAN_POINT('',(73.175,0.,16.415));
#1325=CARTESIAN_POINT('Origin',(73.175,0.,15.915));
#1326=CARTESIAN_POINT('',(73.675,0.,15.915));
#1327=CARTESIAN_POINT('Origin',(73.175,0.,15.915));
#1328=CARTESIAN_POINT('',(73.675,0.,15.915));
#1329=CARTESIAN_POINT('Origin',(73.675,0.,2.915));
#1330=CARTESIAN_POINT('',(73.675,0.,2.915));
#1331=CARTESIAN_POINT('',(73.675,0.,2.915));
#1332=CARTESIAN_POINT('',(73.675,0.,2.915));
#1333=CARTESIAN_POINT('Origin',(73.175,0.,2.915));
#1334=CARTESIAN_POINT('',(73.175,0.,2.415));
#1335=CARTESIAN_POINT('Origin',(73.175,0.,2.915));
#1336=CARTESIAN_POINT('',(73.175,0.,2.415));
#1337=CARTESIAN_POINT('Origin',(60.175,0.,2.415));
#1338=CARTESIAN_POINT('',(60.175,0.,2.415));
#1339=CARTESIAN_POINT('',(60.175,0.,2.415));
#1340=CARTESIAN_POINT('',(60.175,0.,2.415));
#1341=CARTESIAN_POINT('Origin',(60.175,0.,2.915));
#1342=CARTESIAN_POINT('Origin',(60.175,0.,2.915));
#1343=CARTESIAN_POINT('Origin',(21.575,0.,15.915));
#1344=CARTESIAN_POINT('',(21.575,0.,15.915));
#1345=CARTESIAN_POINT('',(21.575,0.,2.915));
#1346=CARTESIAN_POINT('',(21.575,0.,2.915));
#1347=CARTESIAN_POINT('',(21.575,0.,2.915));
#1348=CARTESIAN_POINT('',(21.575,0.,15.915));
#1349=CARTESIAN_POINT('Origin',(22.075,0.,15.915));
#1350=CARTESIAN_POINT('',(22.075,0.,16.415));
#1351=CARTESIAN_POINT('Origin',(22.075,0.,15.915));
#1352=CARTESIAN_POINT('',(22.075,0.,16.415));
#1353=CARTESIAN_POINT('Origin',(35.075,0.,16.415));
#1354=CARTESIAN_POINT('',(35.075,0.,16.415));
#1355=CARTESIAN_POINT('',(22.075,0.,16.415));
#1356=CARTESIAN_POINT('',(35.075,0.,16.415));
#1357=CARTESIAN_POINT('Origin',(35.075,0.,15.915));
#1358=CARTESIAN_POINT('',(35.575,0.,15.915));
#1359=CARTESIAN_POINT('Origin',(35.075,0.,15.915));
#1360=CARTESIAN_POINT('',(35.575,0.,15.915));
#1361=CARTESIAN_POINT('Origin',(35.575,0.,2.915));
#1362=CARTESIAN_POINT('',(35.575,0.,2.915));
#1363=CARTESIAN_POINT('',(35.575,0.,2.915));
#1364=CARTESIAN_POINT('',(35.575,0.,2.915));
#1365=CARTESIAN_POINT('Origin',(35.075,0.,2.915));
#1366=CARTESIAN_POINT('',(35.075,0.,2.41499999999999));
#1367=CARTESIAN_POINT('Origin',(35.075,0.,2.915));
#1368=CARTESIAN_POINT('',(35.075,0.,2.41499999999999));
#1369=CARTESIAN_POINT('Origin',(22.075,0.,2.415));
#1370=CARTESIAN_POINT('',(22.075,0.,2.415));
#1371=CARTESIAN_POINT('',(22.075,0.,2.415));
#1372=CARTESIAN_POINT('',(22.075,0.,2.415));
#1373=CARTESIAN_POINT('Origin',(22.075,0.,2.915));
#1374=CARTESIAN_POINT('Origin',(22.075,0.,2.915));
#1375=CARTESIAN_POINT('Origin',(40.625,0.,15.915));
#1376=CARTESIAN_POINT('',(40.625,0.,15.915));
#1377=CARTESIAN_POINT('',(40.625,0.,2.915));
#1378=CARTESIAN_POINT('',(40.625,0.,2.915));
#1379=CARTESIAN_POINT('',(40.625,0.,2.915));
#1380=CARTESIAN_POINT('',(40.625,0.,15.915));
#1381=CARTESIAN_POINT('Origin',(41.125,0.,15.915));
#1382=CARTESIAN_POINT('',(41.125,0.,16.415));
#1383=CARTESIAN_POINT('Origin',(41.125,0.,15.915));
#1384=CARTESIAN_POINT('',(41.125,0.,16.415));
#1385=CARTESIAN_POINT('Origin',(54.125,0.,16.415));
#1386=CARTESIAN_POINT('',(54.125,0.,16.415));
#1387=CARTESIAN_POINT('',(41.125,0.,16.415));
#1388=CARTESIAN_POINT('',(54.125,0.,16.415));
#1389=CARTESIAN_POINT('Origin',(54.125,0.,15.915));
#1390=CARTESIAN_POINT('',(54.625,0.,15.915));
#1391=CARTESIAN_POINT('Origin',(54.125,0.,15.915));
#1392=CARTESIAN_POINT('',(54.625,0.,15.915));
#1393=CARTESIAN_POINT('Origin',(54.625,0.,2.915));
#1394=CARTESIAN_POINT('',(54.625,0.,2.915));
#1395=CARTESIAN_POINT('',(54.625,0.,2.915));
#1396=CARTESIAN_POINT('',(54.625,0.,2.915));
#1397=CARTESIAN_POINT('Origin',(54.125,0.,2.915));
#1398=CARTESIAN_POINT('',(54.125,0.,2.415));
#1399=CARTESIAN_POINT('Origin',(54.125,0.,2.915));
#1400=CARTESIAN_POINT('',(54.125,0.,2.415));
#1401=CARTESIAN_POINT('Origin',(41.125,0.,2.415));
#1402=CARTESIAN_POINT('',(41.125,0.,2.415));
#1403=CARTESIAN_POINT('',(41.125,0.,2.415));
#1404=CARTESIAN_POINT('',(41.125,0.,2.415));
#1405=CARTESIAN_POINT('Origin',(41.125,0.,2.915));
#1406=CARTESIAN_POINT('Origin',(41.125,0.,2.915));
#1407=CARTESIAN_POINT('Origin',(2.525,0.,15.915));
#1408=CARTESIAN_POINT('',(2.525,0.,15.915));
#1409=CARTESIAN_POINT('',(2.525,0.,2.915));
#1410=CARTESIAN_POINT('',(2.525,0.,2.915));
#1411=CARTESIAN_POINT('',(2.525,0.,2.915));
#1412=CARTESIAN_POINT('',(2.525,0.,15.915));
#1413=CARTESIAN_POINT('Origin',(3.025,0.,15.915));
#1414=CARTESIAN_POINT('',(3.025,0.,16.415));
#1415=CARTESIAN_POINT('Origin',(3.025,0.,15.915));
#1416=CARTESIAN_POINT('',(3.025,0.,16.415));
#1417=CARTESIAN_POINT('Origin',(16.025,0.,16.415));
#1418=CARTESIAN_POINT('',(16.025,0.,16.415));
#1419=CARTESIAN_POINT('',(3.025,0.,16.415));
#1420=CARTESIAN_POINT('',(16.025,0.,16.415));
#1421=CARTESIAN_POINT('Origin',(16.025,0.,15.915));
#1422=CARTESIAN_POINT('',(16.525,0.,15.915));
#1423=CARTESIAN_POINT('Origin',(16.025,0.,15.915));
#1424=CARTESIAN_POINT('',(16.525,0.,15.915));
#1425=CARTESIAN_POINT('Origin',(16.525,0.,2.915));
#1426=CARTESIAN_POINT('',(16.525,0.,2.915));
#1427=CARTESIAN_POINT('',(16.525,0.,2.915));
#1428=CARTESIAN_POINT('',(16.525,0.,2.915));
#1429=CARTESIAN_POINT('Origin',(16.025,0.,2.915));
#1430=CARTESIAN_POINT('',(16.025,0.,2.415));
#1431=CARTESIAN_POINT('Origin',(16.025,0.,2.915));
#1432=CARTESIAN_POINT('',(16.025,0.,2.415));
#1433=CARTESIAN_POINT('Origin',(3.025,0.,2.415));
#1434=CARTESIAN_POINT('',(3.025,0.,2.415));
#1435=CARTESIAN_POINT('',(3.025,0.,2.415));
#1436=CARTESIAN_POINT('',(3.025,0.,2.415));
#1437=CARTESIAN_POINT('Origin',(3.025,0.,2.915));
#1438=CARTESIAN_POINT('Origin',(3.025,0.,2.915));
#1439=CARTESIAN_POINT('Origin',(38.1,0.,9.415));
#1440=UNCERTAINTY_MEASURE_WITH_UNIT(LENGTH_MEASURE(0.01),#1444,
'DISTANCE_ACCURACY_VALUE',
'Maximum model space distance between geometric entities at asserted c
onnectivities');
#1441=UNCERTAINTY_MEASURE_WITH_UNIT(LENGTH_MEASURE(0.01),#1444,
'DISTANCE_ACCURACY_VALUE',
'Maximum model space distance between geometric entities at asserted c
onnectivities');
#1442=(
GEOMETRIC_REPRESENTATION_CONTEXT(3)
GLOBAL_UNCERTAINTY_ASSIGNED_CONTEXT((#1440))
GLOBAL_UNIT_ASSIGNED_CONTEXT((#1444,#1446,#1447))
REPRESENTATION_CONTEXT('','3D')
);
#1443=(
GEOMETRIC_REPRESENTATION_CONTEXT(3)
GLOBAL_UNCERTAINTY_ASSIGNED_CONTEXT((#1441))
GLOBAL_UNIT_ASSIGNED_CONTEXT((#1444,#1446,#1447))
REPRESENTATION_CONTEXT('','3D')
);
#1444=(
LENGTH_UNIT()
NAMED_UNIT(*)
SI_UNIT(.MILLI.,.METRE.)
);
#1445=(
LENGTH_UNIT()
NAMED_UNIT(*)
SI_UNIT($,.METRE.)
);
#1446=(
NAMED_UNIT(*)
PLANE_ANGLE_UNIT()
SI_UNIT($,.RADIAN.)
);
#1447=(
NAMED_UNIT(*)
SI_UNIT($,.STERADIAN.)
SOLID_ANGLE_UNIT()
);
#1448=SHAPE_DEFINITION_REPRESENTATION(#1449,#1450);
#1449=PRODUCT_DEFINITION_SHAPE('',$,#1452);
#1450=SHAPE_REPRESENTATION('',(#868),#1442);
#1451=PRODUCT_DEFINITION_CONTEXT('part definition',#1456,'design');
#1452=PRODUCT_DEFINITION('2026-06-06-21-35-58-979','Top Plate',#1453,#1451);
#1453=PRODUCT_DEFINITION_FORMATION('',$,#1458);
#1454=PRODUCT_RELATED_PRODUCT_CATEGORY('Top Plate','Top Plate',(#1458));
#1455=APPLICATION_PROTOCOL_DEFINITION('international standard',
'automotive_design',2009,#1456);
#1456=APPLICATION_CONTEXT(
'Core Data for Automotive Mechanical Design Process');
#1457=PRODUCT_CONTEXT('part definition',#1456,'mechanical');
#1458=PRODUCT('2026-06-06-21-35-58-979','Top Plate',$,(#1457));
#1459=PRESENTATION_STYLE_ASSIGNMENT((#1460));
#1460=SURFACE_STYLE_USAGE(.BOTH.,#1461);
#1461=SURFACE_SIDE_STYLE('',(#1462));
#1462=SURFACE_STYLE_FILL_AREA(#1463);
#1463=FILL_AREA_STYLE('Steel - Satin',(#1464));
#1464=FILL_AREA_STYLE_COLOUR('Steel - Satin',#1465);
#1465=COLOUR_RGB('Steel - Satin',0.627450980392157,0.627450980392157,0.627450980392157);
ENDSEC;
END-ISO-10303-21;
