ISO-10303-21;
HEADER;
/* Generated by software containing ST-Developer
 * from STEP Tools, Inc. (www.steptools.com) 
 */

FILE_DESCRIPTION(
/* description */ (''),
/* implementation_level */ '2;1');

FILE_NAME(
/* name */ 'Assembled.step',
/* time_stamp */ '2026-06-07T09:12:48+02:00',
/* author */ (''),
/* organization */ (''),
/* preprocessor_version */ 'ST-DEVELOPER v20.1',
/* originating_system */ 'Autodesk Translation Framework v15.8.0.0',
/* authorisation */ '');

FILE_SCHEMA (('AUTOMOTIVE_DESIGN { 1 0 10303 214 3 1 1 }'));
ENDSEC;

DATA;
#10=MECHANICAL_DESIGN_GEOMETRIC_PRESENTATION_REPRESENTATION('',(#13,#14),
#2014);
#11=SHAPE_REPRESENTATION_RELATIONSHIP('SRR','None',#2021,#12);
#12=ADVANCED_BREP_SHAPE_REPRESENTATION('',(#15,#16),#2013);
#13=STYLED_ITEM('',(#2030),#15);
#14=STYLED_ITEM('',(#2030),#16);
#15=MANIFOLD_SOLID_BREP('Body2',#1209);
#16=MANIFOLD_SOLID_BREP('Body5',#1210);
#17=CYLINDRICAL_SURFACE('',#1245,2.44999999999999);
#18=CYLINDRICAL_SURFACE('',#1246,2.45);
#19=CYLINDRICAL_SURFACE('',#1247,2.45);
#20=CYLINDRICAL_SURFACE('',#1248,2.45000000000001);
#21=CYLINDRICAL_SURFACE('',#1250,2.45);
#22=CYLINDRICAL_SURFACE('',#1253,2.45);
#23=CYLINDRICAL_SURFACE('',#1256,2.45);
#24=CYLINDRICAL_SURFACE('',#1259,2.45);
#25=CYLINDRICAL_SURFACE('',#1284,0.499999999999998);
#26=CYLINDRICAL_SURFACE('',#1287,0.499999999999998);
#27=CYLINDRICAL_SURFACE('',#1290,0.499999999999998);
#28=CYLINDRICAL_SURFACE('',#1293,0.5);
#29=CYLINDRICAL_SURFACE('',#1296,0.499999999999998);
#30=CYLINDRICAL_SURFACE('',#1299,0.499999999999998);
#31=CYLINDRICAL_SURFACE('',#1302,0.500000000000003);
#32=CYLINDRICAL_SURFACE('',#1305,0.5);
#33=CYLINDRICAL_SURFACE('',#1308,0.499999999999998);
#34=CYLINDRICAL_SURFACE('',#1311,0.499999999999998);
#35=CYLINDRICAL_SURFACE('',#1314,0.499999999999998);
#36=CYLINDRICAL_SURFACE('',#1317,0.5);
#37=CYLINDRICAL_SURFACE('',#1320,0.5);
#38=CYLINDRICAL_SURFACE('',#1323,0.499999999999998);
#39=CYLINDRICAL_SURFACE('',#1326,0.499999999999998);
#40=CYLINDRICAL_SURFACE('',#1329,0.5);
#41=FACE_BOUND('',#177,.T.);
#42=FACE_BOUND('',#178,.T.);
#43=FACE_BOUND('',#179,.T.);
#44=FACE_BOUND('',#180,.T.);
#45=FACE_BOUND('',#184,.T.);
#46=FACE_BOUND('',#185,.T.);
#47=FACE_BOUND('',#186,.T.);
#48=FACE_BOUND('',#187,.T.);
#49=FACE_BOUND('',#206,.T.);
#50=FACE_BOUND('',#207,.T.);
#51=FACE_BOUND('',#208,.T.);
#52=FACE_BOUND('',#209,.T.);
#53=FACE_BOUND('',#210,.T.);
#54=FACE_BOUND('',#211,.T.);
#55=FACE_BOUND('',#212,.T.);
#56=FACE_BOUND('',#213,.T.);
#57=FACE_BOUND('',#249,.T.);
#58=FACE_BOUND('',#250,.T.);
#59=FACE_BOUND('',#251,.T.);
#60=FACE_BOUND('',#252,.T.);
#61=FACE_BOUND('',#253,.T.);
#62=FACE_BOUND('',#254,.T.);
#63=FACE_BOUND('',#255,.T.);
#64=FACE_BOUND('',#256,.T.);
#65=CIRCLE('',#1228,2.44999999999999);
#66=CIRCLE('',#1229,2.45);
#67=CIRCLE('',#1230,2.45);
#68=CIRCLE('',#1231,2.45000000000001);
#69=CIRCLE('',#1235,2.45000000000001);
#70=CIRCLE('',#1236,2.45);
#71=CIRCLE('',#1237,2.45);
#72=CIRCLE('',#1238,2.44999999999999);
#73=CIRCLE('',#1251,2.45);
#74=CIRCLE('',#1252,2.45);
#75=CIRCLE('',#1254,2.45);
#76=CIRCLE('',#1255,2.45);
#77=CIRCLE('',#1257,2.45);
#78=CIRCLE('',#1258,2.45);
#79=CIRCLE('',#1260,2.45);
#80=CIRCLE('',#1261,2.45);
#81=CIRCLE('',#1265,0.5);
#82=CIRCLE('',#1266,0.499999999999998);
#83=CIRCLE('',#1267,0.499999999999998);
#84=CIRCLE('',#1268,0.5);
#85=CIRCLE('',#1269,0.5);
#86=CIRCLE('',#1270,0.499999999999998);
#87=CIRCLE('',#1271,0.499999999999998);
#88=CIRCLE('',#1272,0.499999999999998);
#89=CIRCLE('',#1273,0.5);
#90=CIRCLE('',#1274,0.500000000000003);
#91=CIRCLE('',#1275,0.499999999999998);
#92=CIRCLE('',#1276,0.499999999999998);
#93=CIRCLE('',#1277,0.5);
#94=CIRCLE('',#1278,0.499999999999998);
#95=CIRCLE('',#1279,0.499999999999998);
#96=CIRCLE('',#1280,0.499999999999998);
#97=CIRCLE('',#1285,0.499999999999998);
#98=CIRCLE('',#1288,0.499999999999998);
#99=CIRCLE('',#1291,0.499999999999998);
#100=CIRCLE('',#1294,0.5);
#101=CIRCLE('',#1297,0.499999999999998);
#102=CIRCLE('',#1300,0.499999999999998);
#103=CIRCLE('',#1303,0.500000000000003);
#104=CIRCLE('',#1306,0.5);
#105=CIRCLE('',#1309,0.499999999999998);
#106=CIRCLE('',#1312,0.499999999999998);
#107=CIRCLE('',#1315,0.499999999999998);
#108=CIRCLE('',#1318,0.5);
#109=CIRCLE('',#1321,0.5);
#110=CIRCLE('',#1324,0.499999999999998);
#111=CIRCLE('',#1327,0.499999999999998);
#112=CIRCLE('',#1330,0.5);
#113=FACE_OUTER_BOUND('',#173,.T.);
#114=FACE_OUTER_BOUND('',#174,.T.);
#115=FACE_OUTER_BOUND('',#175,.T.);
#116=FACE_OUTER_BOUND('',#176,.T.);
#117=FACE_OUTER_BOUND('',#181,.T.);
#118=FACE_OUTER_BOUND('',#182,.T.);
#119=FACE_OUTER_BOUND('',#183,.T.);
#120=FACE_OUTER_BOUND('',#188,.T.);
#121=FACE_OUTER_BOUND('',#189,.T.);
#122=FACE_OUTER_BOUND('',#190,.T.);
#123=FACE_OUTER_BOUND('',#191,.T.);
#124=FACE_OUTER_BOUND('',#192,.T.);
#125=FACE_OUTER_BOUND('',#193,.T.);
#126=FACE_OUTER_BOUND('',#194,.T.);
#127=FACE_OUTER_BOUND('',#195,.T.);
#128=FACE_OUTER_BOUND('',#196,.T.);
#129=FACE_OUTER_BOUND('',#197,.T.);
#130=FACE_OUTER_BOUND('',#198,.T.);
#131=FACE_OUTER_BOUND('',#199,.T.);
#132=FACE_OUTER_BOUND('',#200,.T.);
#133=FACE_OUTER_BOUND('',#201,.T.);
#134=FACE_OUTER_BOUND('',#202,.T.);
#135=FACE_OUTER_BOUND('',#203,.T.);
#136=FACE_OUTER_BOUND('',#204,.T.);
#137=FACE_OUTER_BOUND('',#205,.T.);
#138=FACE_OUTER_BOUND('',#214,.T.);
#139=FACE_OUTER_BOUND('',#215,.T.);
#140=FACE_OUTER_BOUND('',#216,.T.);
#141=FACE_OUTER_BOUND('',#217,.T.);
#142=FACE_OUTER_BOUND('',#218,.T.);
#143=FACE_OUTER_BOUND('',#219,.T.);
#144=FACE_OUTER_BOUND('',#220,.T.);
#145=FACE_OUTER_BOUND('',#221,.T.);
#146=FACE_OUTER_BOUND('',#222,.T.);
#147=FACE_OUTER_BOUND('',#223,.T.);
#148=FACE_OUTER_BOUND('',#224,.T.);
#149=FACE_OUTER_BOUND('',#225,.T.);
#150=FACE_OUTER_BOUND('',#226,.T.);
#151=FACE_OUTER_BOUND('',#227,.T.);
#152=FACE_OUTER_BOUND('',#228,.T.);
#153=FACE_OUTER_BOUND('',#229,.T.);
#154=FACE_OUTER_BOUND('',#230,.T.);
#155=FACE_OUTER_BOUND('',#231,.T.);
#156=FACE_OUTER_BOUND('',#232,.T.);
#157=FACE_OUTER_BOUND('',#233,.T.);
#158=FACE_OUTER_BOUND('',#234,.T.);
#159=FACE_OUTER_BOUND('',#235,.T.);
#160=FACE_OUTER_BOUND('',#236,.T.);
#161=FACE_OUTER_BOUND('',#237,.T.);
#162=FACE_OUTER_BOUND('',#238,.T.);
#163=FACE_OUTER_BOUND('',#239,.T.);
#164=FACE_OUTER_BOUND('',#240,.T.);
#165=FACE_OUTER_BOUND('',#241,.T.);
#166=FACE_OUTER_BOUND('',#242,.T.);
#167=FACE_OUTER_BOUND('',#243,.T.);
#168=FACE_OUTER_BOUND('',#244,.T.);
#169=FACE_OUTER_BOUND('',#245,.T.);
#170=FACE_OUTER_BOUND('',#246,.T.);
#171=FACE_OUTER_BOUND('',#247,.T.);
#172=FACE_OUTER_BOUND('',#248,.T.);
#173=EDGE_LOOP('',(#777,#778,#779,#780));
#174=EDGE_LOOP('',(#781,#782,#783,#784));
#175=EDGE_LOOP('',(#785,#786,#787,#788));
#176=EDGE_LOOP('',(#789,#790,#791,#792,#793,#794,#795,#796,#797,#798,#799,
#800));
#177=EDGE_LOOP('',(#801));
#178=EDGE_LOOP('',(#802));
#179=EDGE_LOOP('',(#803));
#180=EDGE_LOOP('',(#804));
#181=EDGE_LOOP('',(#805,#806,#807,#808,#809,#810,#811,#812));
#182=EDGE_LOOP('',(#813,#814,#815,#816));
#183=EDGE_LOOP('',(#817,#818,#819,#820));
#184=EDGE_LOOP('',(#821));
#185=EDGE_LOOP('',(#822));
#186=EDGE_LOOP('',(#823));
#187=EDGE_LOOP('',(#824));
#188=EDGE_LOOP('',(#825,#826,#827,#828));
#189=EDGE_LOOP('',(#829,#830,#831,#832,#833,#834,#835,#836));
#190=EDGE_LOOP('',(#837,#838,#839,#840));
#191=EDGE_LOOP('',(#841,#842,#843,#844));
#192=EDGE_LOOP('',(#845,#846,#847,#848));
#193=EDGE_LOOP('',(#849,#850,#851,#852));
#194=EDGE_LOOP('',(#853,#854,#855,#856));
#195=EDGE_LOOP('',(#857,#858,#859,#860));
#196=EDGE_LOOP('',(#861,#862,#863,#864));
#197=EDGE_LOOP('',(#865,#866,#867,#868));
#198=EDGE_LOOP('',(#869,#870,#871,#872));
#199=EDGE_LOOP('',(#873,#874,#875,#876));
#200=EDGE_LOOP('',(#877,#878,#879,#880));
#201=EDGE_LOOP('',(#881,#882,#883,#884));
#202=EDGE_LOOP('',(#885,#886,#887,#888));
#203=EDGE_LOOP('',(#889,#890,#891,#892));
#204=EDGE_LOOP('',(#893,#894,#895,#896));
#205=EDGE_LOOP('',(#897,#898,#899,#900));
#206=EDGE_LOOP('',(#901,#902,#903,#904,#905,#906,#907,#908));
#207=EDGE_LOOP('',(#909,#910,#911,#912,#913,#914,#915,#916));
#208=EDGE_LOOP('',(#917,#918,#919,#920,#921,#922,#923,#924));
#209=EDGE_LOOP('',(#925,#926,#927,#928,#929,#930,#931,#932));
#210=EDGE_LOOP('',(#933));
#211=EDGE_LOOP('',(#934));
#212=EDGE_LOOP('',(#935));
#213=EDGE_LOOP('',(#936));
#214=EDGE_LOOP('',(#937,#938,#939,#940));
#215=EDGE_LOOP('',(#941,#942,#943,#944));
#216=EDGE_LOOP('',(#945,#946,#947,#948));
#217=EDGE_LOOP('',(#949,#950,#951,#952));
#218=EDGE_LOOP('',(#953,#954,#955,#956));
#219=EDGE_LOOP('',(#957,#958,#959,#960));
#220=EDGE_LOOP('',(#961,#962,#963,#964));
#221=EDGE_LOOP('',(#965,#966,#967,#968));
#222=EDGE_LOOP('',(#969,#970,#971,#972));
#223=EDGE_LOOP('',(#973,#974,#975,#976));
#224=EDGE_LOOP('',(#977,#978,#979,#980));
#225=EDGE_LOOP('',(#981,#982,#983,#984));
#226=EDGE_LOOP('',(#985,#986,#987,#988));
#227=EDGE_LOOP('',(#989,#990,#991,#992));
#228=EDGE_LOOP('',(#993,#994,#995,#996));
#229=EDGE_LOOP('',(#997,#998,#999,#1000));
#230=EDGE_LOOP('',(#1001,#1002,#1003,#1004));
#231=EDGE_LOOP('',(#1005,#1006,#1007,#1008));
#232=EDGE_LOOP('',(#1009,#1010,#1011,#1012));
#233=EDGE_LOOP('',(#1013,#1014,#1015,#1016));
#234=EDGE_LOOP('',(#1017,#1018,#1019,#1020));
#235=EDGE_LOOP('',(#1021,#1022,#1023,#1024));
#236=EDGE_LOOP('',(#1025,#1026,#1027,#1028));
#237=EDGE_LOOP('',(#1029,#1030,#1031,#1032));
#238=EDGE_LOOP('',(#1033,#1034,#1035,#1036));
#239=EDGE_LOOP('',(#1037,#1038,#1039,#1040));
#240=EDGE_LOOP('',(#1041,#1042,#1043,#1044));
#241=EDGE_LOOP('',(#1045,#1046,#1047,#1048));
#242=EDGE_LOOP('',(#1049,#1050,#1051,#1052));
#243=EDGE_LOOP('',(#1053,#1054,#1055,#1056));
#244=EDGE_LOOP('',(#1057,#1058,#1059,#1060));
#245=EDGE_LOOP('',(#1061,#1062,#1063,#1064));
#246=EDGE_LOOP('',(#1065,#1066,#1067,#1068));
#247=EDGE_LOOP('',(#1069,#1070,#1071,#1072));
#248=EDGE_LOOP('',(#1073,#1074,#1075,#1076));
#249=EDGE_LOOP('',(#1077,#1078,#1079,#1080,#1081,#1082,#1083,#1084));
#250=EDGE_LOOP('',(#1085,#1086,#1087,#1088,#1089,#1090,#1091,#1092));
#251=EDGE_LOOP('',(#1093,#1094,#1095,#1096,#1097,#1098,#1099,#1100));
#252=EDGE_LOOP('',(#1101,#1102,#1103,#1104,#1105,#1106,#1107,#1108));
#253=EDGE_LOOP('',(#1109));
#254=EDGE_LOOP('',(#1110));
#255=EDGE_LOOP('',(#1111));
#256=EDGE_LOOP('',(#1112));
#257=LINE('',#1674,#377);
#258=LINE('',#1676,#378);
#259=LINE('',#1678,#379);
#260=LINE('',#1679,#380);
#261=LINE('',#1682,#381);
#262=LINE('',#1684,#382);
#263=LINE('',#1685,#383);
#264=LINE('',#1688,#384);
#265=LINE('',#1690,#385);
#266=LINE('',#1691,#386);
#267=LINE('',#1694,#387);
#268=LINE('',#1696,#388);
#269=LINE('',#1698,#389);
#270=LINE('',#1700,#390);
#271=LINE('',#1701,#391);
#272=LINE('',#1703,#392);
#273=LINE('',#1705,#393);
#274=LINE('',#1707,#394);
#275=LINE('',#1709,#395);
#276=LINE('',#1710,#396);
#277=LINE('',#1721,#397);
#278=LINE('',#1723,#398);
#279=LINE('',#1724,#399);
#280=LINE('',#1727,#400);
#281=LINE('',#1729,#401);
#282=LINE('',#1730,#402);
#283=LINE('',#1733,#403);
#284=LINE('',#1735,#404);
#285=LINE('',#1736,#405);
#286=LINE('',#1746,#406);
#287=LINE('',#1748,#407);
#288=LINE('',#1752,#408);
#289=LINE('',#1753,#409);
#290=LINE('',#1756,#410);
#291=LINE('',#1757,#411);
#292=LINE('',#1759,#412);
#293=LINE('',#1761,#413);
#294=LINE('',#1763,#414);
#295=LINE('',#1765,#415);
#296=LINE('',#1767,#416);
#297=LINE('',#1773,#417);
#298=LINE('',#1779,#418);
#299=LINE('',#1785,#419);
#300=LINE('',#1791,#420);
#301=LINE('',#1796,#421);
#302=LINE('',#1798,#422);
#303=LINE('',#1800,#423);
#304=LINE('',#1801,#424);
#305=LINE('',#1805,#425);
#306=LINE('',#1806,#426);
#307=LINE('',#1807,#427);
#308=LINE('',#1810,#428);
#309=LINE('',#1811,#429);
#310=LINE('',#1816,#430);
#311=LINE('',#1820,#431);
#312=LINE('',#1824,#432);
#313=LINE('',#1827,#433);
#314=LINE('',#1832,#434);
#315=LINE('',#1836,#435);
#316=LINE('',#1840,#436);
#317=LINE('',#1843,#437);
#318=LINE('',#1848,#438);
#319=LINE('',#1852,#439);
#320=LINE('',#1856,#440);
#321=LINE('',#1859,#441);
#322=LINE('',#1864,#442);
#323=LINE('',#1868,#443);
#324=LINE('',#1872,#444);
#325=LINE('',#1875,#445);
#326=LINE('',#1878,#446);
#327=LINE('',#1879,#447);
#328=LINE('',#1881,#448);
#329=LINE('',#1885,#449);
#330=LINE('',#1886,#450);
#331=LINE('',#1887,#451);
#332=LINE('',#1891,#452);
#333=LINE('',#1894,#453);
#334=LINE('',#1895,#454);
#335=LINE('',#1899,#455);
#336=LINE('',#1902,#456);
#337=LINE('',#1903,#457);
#338=LINE('',#1907,#458);
#339=LINE('',#1910,#459);
#340=LINE('',#1911,#460);
#341=LINE('',#1917,#461);
#342=LINE('',#1918,#462);
#343=LINE('',#1919,#463);
#344=LINE('',#1923,#464);
#345=LINE('',#1926,#465);
#346=LINE('',#1927,#466);
#347=LINE('',#1931,#467);
#348=LINE('',#1934,#468);
#349=LINE('',#1935,#469);
#350=LINE('',#1939,#470);
#351=LINE('',#1942,#471);
#352=LINE('',#1943,#472);
#353=LINE('',#1949,#473);
#354=LINE('',#1950,#474);
#355=LINE('',#1951,#475);
#356=LINE('',#1955,#476);
#357=LINE('',#1958,#477);
#358=LINE('',#1959,#478);
#359=LINE('',#1963,#479);
#360=LINE('',#1966,#480);
#361=LINE('',#1967,#481);
#362=LINE('',#1971,#482);
#363=LINE('',#1974,#483);
#364=LINE('',#1975,#484);
#365=LINE('',#1981,#485);
#366=LINE('',#1982,#486);
#367=LINE('',#1983,#487);
#368=LINE('',#1987,#488);
#369=LINE('',#1990,#489);
#370=LINE('',#1991,#490);
#371=LINE('',#1995,#491);
#372=LINE('',#1998,#492);
#373=LINE('',#1999,#493);
#374=LINE('',#2003,#494);
#375=LINE('',#2006,#495);
#376=LINE('',#2007,#496);
#377=VECTOR('',#1336,10.);
#378=VECTOR('',#1337,10.);
#379=VECTOR('',#1338,10.);
#380=VECTOR('',#1339,10.);
#381=VECTOR('',#1342,10.);
#382=VECTOR('',#1343,10.);
#383=VECTOR('',#1344,10.);
#384=VECTOR('',#1347,10.);
#385=VECTOR('',#1348,10.);
#386=VECTOR('',#1349,10.);
#387=VECTOR('',#1352,10.);
#388=VECTOR('',#1353,10.);
#389=VECTOR('',#1354,10.);
#390=VECTOR('',#1355,10.);
#391=VECTOR('',#1356,10.);
#392=VECTOR('',#1357,10.);
#393=VECTOR('',#1358,10.);
#394=VECTOR('',#1359,10.);
#395=VECTOR('',#1360,10.);
#396=VECTOR('',#1361,10.);
#397=VECTOR('',#1372,10.);
#398=VECTOR('',#1373,10.);
#399=VECTOR('',#1374,10.);
#400=VECTOR('',#1377,10.);
#401=VECTOR('',#1378,10.);
#402=VECTOR('',#1379,10.);
#403=VECTOR('',#1382,10.);
#404=VECTOR('',#1383,10.);
#405=VECTOR('',#1384,10.);
#406=VECTOR('',#1395,10.);
#407=VECTOR('',#1398,10.);
#408=VECTOR('',#1403,10.);
#409=VECTOR('',#1404,10.);
#410=VECTOR('',#1407,10.);
#411=VECTOR('',#1408,10.);
#412=VECTOR('',#1411,10.);
#413=VECTOR('',#1414,2.34999999999999);
#414=VECTOR('',#1417,2.35);
#415=VECTOR('',#1420,2.35);
#416=VECTOR('',#1423,2.35000000000001);
#417=VECTOR('',#1430,2.45);
#418=VECTOR('',#1437,2.45);
#419=VECTOR('',#1444,2.45);
#420=VECTOR('',#1451,2.45);
#421=VECTOR('',#1456,10.);
#422=VECTOR('',#1457,10.);
#423=VECTOR('',#1458,10.);
#424=VECTOR('',#1459,10.);
#425=VECTOR('',#1462,10.);
#426=VECTOR('',#1463,10.);
#427=VECTOR('',#1464,10.);
#428=VECTOR('',#1467,10.);
#429=VECTOR('',#1468,10.);
#430=VECTOR('',#1471,10.);
#431=VECTOR('',#1474,10.);
#432=VECTOR('',#1477,10.);
#433=VECTOR('',#1480,10.);
#434=VECTOR('',#1483,10.);
#435=VECTOR('',#1486,10.);
#436=VECTOR('',#1489,10.);
#437=VECTOR('',#1492,10.);
#438=VECTOR('',#1495,10.);
#439=VECTOR('',#1498,10.);
#440=VECTOR('',#1501,10.);
#441=VECTOR('',#1504,10.);
#442=VECTOR('',#1507,10.);
#443=VECTOR('',#1510,10.);
#444=VECTOR('',#1513,10.);
#445=VECTOR('',#1516,10.);
#446=VECTOR('',#1519,10.);
#447=VECTOR('',#1520,10.);
#448=VECTOR('',#1523,10.);
#449=VECTOR('',#1526,10.);
#450=VECTOR('',#1527,10.);
#451=VECTOR('',#1528,10.);
#452=VECTOR('',#1533,10.);
#453=VECTOR('',#1536,10.);
#454=VECTOR('',#1537,10.);
#455=VECTOR('',#1542,10.);
#456=VECTOR('',#1545,10.);
#457=VECTOR('',#1546,10.);
#458=VECTOR('',#1551,10.);
#459=VECTOR('',#1554,10.);
#460=VECTOR('',#1555,10.);
#461=VECTOR('',#1562,10.);
#462=VECTOR('',#1563,10.);
#463=VECTOR('',#1564,10.);
#464=VECTOR('',#1569,10.);
#465=VECTOR('',#1572,10.);
#466=VECTOR('',#1573,10.);
#467=VECTOR('',#1578,10.);
#468=VECTOR('',#1581,10.);
#469=VECTOR('',#1582,10.);
#470=VECTOR('',#1587,10.);
#471=VECTOR('',#1590,10.);
#472=VECTOR('',#1591,10.);
#473=VECTOR('',#1598,10.);
#474=VECTOR('',#1599,10.);
#475=VECTOR('',#1600,10.);
#476=VECTOR('',#1605,10.);
#477=VECTOR('',#1608,10.);
#478=VECTOR('',#1609,10.);
#479=VECTOR('',#1614,10.);
#480=VECTOR('',#1617,10.);
#481=VECTOR('',#1618,10.);
#482=VECTOR('',#1623,10.);
#483=VECTOR('',#1626,10.);
#484=VECTOR('',#1627,10.);
#485=VECTOR('',#1634,10.);
#486=VECTOR('',#1635,10.);
#487=VECTOR('',#1636,10.);
#488=VECTOR('',#1641,10.);
#489=VECTOR('',#1644,10.);
#490=VECTOR('',#1645,10.);
#491=VECTOR('',#1650,10.);
#492=VECTOR('',#1653,10.);
#493=VECTOR('',#1654,10.);
#494=VECTOR('',#1659,10.);
#495=VECTOR('',#1662,10.);
#496=VECTOR('',#1663,10.);
#497=VERTEX_POINT('',#1672);
#498=VERTEX_POINT('',#1673);
#499=VERTEX_POINT('',#1675);
#500=VERTEX_POINT('',#1677);
#501=VERTEX_POINT('',#1681);
#502=VERTEX_POINT('',#1683);
#503=VERTEX_POINT('',#1687);
#504=VERTEX_POINT('',#1689);
#505=VERTEX_POINT('',#1693);
#506=VERTEX_POINT('',#1695);
#507=VERTEX_POINT('',#1697);
#508=VERTEX_POINT('',#1699);
#509=VERTEX_POINT('',#1702);
#510=VERTEX_POINT('',#1704);
#511=VERTEX_POINT('',#1706);
#512=VERTEX_POINT('',#1708);
#513=VERTEX_POINT('',#1711);
#514=VERTEX_POINT('',#1713);
#515=VERTEX_POINT('',#1715);
#516=VERTEX_POINT('',#1717);
#517=VERTEX_POINT('',#1720);
#518=VERTEX_POINT('',#1722);
#519=VERTEX_POINT('',#1726);
#520=VERTEX_POINT('',#1728);
#521=VERTEX_POINT('',#1732);
#522=VERTEX_POINT('',#1734);
#523=VERTEX_POINT('',#1737);
#524=VERTEX_POINT('',#1739);
#525=VERTEX_POINT('',#1741);
#526=VERTEX_POINT('',#1743);
#527=VERTEX_POINT('',#1751);
#528=VERTEX_POINT('',#1755);
#529=VERTEX_POINT('',#1770);
#530=VERTEX_POINT('',#1772);
#531=VERTEX_POINT('',#1776);
#532=VERTEX_POINT('',#1778);
#533=VERTEX_POINT('',#1782);
#534=VERTEX_POINT('',#1784);
#535=VERTEX_POINT('',#1788);
#536=VERTEX_POINT('',#1790);
#537=VERTEX_POINT('',#1794);
#538=VERTEX_POINT('',#1795);
#539=VERTEX_POINT('',#1797);
#540=VERTEX_POINT('',#1799);
#541=VERTEX_POINT('',#1803);
#542=VERTEX_POINT('',#1804);
#543=VERTEX_POINT('',#1809);
#544=VERTEX_POINT('',#1812);
#545=VERTEX_POINT('',#1813);
#546=VERTEX_POINT('',#1815);
#547=VERTEX_POINT('',#1817);
#548=VERTEX_POINT('',#1819);
#549=VERTEX_POINT('',#1821);
#550=VERTEX_POINT('',#1823);
#551=VERTEX_POINT('',#1825);
#552=VERTEX_POINT('',#1828);
#553=VERTEX_POINT('',#1829);
#554=VERTEX_POINT('',#1831);
#555=VERTEX_POINT('',#1833);
#556=VERTEX_POINT('',#1835);
#557=VERTEX_POINT('',#1837);
#558=VERTEX_POINT('',#1839);
#559=VERTEX_POINT('',#1841);
#560=VERTEX_POINT('',#1844);
#561=VERTEX_POINT('',#1845);
#562=VERTEX_POINT('',#1847);
#563=VERTEX_POINT('',#1849);
#564=VERTEX_POINT('',#1851);
#565=VERTEX_POINT('',#1853);
#566=VERTEX_POINT('',#1855);
#567=VERTEX_POINT('',#1857);
#568=VERTEX_POINT('',#1860);
#569=VERTEX_POINT('',#1861);
#570=VERTEX_POINT('',#1863);
#571=VERTEX_POINT('',#1865);
#572=VERTEX_POINT('',#1867);
#573=VERTEX_POINT('',#1869);
#574=VERTEX_POINT('',#1871);
#575=VERTEX_POINT('',#1873);
#576=VERTEX_POINT('',#1877);
#577=VERTEX_POINT('',#1883);
#578=VERTEX_POINT('',#1884);
#579=VERTEX_POINT('',#1889);
#580=VERTEX_POINT('',#1893);
#581=VERTEX_POINT('',#1897);
#582=VERTEX_POINT('',#1901);
#583=VERTEX_POINT('',#1905);
#584=VERTEX_POINT('',#1909);
#585=VERTEX_POINT('',#1915);
#586=VERTEX_POINT('',#1916);
#587=VERTEX_POINT('',#1921);
#588=VERTEX_POINT('',#1925);
#589=VERTEX_POINT('',#1929);
#590=VERTEX_POINT('',#1933);
#591=VERTEX_POINT('',#1937);
#592=VERTEX_POINT('',#1941);
#593=VERTEX_POINT('',#1947);
#594=VERTEX_POINT('',#1948);
#595=VERTEX_POINT('',#1953);
#596=VERTEX_POINT('',#1957);
#597=VERTEX_POINT('',#1961);
#598=VERTEX_POINT('',#1965);
#599=VERTEX_POINT('',#1969);
#600=VERTEX_POINT('',#1973);
#601=VERTEX_POINT('',#1979);
#602=VERTEX_POINT('',#1980);
#603=VERTEX_POINT('',#1985);
#604=VERTEX_POINT('',#1989);
#605=VERTEX_POINT('',#1993);
#606=VERTEX_POINT('',#1997);
#607=VERTEX_POINT('',#2001);
#608=VERTEX_POINT('',#2005);
#609=EDGE_CURVE('',#497,#498,#257,.T.);
#610=EDGE_CURVE('',#499,#497,#258,.T.);
#611=EDGE_CURVE('',#500,#499,#259,.T.);
#612=EDGE_CURVE('',#500,#498,#260,.T.);
#613=EDGE_CURVE('',#498,#501,#261,.T.);
#614=EDGE_CURVE('',#502,#500,#262,.T.);
#615=EDGE_CURVE('',#502,#501,#263,.T.);
#616=EDGE_CURVE('',#501,#503,#264,.T.);
#617=EDGE_CURVE('',#504,#502,#265,.T.);
#618=EDGE_CURVE('',#503,#504,#266,.T.);
#619=EDGE_CURVE('',#497,#505,#267,.T.);
#620=EDGE_CURVE('',#505,#506,#268,.T.);
#621=EDGE_CURVE('',#506,#507,#269,.T.);
#622=EDGE_CURVE('',#507,#508,#270,.T.);
#623=EDGE_CURVE('',#508,#503,#271,.T.);
#624=EDGE_CURVE('',#509,#504,#272,.T.);
#625=EDGE_CURVE('',#509,#510,#273,.T.);
#626=EDGE_CURVE('',#510,#511,#274,.T.);
#627=EDGE_CURVE('',#511,#512,#275,.T.);
#628=EDGE_CURVE('',#499,#512,#276,.T.);
#629=EDGE_CURVE('',#513,#513,#65,.F.);
#630=EDGE_CURVE('',#514,#514,#66,.F.);
#631=EDGE_CURVE('',#515,#515,#67,.F.);
#632=EDGE_CURVE('',#516,#516,#68,.F.);
#633=EDGE_CURVE('',#517,#508,#277,.T.);
#634=EDGE_CURVE('',#518,#517,#278,.T.);
#635=EDGE_CURVE('',#518,#505,#279,.T.);
#636=EDGE_CURVE('',#519,#510,#280,.T.);
#637=EDGE_CURVE('',#520,#519,#281,.T.);
#638=EDGE_CURVE('',#511,#520,#282,.T.);
#639=EDGE_CURVE('',#519,#521,#283,.T.);
#640=EDGE_CURVE('',#522,#521,#284,.T.);
#641=EDGE_CURVE('',#520,#522,#285,.T.);
#642=EDGE_CURVE('',#523,#523,#69,.F.);
#643=EDGE_CURVE('',#524,#524,#70,.F.);
#644=EDGE_CURVE('',#525,#525,#71,.F.);
#645=EDGE_CURVE('',#526,#526,#72,.F.);
#646=EDGE_CURVE('',#521,#509,#286,.T.);
#647=EDGE_CURVE('',#512,#522,#287,.T.);
#648=EDGE_CURVE('',#517,#527,#288,.T.);
#649=EDGE_CURVE('',#527,#507,#289,.T.);
#650=EDGE_CURVE('',#527,#528,#290,.T.);
#651=EDGE_CURVE('',#528,#506,#291,.T.);
#652=EDGE_CURVE('',#528,#518,#292,.T.);
#653=EDGE_CURVE('',#513,#526,#293,.T.);
#654=EDGE_CURVE('',#514,#525,#294,.T.);
#655=EDGE_CURVE('',#515,#524,#295,.T.);
#656=EDGE_CURVE('',#516,#523,#296,.T.);
#657=EDGE_CURVE('',#529,#529,#73,.T.);
#658=EDGE_CURVE('',#529,#530,#297,.T.);
#659=EDGE_CURVE('',#530,#530,#74,.T.);
#660=EDGE_CURVE('',#531,#531,#75,.T.);
#661=EDGE_CURVE('',#531,#532,#298,.T.);
#662=EDGE_CURVE('',#532,#532,#76,.T.);
#663=EDGE_CURVE('',#533,#533,#77,.T.);
#664=EDGE_CURVE('',#533,#534,#299,.T.);
#665=EDGE_CURVE('',#534,#534,#78,.T.);
#666=EDGE_CURVE('',#535,#535,#79,.T.);
#667=EDGE_CURVE('',#535,#536,#300,.T.);
#668=EDGE_CURVE('',#536,#536,#80,.T.);
#669=EDGE_CURVE('',#537,#538,#301,.T.);
#670=EDGE_CURVE('',#538,#539,#302,.T.);
#671=EDGE_CURVE('',#539,#540,#303,.T.);
#672=EDGE_CURVE('',#540,#537,#304,.T.);
#673=EDGE_CURVE('',#541,#542,#305,.T.);
#674=EDGE_CURVE('',#538,#541,#306,.T.);
#675=EDGE_CURVE('',#542,#537,#307,.T.);
#676=EDGE_CURVE('',#541,#543,#308,.T.);
#677=EDGE_CURVE('',#543,#539,#309,.T.);
#678=EDGE_CURVE('',#544,#545,#81,.T.);
#679=EDGE_CURVE('',#545,#546,#310,.T.);
#680=EDGE_CURVE('',#546,#547,#82,.T.);
#681=EDGE_CURVE('',#547,#548,#311,.T.);
#682=EDGE_CURVE('',#548,#549,#83,.T.);
#683=EDGE_CURVE('',#549,#550,#312,.T.);
#684=EDGE_CURVE('',#550,#551,#84,.T.);
#685=EDGE_CURVE('',#551,#544,#313,.T.);
#686=EDGE_CURVE('',#552,#553,#85,.T.);
#687=EDGE_CURVE('',#553,#554,#314,.T.);
#688=EDGE_CURVE('',#554,#555,#86,.T.);
#689=EDGE_CURVE('',#555,#556,#315,.T.);
#690=EDGE_CURVE('',#556,#557,#87,.T.);
#691=EDGE_CURVE('',#557,#558,#316,.T.);
#692=EDGE_CURVE('',#558,#559,#88,.T.);
#693=EDGE_CURVE('',#559,#552,#317,.T.);
#694=EDGE_CURVE('',#560,#561,#89,.T.);
#695=EDGE_CURVE('',#561,#562,#318,.T.);
#696=EDGE_CURVE('',#562,#563,#90,.T.);
#697=EDGE_CURVE('',#563,#564,#319,.T.);
#698=EDGE_CURVE('',#564,#565,#91,.T.);
#699=EDGE_CURVE('',#565,#566,#320,.T.);
#700=EDGE_CURVE('',#566,#567,#92,.T.);
#701=EDGE_CURVE('',#567,#560,#321,.T.);
#702=EDGE_CURVE('',#568,#569,#93,.T.);
#703=EDGE_CURVE('',#569,#570,#322,.T.);
#704=EDGE_CURVE('',#570,#571,#94,.T.);
#705=EDGE_CURVE('',#571,#572,#323,.T.);
#706=EDGE_CURVE('',#572,#573,#95,.T.);
#707=EDGE_CURVE('',#573,#574,#324,.T.);
#708=EDGE_CURVE('',#574,#575,#96,.T.);
#709=EDGE_CURVE('',#575,#568,#325,.T.);
#710=EDGE_CURVE('',#576,#542,#326,.T.);
#711=EDGE_CURVE('',#543,#576,#327,.T.);
#712=EDGE_CURVE('',#576,#540,#328,.T.);
#713=EDGE_CURVE('',#577,#578,#329,.T.);
#714=EDGE_CURVE('',#578,#568,#330,.T.);
#715=EDGE_CURVE('',#577,#575,#331,.T.);
#716=EDGE_CURVE('',#579,#577,#97,.T.);
#717=EDGE_CURVE('',#579,#574,#332,.T.);
#718=EDGE_CURVE('',#580,#579,#333,.T.);
#719=EDGE_CURVE('',#580,#573,#334,.T.);
#720=EDGE_CURVE('',#581,#580,#98,.T.);
#721=EDGE_CURVE('',#581,#572,#335,.T.);
#722=EDGE_CURVE('',#582,#581,#336,.T.);
#723=EDGE_CURVE('',#582,#571,#337,.T.);
#724=EDGE_CURVE('',#583,#582,#99,.T.);
#725=EDGE_CURVE('',#583,#570,#338,.T.);
#726=EDGE_CURVE('',#584,#583,#339,.T.);
#727=EDGE_CURVE('',#584,#569,#340,.T.);
#728=EDGE_CURVE('',#578,#584,#100,.T.);
#729=EDGE_CURVE('',#585,#586,#341,.T.);
#730=EDGE_CURVE('',#586,#560,#342,.T.);
#731=EDGE_CURVE('',#585,#567,#343,.T.);
#732=EDGE_CURVE('',#587,#585,#101,.T.);
#733=EDGE_CURVE('',#587,#566,#344,.T.);
#734=EDGE_CURVE('',#588,#587,#345,.T.);
#735=EDGE_CURVE('',#588,#565,#346,.T.);
#736=EDGE_CURVE('',#589,#588,#102,.T.);
#737=EDGE_CURVE('',#589,#564,#347,.T.);
#738=EDGE_CURVE('',#590,#589,#348,.T.);
#739=EDGE_CURVE('',#590,#563,#349,.T.);
#740=EDGE_CURVE('',#591,#590,#103,.T.);
#741=EDGE_CURVE('',#591,#562,#350,.T.);
#742=EDGE_CURVE('',#592,#591,#351,.T.);
#743=EDGE_CURVE('',#592,#561,#352,.T.);
#744=EDGE_CURVE('',#586,#592,#104,.T.);
#745=EDGE_CURVE('',#593,#594,#353,.T.);
#746=EDGE_CURVE('',#594,#552,#354,.T.);
#747=EDGE_CURVE('',#593,#559,#355,.T.);
#748=EDGE_CURVE('',#595,#593,#105,.T.);
#749=EDGE_CURVE('',#595,#558,#356,.T.);
#750=EDGE_CURVE('',#596,#595,#357,.T.);
#751=EDGE_CURVE('',#596,#557,#358,.T.);
#752=EDGE_CURVE('',#597,#596,#106,.T.);
#753=EDGE_CURVE('',#597,#556,#359,.T.);
#754=EDGE_CURVE('',#598,#597,#360,.T.);
#755=EDGE_CURVE('',#598,#555,#361,.T.);
#756=EDGE_CURVE('',#599,#598,#107,.T.);
#757=EDGE_CURVE('',#599,#554,#362,.T.);
#758=EDGE_CURVE('',#600,#599,#363,.T.);
#759=EDGE_CURVE('',#600,#553,#364,.T.);
#760=EDGE_CURVE('',#594,#600,#108,.T.);
#761=EDGE_CURVE('',#601,#602,#365,.T.);
#762=EDGE_CURVE('',#602,#544,#366,.T.);
#763=EDGE_CURVE('',#601,#551,#367,.T.);
#764=EDGE_CURVE('',#603,#601,#109,.T.);
#765=EDGE_CURVE('',#603,#550,#368,.T.);
#766=EDGE_CURVE('',#604,#603,#369,.T.);
#767=EDGE_CURVE('',#604,#549,#370,.T.);
#768=EDGE_CURVE('',#605,#604,#110,.T.);
#769=EDGE_CURVE('',#605,#548,#371,.T.);
#770=EDGE_CURVE('',#606,#605,#372,.T.);
#771=EDGE_CURVE('',#606,#547,#373,.T.);
#772=EDGE_CURVE('',#607,#606,#111,.T.);
#773=EDGE_CURVE('',#607,#546,#374,.T.);
#774=EDGE_CURVE('',#608,#607,#375,.T.);
#775=EDGE_CURVE('',#608,#545,#376,.T.);
#776=EDGE_CURVE('',#602,#608,#112,.T.);
#777=ORIENTED_EDGE('',*,*,#609,.F.);
#778=ORIENTED_EDGE('',*,*,#610,.F.);
#779=ORIENTED_EDGE('',*,*,#611,.F.);
#780=ORIENTED_EDGE('',*,*,#612,.T.);
#781=ORIENTED_EDGE('',*,*,#613,.F.);
#782=ORIENTED_EDGE('',*,*,#612,.F.);
#783=ORIENTED_EDGE('',*,*,#614,.F.);
#784=ORIENTED_EDGE('',*,*,#615,.T.);
#785=ORIENTED_EDGE('',*,*,#616,.F.);
#786=ORIENTED_EDGE('',*,*,#615,.F.);
#787=ORIENTED_EDGE('',*,*,#617,.F.);
#788=ORIENTED_EDGE('',*,*,#618,.F.);
#789=ORIENTED_EDGE('',*,*,#610,.T.);
#790=ORIENTED_EDGE('',*,*,#619,.T.);
#791=ORIENTED_EDGE('',*,*,#620,.T.);
#792=ORIENTED_EDGE('',*,*,#621,.T.);
#793=ORIENTED_EDGE('',*,*,#622,.T.);
#794=ORIENTED_EDGE('',*,*,#623,.T.);
#795=ORIENTED_EDGE('',*,*,#618,.T.);
#796=ORIENTED_EDGE('',*,*,#624,.F.);
#797=ORIENTED_EDGE('',*,*,#625,.T.);
#798=ORIENTED_EDGE('',*,*,#626,.T.);
#799=ORIENTED_EDGE('',*,*,#627,.T.);
#800=ORIENTED_EDGE('',*,*,#628,.F.);
#801=ORIENTED_EDGE('',*,*,#629,.T.);
#802=ORIENTED_EDGE('',*,*,#630,.T.);
#803=ORIENTED_EDGE('',*,*,#631,.T.);
#804=ORIENTED_EDGE('',*,*,#632,.T.);
#805=ORIENTED_EDGE('',*,*,#609,.T.);
#806=ORIENTED_EDGE('',*,*,#613,.T.);
#807=ORIENTED_EDGE('',*,*,#616,.T.);
#808=ORIENTED_EDGE('',*,*,#623,.F.);
#809=ORIENTED_EDGE('',*,*,#633,.F.);
#810=ORIENTED_EDGE('',*,*,#634,.F.);
#811=ORIENTED_EDGE('',*,*,#635,.T.);
#812=ORIENTED_EDGE('',*,*,#619,.F.);
#813=ORIENTED_EDGE('',*,*,#636,.F.);
#814=ORIENTED_EDGE('',*,*,#637,.F.);
#815=ORIENTED_EDGE('',*,*,#638,.F.);
#816=ORIENTED_EDGE('',*,*,#626,.F.);
#817=ORIENTED_EDGE('',*,*,#637,.T.);
#818=ORIENTED_EDGE('',*,*,#639,.T.);
#819=ORIENTED_EDGE('',*,*,#640,.F.);
#820=ORIENTED_EDGE('',*,*,#641,.F.);
#821=ORIENTED_EDGE('',*,*,#642,.F.);
#822=ORIENTED_EDGE('',*,*,#643,.F.);
#823=ORIENTED_EDGE('',*,*,#644,.F.);
#824=ORIENTED_EDGE('',*,*,#645,.F.);
#825=ORIENTED_EDGE('',*,*,#636,.T.);
#826=ORIENTED_EDGE('',*,*,#625,.F.);
#827=ORIENTED_EDGE('',*,*,#646,.F.);
#828=ORIENTED_EDGE('',*,*,#639,.F.);
#829=ORIENTED_EDGE('',*,*,#611,.T.);
#830=ORIENTED_EDGE('',*,*,#628,.T.);
#831=ORIENTED_EDGE('',*,*,#647,.T.);
#832=ORIENTED_EDGE('',*,*,#640,.T.);
#833=ORIENTED_EDGE('',*,*,#646,.T.);
#834=ORIENTED_EDGE('',*,*,#624,.T.);
#835=ORIENTED_EDGE('',*,*,#617,.T.);
#836=ORIENTED_EDGE('',*,*,#614,.T.);
#837=ORIENTED_EDGE('',*,*,#638,.T.);
#838=ORIENTED_EDGE('',*,*,#641,.T.);
#839=ORIENTED_EDGE('',*,*,#647,.F.);
#840=ORIENTED_EDGE('',*,*,#627,.F.);
#841=ORIENTED_EDGE('',*,*,#648,.F.);
#842=ORIENTED_EDGE('',*,*,#633,.T.);
#843=ORIENTED_EDGE('',*,*,#622,.F.);
#844=ORIENTED_EDGE('',*,*,#649,.F.);
#845=ORIENTED_EDGE('',*,*,#650,.F.);
#846=ORIENTED_EDGE('',*,*,#649,.T.);
#847=ORIENTED_EDGE('',*,*,#621,.F.);
#848=ORIENTED_EDGE('',*,*,#651,.F.);
#849=ORIENTED_EDGE('',*,*,#652,.F.);
#850=ORIENTED_EDGE('',*,*,#651,.T.);
#851=ORIENTED_EDGE('',*,*,#620,.F.);
#852=ORIENTED_EDGE('',*,*,#635,.F.);
#853=ORIENTED_EDGE('',*,*,#629,.F.);
#854=ORIENTED_EDGE('',*,*,#653,.T.);
#855=ORIENTED_EDGE('',*,*,#645,.T.);
#856=ORIENTED_EDGE('',*,*,#653,.F.);
#857=ORIENTED_EDGE('',*,*,#630,.F.);
#858=ORIENTED_EDGE('',*,*,#654,.T.);
#859=ORIENTED_EDGE('',*,*,#644,.T.);
#860=ORIENTED_EDGE('',*,*,#654,.F.);
#861=ORIENTED_EDGE('',*,*,#631,.F.);
#862=ORIENTED_EDGE('',*,*,#655,.T.);
#863=ORIENTED_EDGE('',*,*,#643,.T.);
#864=ORIENTED_EDGE('',*,*,#655,.F.);
#865=ORIENTED_EDGE('',*,*,#632,.F.);
#866=ORIENTED_EDGE('',*,*,#656,.T.);
#867=ORIENTED_EDGE('',*,*,#642,.T.);
#868=ORIENTED_EDGE('',*,*,#656,.F.);
#869=ORIENTED_EDGE('',*,*,#648,.T.);
#870=ORIENTED_EDGE('',*,*,#650,.T.);
#871=ORIENTED_EDGE('',*,*,#652,.T.);
#872=ORIENTED_EDGE('',*,*,#634,.T.);
#873=ORIENTED_EDGE('',*,*,#657,.F.);
#874=ORIENTED_EDGE('',*,*,#658,.T.);
#875=ORIENTED_EDGE('',*,*,#659,.F.);
#876=ORIENTED_EDGE('',*,*,#658,.F.);
#877=ORIENTED_EDGE('',*,*,#660,.F.);
#878=ORIENTED_EDGE('',*,*,#661,.T.);
#879=ORIENTED_EDGE('',*,*,#662,.F.);
#880=ORIENTED_EDGE('',*,*,#661,.F.);
#881=ORIENTED_EDGE('',*,*,#663,.F.);
#882=ORIENTED_EDGE('',*,*,#664,.T.);
#883=ORIENTED_EDGE('',*,*,#665,.F.);
#884=ORIENTED_EDGE('',*,*,#664,.F.);
#885=ORIENTED_EDGE('',*,*,#666,.F.);
#886=ORIENTED_EDGE('',*,*,#667,.T.);
#887=ORIENTED_EDGE('',*,*,#668,.F.);
#888=ORIENTED_EDGE('',*,*,#667,.F.);
#889=ORIENTED_EDGE('',*,*,#669,.T.);
#890=ORIENTED_EDGE('',*,*,#670,.T.);
#891=ORIENTED_EDGE('',*,*,#671,.T.);
#892=ORIENTED_EDGE('',*,*,#672,.T.);
#893=ORIENTED_EDGE('',*,*,#673,.F.);
#894=ORIENTED_EDGE('',*,*,#674,.F.);
#895=ORIENTED_EDGE('',*,*,#669,.F.);
#896=ORIENTED_EDGE('',*,*,#675,.F.);
#897=ORIENTED_EDGE('',*,*,#674,.T.);
#898=ORIENTED_EDGE('',*,*,#676,.T.);
#899=ORIENTED_EDGE('',*,*,#677,.T.);
#900=ORIENTED_EDGE('',*,*,#670,.F.);
#901=ORIENTED_EDGE('',*,*,#678,.T.);
#902=ORIENTED_EDGE('',*,*,#679,.T.);
#903=ORIENTED_EDGE('',*,*,#680,.T.);
#904=ORIENTED_EDGE('',*,*,#681,.T.);
#905=ORIENTED_EDGE('',*,*,#682,.T.);
#906=ORIENTED_EDGE('',*,*,#683,.T.);
#907=ORIENTED_EDGE('',*,*,#684,.T.);
#908=ORIENTED_EDGE('',*,*,#685,.T.);
#909=ORIENTED_EDGE('',*,*,#686,.T.);
#910=ORIENTED_EDGE('',*,*,#687,.T.);
#911=ORIENTED_EDGE('',*,*,#688,.T.);
#912=ORIENTED_EDGE('',*,*,#689,.T.);
#913=ORIENTED_EDGE('',*,*,#690,.T.);
#914=ORIENTED_EDGE('',*,*,#691,.T.);
#915=ORIENTED_EDGE('',*,*,#692,.T.);
#916=ORIENTED_EDGE('',*,*,#693,.T.);
#917=ORIENTED_EDGE('',*,*,#694,.T.);
#918=ORIENTED_EDGE('',*,*,#695,.T.);
#919=ORIENTED_EDGE('',*,*,#696,.T.);
#920=ORIENTED_EDGE('',*,*,#697,.T.);
#921=ORIENTED_EDGE('',*,*,#698,.T.);
#922=ORIENTED_EDGE('',*,*,#699,.T.);
#923=ORIENTED_EDGE('',*,*,#700,.T.);
#924=ORIENTED_EDGE('',*,*,#701,.T.);
#925=ORIENTED_EDGE('',*,*,#702,.T.);
#926=ORIENTED_EDGE('',*,*,#703,.T.);
#927=ORIENTED_EDGE('',*,*,#704,.T.);
#928=ORIENTED_EDGE('',*,*,#705,.T.);
#929=ORIENTED_EDGE('',*,*,#706,.T.);
#930=ORIENTED_EDGE('',*,*,#707,.T.);
#931=ORIENTED_EDGE('',*,*,#708,.T.);
#932=ORIENTED_EDGE('',*,*,#709,.T.);
#933=ORIENTED_EDGE('',*,*,#668,.T.);
#934=ORIENTED_EDGE('',*,*,#665,.T.);
#935=ORIENTED_EDGE('',*,*,#662,.T.);
#936=ORIENTED_EDGE('',*,*,#659,.T.);
#937=ORIENTED_EDGE('',*,*,#673,.T.);
#938=ORIENTED_EDGE('',*,*,#710,.F.);
#939=ORIENTED_EDGE('',*,*,#711,.F.);
#940=ORIENTED_EDGE('',*,*,#676,.F.);
#941=ORIENTED_EDGE('',*,*,#711,.T.);
#942=ORIENTED_EDGE('',*,*,#712,.T.);
#943=ORIENTED_EDGE('',*,*,#671,.F.);
#944=ORIENTED_EDGE('',*,*,#677,.F.);
#945=ORIENTED_EDGE('',*,*,#713,.T.);
#946=ORIENTED_EDGE('',*,*,#714,.T.);
#947=ORIENTED_EDGE('',*,*,#709,.F.);
#948=ORIENTED_EDGE('',*,*,#715,.F.);
#949=ORIENTED_EDGE('',*,*,#716,.T.);
#950=ORIENTED_EDGE('',*,*,#715,.T.);
#951=ORIENTED_EDGE('',*,*,#708,.F.);
#952=ORIENTED_EDGE('',*,*,#717,.F.);
#953=ORIENTED_EDGE('',*,*,#718,.T.);
#954=ORIENTED_EDGE('',*,*,#717,.T.);
#955=ORIENTED_EDGE('',*,*,#707,.F.);
#956=ORIENTED_EDGE('',*,*,#719,.F.);
#957=ORIENTED_EDGE('',*,*,#720,.T.);
#958=ORIENTED_EDGE('',*,*,#719,.T.);
#959=ORIENTED_EDGE('',*,*,#706,.F.);
#960=ORIENTED_EDGE('',*,*,#721,.F.);
#961=ORIENTED_EDGE('',*,*,#722,.T.);
#962=ORIENTED_EDGE('',*,*,#721,.T.);
#963=ORIENTED_EDGE('',*,*,#705,.F.);
#964=ORIENTED_EDGE('',*,*,#723,.F.);
#965=ORIENTED_EDGE('',*,*,#724,.T.);
#966=ORIENTED_EDGE('',*,*,#723,.T.);
#967=ORIENTED_EDGE('',*,*,#704,.F.);
#968=ORIENTED_EDGE('',*,*,#725,.F.);
#969=ORIENTED_EDGE('',*,*,#726,.T.);
#970=ORIENTED_EDGE('',*,*,#725,.T.);
#971=ORIENTED_EDGE('',*,*,#703,.F.);
#972=ORIENTED_EDGE('',*,*,#727,.F.);
#973=ORIENTED_EDGE('',*,*,#728,.T.);
#974=ORIENTED_EDGE('',*,*,#727,.T.);
#975=ORIENTED_EDGE('',*,*,#702,.F.);
#976=ORIENTED_EDGE('',*,*,#714,.F.);
#977=ORIENTED_EDGE('',*,*,#729,.T.);
#978=ORIENTED_EDGE('',*,*,#730,.T.);
#979=ORIENTED_EDGE('',*,*,#701,.F.);
#980=ORIENTED_EDGE('',*,*,#731,.F.);
#981=ORIENTED_EDGE('',*,*,#732,.T.);
#982=ORIENTED_EDGE('',*,*,#731,.T.);
#983=ORIENTED_EDGE('',*,*,#700,.F.);
#984=ORIENTED_EDGE('',*,*,#733,.F.);
#985=ORIENTED_EDGE('',*,*,#734,.T.);
#986=ORIENTED_EDGE('',*,*,#733,.T.);
#987=ORIENTED_EDGE('',*,*,#699,.F.);
#988=ORIENTED_EDGE('',*,*,#735,.F.);
#989=ORIENTED_EDGE('',*,*,#736,.T.);
#990=ORIENTED_EDGE('',*,*,#735,.T.);
#991=ORIENTED_EDGE('',*,*,#698,.F.);
#992=ORIENTED_EDGE('',*,*,#737,.F.);
#993=ORIENTED_EDGE('',*,*,#738,.T.);
#994=ORIENTED_EDGE('',*,*,#737,.T.);
#995=ORIENTED_EDGE('',*,*,#697,.F.);
#996=ORIENTED_EDGE('',*,*,#739,.F.);
#997=ORIENTED_EDGE('',*,*,#740,.T.);
#998=ORIENTED_EDGE('',*,*,#739,.T.);
#999=ORIENTED_EDGE('',*,*,#696,.F.);
#1000=ORIENTED_EDGE('',*,*,#741,.F.);
#1001=ORIENTED_EDGE('',*,*,#742,.T.);
#1002=ORIENTED_EDGE('',*,*,#741,.T.);
#1003=ORIENTED_EDGE('',*,*,#695,.F.);
#1004=ORIENTED_EDGE('',*,*,#743,.F.);
#1005=ORIENTED_EDGE('',*,*,#744,.T.);
#1006=ORIENTED_EDGE('',*,*,#743,.T.);
#1007=ORIENTED_EDGE('',*,*,#694,.F.);
#1008=ORIENTED_EDGE('',*,*,#730,.F.);
#1009=ORIENTED_EDGE('',*,*,#745,.T.);
#1010=ORIENTED_EDGE('',*,*,#746,.T.);
#1011=ORIENTED_EDGE('',*,*,#693,.F.);
#1012=ORIENTED_EDGE('',*,*,#747,.F.);
#1013=ORIENTED_EDGE('',*,*,#748,.T.);
#1014=ORIENTED_EDGE('',*,*,#747,.T.);
#1015=ORIENTED_EDGE('',*,*,#692,.F.);
#1016=ORIENTED_EDGE('',*,*,#749,.F.);
#1017=ORIENTED_EDGE('',*,*,#750,.T.);
#1018=ORIENTED_EDGE('',*,*,#749,.T.);
#1019=ORIENTED_EDGE('',*,*,#691,.F.);
#1020=ORIENTED_EDGE('',*,*,#751,.F.);
#1021=ORIENTED_EDGE('',*,*,#752,.T.);
#1022=ORIENTED_EDGE('',*,*,#751,.T.);
#1023=ORIENTED_EDGE('',*,*,#690,.F.);
#1024=ORIENTED_EDGE('',*,*,#753,.F.);
#1025=ORIENTED_EDGE('',*,*,#754,.T.);
#1026=ORIENTED_EDGE('',*,*,#753,.T.);
#1027=ORIENTED_EDGE('',*,*,#689,.F.);
#1028=ORIENTED_EDGE('',*,*,#755,.F.);
#1029=ORIENTED_EDGE('',*,*,#756,.T.);
#1030=ORIENTED_EDGE('',*,*,#755,.T.);
#1031=ORIENTED_EDGE('',*,*,#688,.F.);
#1032=ORIENTED_EDGE('',*,*,#757,.F.);
#1033=ORIENTED_EDGE('',*,*,#758,.T.);
#1034=ORIENTED_EDGE('',*,*,#757,.T.);
#1035=ORIENTED_EDGE('',*,*,#687,.F.);
#1036=ORIENTED_EDGE('',*,*,#759,.F.);
#1037=ORIENTED_EDGE('',*,*,#760,.T.);
#1038=ORIENTED_EDGE('',*,*,#759,.T.);
#1039=ORIENTED_EDGE('',*,*,#686,.F.);
#1040=ORIENTED_EDGE('',*,*,#746,.F.);
#1041=ORIENTED_EDGE('',*,*,#761,.T.);
#1042=ORIENTED_EDGE('',*,*,#762,.T.);
#1043=ORIENTED_EDGE('',*,*,#685,.F.);
#1044=ORIENTED_EDGE('',*,*,#763,.F.);
#1045=ORIENTED_EDGE('',*,*,#764,.T.);
#1046=ORIENTED_EDGE('',*,*,#763,.T.);
#1047=ORIENTED_EDGE('',*,*,#684,.F.);
#1048=ORIENTED_EDGE('',*,*,#765,.F.);
#1049=ORIENTED_EDGE('',*,*,#766,.T.);
#1050=ORIENTED_EDGE('',*,*,#765,.T.);
#1051=ORIENTED_EDGE('',*,*,#683,.F.);
#1052=ORIENTED_EDGE('',*,*,#767,.F.);
#1053=ORIENTED_EDGE('',*,*,#768,.T.);
#1054=ORIENTED_EDGE('',*,*,#767,.T.);
#1055=ORIENTED_EDGE('',*,*,#682,.F.);
#1056=ORIENTED_EDGE('',*,*,#769,.F.);
#1057=ORIENTED_EDGE('',*,*,#770,.T.);
#1058=ORIENTED_EDGE('',*,*,#769,.T.);
#1059=ORIENTED_EDGE('',*,*,#681,.F.);
#1060=ORIENTED_EDGE('',*,*,#771,.F.);
#1061=ORIENTED_EDGE('',*,*,#772,.T.);
#1062=ORIENTED_EDGE('',*,*,#771,.T.);
#1063=ORIENTED_EDGE('',*,*,#680,.F.);
#1064=ORIENTED_EDGE('',*,*,#773,.F.);
#1065=ORIENTED_EDGE('',*,*,#774,.T.);
#1066=ORIENTED_EDGE('',*,*,#773,.T.);
#1067=ORIENTED_EDGE('',*,*,#679,.F.);
#1068=ORIENTED_EDGE('',*,*,#775,.F.);
#1069=ORIENTED_EDGE('',*,*,#776,.T.);
#1070=ORIENTED_EDGE('',*,*,#775,.T.);
#1071=ORIENTED_EDGE('',*,*,#678,.F.);
#1072=ORIENTED_EDGE('',*,*,#762,.F.);
#1073=ORIENTED_EDGE('',*,*,#675,.T.);
#1074=ORIENTED_EDGE('',*,*,#672,.F.);
#1075=ORIENTED_EDGE('',*,*,#712,.F.);
#1076=ORIENTED_EDGE('',*,*,#710,.T.);
#1077=ORIENTED_EDGE('',*,*,#728,.F.);
#1078=ORIENTED_EDGE('',*,*,#713,.F.);
#1079=ORIENTED_EDGE('',*,*,#716,.F.);
#1080=ORIENTED_EDGE('',*,*,#718,.F.);
#1081=ORIENTED_EDGE('',*,*,#720,.F.);
#1082=ORIENTED_EDGE('',*,*,#722,.F.);
#1083=ORIENTED_EDGE('',*,*,#724,.F.);
#1084=ORIENTED_EDGE('',*,*,#726,.F.);
#1085=ORIENTED_EDGE('',*,*,#744,.F.);
#1086=ORIENTED_EDGE('',*,*,#729,.F.);
#1087=ORIENTED_EDGE('',*,*,#732,.F.);
#1088=ORIENTED_EDGE('',*,*,#734,.F.);
#1089=ORIENTED_EDGE('',*,*,#736,.F.);
#1090=ORIENTED_EDGE('',*,*,#738,.F.);
#1091=ORIENTED_EDGE('',*,*,#740,.F.);
#1092=ORIENTED_EDGE('',*,*,#742,.F.);
#1093=ORIENTED_EDGE('',*,*,#760,.F.);
#1094=ORIENTED_EDGE('',*,*,#745,.F.);
#1095=ORIENTED_EDGE('',*,*,#748,.F.);
#1096=ORIENTED_EDGE('',*,*,#750,.F.);
#1097=ORIENTED_EDGE('',*,*,#752,.F.);
#1098=ORIENTED_EDGE('',*,*,#754,.F.);
#1099=ORIENTED_EDGE('',*,*,#756,.F.);
#1100=ORIENTED_EDGE('',*,*,#758,.F.);
#1101=ORIENTED_EDGE('',*,*,#776,.F.);
#1102=ORIENTED_EDGE('',*,*,#761,.F.);
#1103=ORIENTED_EDGE('',*,*,#764,.F.);
#1104=ORIENTED_EDGE('',*,*,#766,.F.);
#1105=ORIENTED_EDGE('',*,*,#768,.F.);
#1106=ORIENTED_EDGE('',*,*,#770,.F.);
#1107=ORIENTED_EDGE('',*,*,#772,.F.);
#1108=ORIENTED_EDGE('',*,*,#774,.F.);
#1109=ORIENTED_EDGE('',*,*,#666,.T.);
#1110=ORIENTED_EDGE('',*,*,#663,.T.);
#1111=ORIENTED_EDGE('',*,*,#660,.T.);
#1112=ORIENTED_EDGE('',*,*,#657,.T.);
#1113=PLANE('',#1224);
#1114=PLANE('',#1225);
#1115=PLANE('',#1226);
#1116=PLANE('',#1227);
#1117=PLANE('',#1232);
#1118=PLANE('',#1233);
#1119=PLANE('',#1234);
#1120=PLANE('',#1239);
#1121=PLANE('',#1240);
#1122=PLANE('',#1241);
#1123=PLANE('',#1242);
#1124=PLANE('',#1243);
#1125=PLANE('',#1244);
#1126=PLANE('',#1249);
#1127=PLANE('',#1262);
#1128=PLANE('',#1263);
#1129=PLANE('',#1264);
#1130=PLANE('',#1281);
#1131=PLANE('',#1282);
#1132=PLANE('',#1283);
#1133=PLANE('',#1286);
#1134=PLANE('',#1289);
#1135=PLANE('',#1292);
#1136=PLANE('',#1295);
#1137=PLANE('',#1298);
#1138=PLANE('',#1301);
#1139=PLANE('',#1304);
#1140=PLANE('',#1307);
#1141=PLANE('',#1310);
#1142=PLANE('',#1313);
#1143=PLANE('',#1316);
#1144=PLANE('',#1319);
#1145=PLANE('',#1322);
#1146=PLANE('',#1325);
#1147=PLANE('',#1328);
#1148=PLANE('',#1331);
#1149=ADVANCED_FACE('',(#113),#1113,.F.);
#1150=ADVANCED_FACE('',(#114),#1114,.F.);
#1151=ADVANCED_FACE('',(#115),#1115,.F.);
#1152=ADVANCED_FACE('',(#116,#41,#42,#43,#44),#1116,.T.);
#1153=ADVANCED_FACE('',(#117),#1117,.T.);
#1154=ADVANCED_FACE('',(#118),#1118,.F.);
#1155=ADVANCED_FACE('',(#119,#45,#46,#47,#48),#1119,.F.);
#1156=ADVANCED_FACE('',(#120),#1120,.F.);
#1157=ADVANCED_FACE('',(#121),#1121,.T.);
#1158=ADVANCED_FACE('',(#122),#1122,.T.);
#1159=ADVANCED_FACE('',(#123),#1123,.T.);
#1160=ADVANCED_FACE('',(#124),#1124,.T.);
#1161=ADVANCED_FACE('',(#125),#1125,.T.);
#1162=ADVANCED_FACE('',(#126),#17,.F.);
#1163=ADVANCED_FACE('',(#127),#18,.F.);
#1164=ADVANCED_FACE('',(#128),#19,.F.);
#1165=ADVANCED_FACE('',(#129),#20,.F.);
#1166=ADVANCED_FACE('',(#130),#1126,.T.);
#1167=ADVANCED_FACE('',(#131),#21,.F.);
#1168=ADVANCED_FACE('',(#132),#22,.F.);
#1169=ADVANCED_FACE('',(#133),#23,.F.);
#1170=ADVANCED_FACE('',(#134),#24,.F.);
#1171=ADVANCED_FACE('',(#135),#1127,.T.);
#1172=ADVANCED_FACE('',(#136),#1128,.F.);
#1173=ADVANCED_FACE('',(#137,#49,#50,#51,#52,#53,#54,#55,#56),#1129,.T.);
#1174=ADVANCED_FACE('',(#138),#1130,.F.);
#1175=ADVANCED_FACE('',(#139),#1131,.T.);
#1176=ADVANCED_FACE('',(#140),#1132,.T.);
#1177=ADVANCED_FACE('',(#141),#25,.F.);
#1178=ADVANCED_FACE('',(#142),#1133,.T.);
#1179=ADVANCED_FACE('',(#143),#26,.F.);
#1180=ADVANCED_FACE('',(#144),#1134,.T.);
#1181=ADVANCED_FACE('',(#145),#27,.F.);
#1182=ADVANCED_FACE('',(#146),#1135,.T.);
#1183=ADVANCED_FACE('',(#147),#28,.F.);
#1184=ADVANCED_FACE('',(#148),#1136,.T.);
#1185=ADVANCED_FACE('',(#149),#29,.F.);
#1186=ADVANCED_FACE('',(#150),#1137,.T.);
#1187=ADVANCED_FACE('',(#151),#30,.F.);
#1188=ADVANCED_FACE('',(#152),#1138,.T.);
#1189=ADVANCED_FACE('',(#153),#31,.F.);
#1190=ADVANCED_FACE('',(#154),#1139,.T.);
#1191=ADVANCED_FACE('',(#155),#32,.F.);
#1192=ADVANCED_FACE('',(#156),#1140,.T.);
#1193=ADVANCED_FACE('',(#157),#33,.F.);
#1194=ADVANCED_FACE('',(#158),#1141,.T.);
#1195=ADVANCED_FACE('',(#159),#34,.F.);
#1196=ADVANCED_FACE('',(#160),#1142,.T.);
#1197=ADVANCED_FACE('',(#161),#35,.F.);
#1198=ADVANCED_FACE('',(#162),#1143,.T.);
#1199=ADVANCED_FACE('',(#163),#36,.F.);
#1200=ADVANCED_FACE('',(#164),#1144,.T.);
#1201=ADVANCED_FACE('',(#165),#37,.F.);
#1202=ADVANCED_FACE('',(#166),#1145,.T.);
#1203=ADVANCED_FACE('',(#167),#38,.F.);
#1204=ADVANCED_FACE('',(#168),#1146,.T.);
#1205=ADVANCED_FACE('',(#169),#39,.F.);
#1206=ADVANCED_FACE('',(#170),#1147,.T.);
#1207=ADVANCED_FACE('',(#171),#40,.F.);
#1208=ADVANCED_FACE('',(#172,#57,#58,#59,#60,#61,#62,#63,#64),#1148,.F.);
#1209=CLOSED_SHELL('',(#1149,#1150,#1151,#1152,#1153,#1154,#1155,#1156,
#1157,#1158,#1159,#1160,#1161,#1162,#1163,#1164,#1165,#1166));
#1210=CLOSED_SHELL('',(#1167,#1168,#1169,#1170,#1171,#1172,#1173,#1174,
#1175,#1176,#1177,#1178,#1179,#1180,#1181,#1182,#1183,#1184,#1185,#1186,
#1187,#1188,#1189,#1190,#1191,#1192,#1193,#1194,#1195,#1196,#1197,#1198,
#1199,#1200,#1201,#1202,#1203,#1204,#1205,#1206,#1207,#1208));
#1211=DERIVED_UNIT_ELEMENT(#1213,1.);
#1212=DERIVED_UNIT_ELEMENT(#2016,-3.);
#1213=(
MASS_UNIT()
NAMED_UNIT(*)
SI_UNIT(.KILO.,.GRAM.)
);
#1214=DERIVED_UNIT((#1211,#1212));
#1215=MEASURE_REPRESENTATION_ITEM('density measure',
POSITIVE_RATIO_MEASURE(7850.),#1214);
#1216=PROPERTY_DEFINITION_REPRESENTATION(#1221,#1218);
#1217=PROPERTY_DEFINITION_REPRESENTATION(#1222,#1219);
#1218=REPRESENTATION('material name',(#1220),#2013);
#1219=REPRESENTATION('density',(#1215),#2013);
#1220=DESCRIPTIVE_REPRESENTATION_ITEM('Steel','Steel');
#1221=PROPERTY_DEFINITION('material property','material name',#2023);
#1222=PROPERTY_DEFINITION('material property','density of part',#2023);
#1223=AXIS2_PLACEMENT_3D('',#1670,#1332,#1333);
#1224=AXIS2_PLACEMENT_3D('',#1671,#1334,#1335);
#1225=AXIS2_PLACEMENT_3D('',#1680,#1340,#1341);
#1226=AXIS2_PLACEMENT_3D('',#1686,#1345,#1346);
#1227=AXIS2_PLACEMENT_3D('',#1692,#1350,#1351);
#1228=AXIS2_PLACEMENT_3D('',#1712,#1362,#1363);
#1229=AXIS2_PLACEMENT_3D('',#1714,#1364,#1365);
#1230=AXIS2_PLACEMENT_3D('',#1716,#1366,#1367);
#1231=AXIS2_PLACEMENT_3D('',#1718,#1368,#1369);
#1232=AXIS2_PLACEMENT_3D('',#1719,#1370,#1371);
#1233=AXIS2_PLACEMENT_3D('',#1725,#1375,#1376);
#1234=AXIS2_PLACEMENT_3D('',#1731,#1380,#1381);
#1235=AXIS2_PLACEMENT_3D('',#1738,#1385,#1386);
#1236=AXIS2_PLACEMENT_3D('',#1740,#1387,#1388);
#1237=AXIS2_PLACEMENT_3D('',#1742,#1389,#1390);
#1238=AXIS2_PLACEMENT_3D('',#1744,#1391,#1392);
#1239=AXIS2_PLACEMENT_3D('',#1745,#1393,#1394);
#1240=AXIS2_PLACEMENT_3D('',#1747,#1396,#1397);
#1241=AXIS2_PLACEMENT_3D('',#1749,#1399,#1400);
#1242=AXIS2_PLACEMENT_3D('',#1750,#1401,#1402);
#1243=AXIS2_PLACEMENT_3D('',#1754,#1405,#1406);
#1244=AXIS2_PLACEMENT_3D('',#1758,#1409,#1410);
#1245=AXIS2_PLACEMENT_3D('',#1760,#1412,#1413);
#1246=AXIS2_PLACEMENT_3D('',#1762,#1415,#1416);
#1247=AXIS2_PLACEMENT_3D('',#1764,#1418,#1419);
#1248=AXIS2_PLACEMENT_3D('',#1766,#1421,#1422);
#1249=AXIS2_PLACEMENT_3D('',#1768,#1424,#1425);
#1250=AXIS2_PLACEMENT_3D('',#1769,#1426,#1427);
#1251=AXIS2_PLACEMENT_3D('',#1771,#1428,#1429);
#1252=AXIS2_PLACEMENT_3D('',#1774,#1431,#1432);
#1253=AXIS2_PLACEMENT_3D('',#1775,#1433,#1434);
#1254=AXIS2_PLACEMENT_3D('',#1777,#1435,#1436);
#1255=AXIS2_PLACEMENT_3D('',#1780,#1438,#1439);
#1256=AXIS2_PLACEMENT_3D('',#1781,#1440,#1441);
#1257=AXIS2_PLACEMENT_3D('',#1783,#1442,#1443);
#1258=AXIS2_PLACEMENT_3D('',#1786,#1445,#1446);
#1259=AXIS2_PLACEMENT_3D('',#1787,#1447,#1448);
#1260=AXIS2_PLACEMENT_3D('',#1789,#1449,#1450);
#1261=AXIS2_PLACEMENT_3D('',#1792,#1452,#1453);
#1262=AXIS2_PLACEMENT_3D('',#1793,#1454,#1455);
#1263=AXIS2_PLACEMENT_3D('',#1802,#1460,#1461);
#1264=AXIS2_PLACEMENT_3D('',#1808,#1465,#1466);
#1265=AXIS2_PLACEMENT_3D('',#1814,#1469,#1470);
#1266=AXIS2_PLACEMENT_3D('',#1818,#1472,#1473);
#1267=AXIS2_PLACEMENT_3D('',#1822,#1475,#1476);
#1268=AXIS2_PLACEMENT_3D('',#1826,#1478,#1479);
#1269=AXIS2_PLACEMENT_3D('',#1830,#1481,#1482);
#1270=AXIS2_PLACEMENT_3D('',#1834,#1484,#1485);
#1271=AXIS2_PLACEMENT_3D('',#1838,#1487,#1488);
#1272=AXIS2_PLACEMENT_3D('',#1842,#1490,#1491);
#1273=AXIS2_PLACEMENT_3D('',#1846,#1493,#1494);
#1274=AXIS2_PLACEMENT_3D('',#1850,#1496,#1497);
#1275=AXIS2_PLACEMENT_3D('',#1854,#1499,#1500);
#1276=AXIS2_PLACEMENT_3D('',#1858,#1502,#1503);
#1277=AXIS2_PLACEMENT_3D('',#1862,#1505,#1506);
#1278=AXIS2_PLACEMENT_3D('',#1866,#1508,#1509);
#1279=AXIS2_PLACEMENT_3D('',#1870,#1511,#1512);
#1280=AXIS2_PLACEMENT_3D('',#1874,#1514,#1515);
#1281=AXIS2_PLACEMENT_3D('',#1876,#1517,#1518);
#1282=AXIS2_PLACEMENT_3D('',#1880,#1521,#1522);
#1283=AXIS2_PLACEMENT_3D('',#1882,#1524,#1525);
#1284=AXIS2_PLACEMENT_3D('',#1888,#1529,#1530);
#1285=AXIS2_PLACEMENT_3D('',#1890,#1531,#1532);
#1286=AXIS2_PLACEMENT_3D('',#1892,#1534,#1535);
#1287=AXIS2_PLACEMENT_3D('',#1896,#1538,#1539);
#1288=AXIS2_PLACEMENT_3D('',#1898,#1540,#1541);
#1289=AXIS2_PLACEMENT_3D('',#1900,#1543,#1544);
#1290=AXIS2_PLACEMENT_3D('',#1904,#1547,#1548);
#1291=AXIS2_PLACEMENT_3D('',#1906,#1549,#1550);
#1292=AXIS2_PLACEMENT_3D('',#1908,#1552,#1553);
#1293=AXIS2_PLACEMENT_3D('',#1912,#1556,#1557);
#1294=AXIS2_PLACEMENT_3D('',#1913,#1558,#1559);
#1295=AXIS2_PLACEMENT_3D('',#1914,#1560,#1561);
#1296=AXIS2_PLACEMENT_3D('',#1920,#1565,#1566);
#1297=AXIS2_PLACEMENT_3D('',#1922,#1567,#1568);
#1298=AXIS2_PLACEMENT_3D('',#1924,#1570,#1571);
#1299=AXIS2_PLACEMENT_3D('',#1928,#1574,#1575);
#1300=AXIS2_PLACEMENT_3D('',#1930,#1576,#1577);
#1301=AXIS2_PLACEMENT_3D('',#1932,#1579,#1580);
#1302=AXIS2_PLACEMENT_3D('',#1936,#1583,#1584);
#1303=AXIS2_PLACEMENT_3D('',#1938,#1585,#1586);
#1304=AXIS2_PLACEMENT_3D('',#1940,#1588,#1589);
#1305=AXIS2_PLACEMENT_3D('',#1944,#1592,#1593);
#1306=AXIS2_PLACEMENT_3D('',#1945,#1594,#1595);
#1307=AXIS2_PLACEMENT_3D('',#1946,#1596,#1597);
#1308=AXIS2_PLACEMENT_3D('',#1952,#1601,#1602);
#1309=AXIS2_PLACEMENT_3D('',#1954,#1603,#1604);
#1310=AXIS2_PLACEMENT_3D('',#1956,#1606,#1607);
#1311=AXIS2_PLACEMENT_3D('',#1960,#1610,#1611);
#1312=AXIS2_PLACEMENT_3D('',#1962,#1612,#1613);
#1313=AXIS2_PLACEMENT_3D('',#1964,#1615,#1616);
#1314=AXIS2_PLACEMENT_3D('',#1968,#1619,#1620);
#1315=AXIS2_PLACEMENT_3D('',#1970,#1621,#1622);
#1316=AXIS2_PLACEMENT_3D('',#1972,#1624,#1625);
#1317=AXIS2_PLACEMENT_3D('',#1976,#1628,#1629);
#1318=AXIS2_PLACEMENT_3D('',#1977,#1630,#1631);
#1319=AXIS2_PLACEMENT_3D('',#1978,#1632,#1633);
#1320=AXIS2_PLACEMENT_3D('',#1984,#1637,#1638);
#1321=AXIS2_PLACEMENT_3D('',#1986,#1639,#1640);
#1322=AXIS2_PLACEMENT_3D('',#1988,#1642,#1643);
#1323=AXIS2_PLACEMENT_3D('',#1992,#1646,#1647);
#1324=AXIS2_PLACEMENT_3D('',#1994,#1648,#1649);
#1325=AXIS2_PLACEMENT_3D('',#1996,#1651,#1652);
#1326=AXIS2_PLACEMENT_3D('',#2000,#1655,#1656);
#1327=AXIS2_PLACEMENT_3D('',#2002,#1657,#1658);
#1328=AXIS2_PLACEMENT_3D('',#2004,#1660,#1661);
#1329=AXIS2_PLACEMENT_3D('',#2008,#1664,#1665);
#1330=AXIS2_PLACEMENT_3D('',#2009,#1666,#1667);
#1331=AXIS2_PLACEMENT_3D('',#2010,#1668,#1669);
#1332=DIRECTION('axis',(0.,0.,1.));
#1333=DIRECTION('refdir',(1.,0.,0.));
#1334=DIRECTION('center_axis',(0.,0.,1.));
#1335=DIRECTION('ref_axis',(0.,1.,0.));
#1336=DIRECTION('',(0.,-1.,0.));
#1337=DIRECTION('',(-1.,0.,0.));
#1338=DIRECTION('',(0.,1.,0.));
#1339=DIRECTION('',(-1.,0.,0.));
#1340=DIRECTION('center_axis',(0.,-1.,0.));
#1341=DIRECTION('ref_axis',(0.,0.,1.));
#1342=DIRECTION('',(0.,0.,-1.));
#1343=DIRECTION('',(0.,0.,1.));
#1344=DIRECTION('',(-1.,0.,0.));
#1345=DIRECTION('center_axis',(0.,0.,-1.));
#1346=DIRECTION('ref_axis',(0.,-1.,0.));
#1347=DIRECTION('',(0.,1.,0.));
#1348=DIRECTION('',(0.,-1.,0.));
#1349=DIRECTION('',(1.,0.,0.));
#1350=DIRECTION('center_axis',(0.,1.,0.));
#1351=DIRECTION('ref_axis',(1.,0.,0.));
#1352=DIRECTION('',(0.,0.,1.));
#1353=DIRECTION('',(-1.,0.,0.));
#1354=DIRECTION('',(0.,0.,-1.));
#1355=DIRECTION('',(1.,0.,0.));
#1356=DIRECTION('',(0.,0.,1.));
#1357=DIRECTION('',(0.,0.,1.));
#1358=DIRECTION('',(-1.,0.,0.));
#1359=DIRECTION('',(0.,0.,1.));
#1360=DIRECTION('',(1.,0.,0.));
#1361=DIRECTION('',(0.,0.,1.));
#1362=DIRECTION('center_axis',(0.,1.,0.));
#1363=DIRECTION('ref_axis',(1.,0.,0.));
#1364=DIRECTION('center_axis',(0.,1.,0.));
#1365=DIRECTION('ref_axis',(1.,0.,0.));
#1366=DIRECTION('center_axis',(0.,1.,0.));
#1367=DIRECTION('ref_axis',(1.,0.,0.));
#1368=DIRECTION('center_axis',(0.,1.,0.));
#1369=DIRECTION('ref_axis',(1.,0.,0.));
#1370=DIRECTION('center_axis',(-1.,0.,0.));
#1371=DIRECTION('ref_axis',(0.,0.,1.));
#1372=DIRECTION('',(0.,1.,0.));
#1373=DIRECTION('',(0.,0.,-1.));
#1374=DIRECTION('',(0.,1.,0.));
#1375=DIRECTION('center_axis',(1.,0.,0.));
#1376=DIRECTION('ref_axis',(0.,0.,-1.));
#1377=DIRECTION('',(0.,1.,0.));
#1378=DIRECTION('',(0.,0.,-1.));
#1379=DIRECTION('',(0.,-1.,0.));
#1380=DIRECTION('center_axis',(0.,1.,0.));
#1381=DIRECTION('ref_axis',(1.,0.,0.));
#1382=DIRECTION('',(1.,0.,0.));
#1383=DIRECTION('',(0.,0.,-1.));
#1384=DIRECTION('',(1.,0.,0.));
#1385=DIRECTION('center_axis',(0.,1.,0.));
#1386=DIRECTION('ref_axis',(1.,0.,0.));
#1387=DIRECTION('center_axis',(0.,1.,0.));
#1388=DIRECTION('ref_axis',(1.,0.,0.));
#1389=DIRECTION('center_axis',(0.,1.,0.));
#1390=DIRECTION('ref_axis',(1.,0.,0.));
#1391=DIRECTION('center_axis',(0.,1.,0.));
#1392=DIRECTION('ref_axis',(1.,0.,0.));
#1393=DIRECTION('center_axis',(0.,0.,1.));
#1394=DIRECTION('ref_axis',(1.,0.,0.));
#1395=DIRECTION('',(0.,1.,0.));
#1396=DIRECTION('center_axis',(1.,0.,0.));
#1397=DIRECTION('ref_axis',(0.,0.,-1.));
#1398=DIRECTION('',(0.,-1.,0.));
#1399=DIRECTION('center_axis',(0.,0.,1.));
#1400=DIRECTION('ref_axis',(1.,0.,0.));
#1401=DIRECTION('center_axis',(0.,0.,1.));
#1402=DIRECTION('ref_axis',(1.,0.,0.));
#1403=DIRECTION('',(-1.,0.,0.));
#1404=DIRECTION('',(0.,1.,0.));
#1405=DIRECTION('center_axis',(1.,0.,0.));
#1406=DIRECTION('ref_axis',(0.,0.,-1.));
#1407=DIRECTION('',(0.,0.,1.));
#1408=DIRECTION('',(0.,1.,0.));
#1409=DIRECTION('center_axis',(0.,0.,-1.));
#1410=DIRECTION('ref_axis',(-1.,0.,0.));
#1411=DIRECTION('',(1.,0.,0.));
#1412=DIRECTION('center_axis',(0.,1.,0.));
#1413=DIRECTION('ref_axis',(1.,0.,0.));
#1414=DIRECTION('',(0.,-1.,0.));
#1415=DIRECTION('center_axis',(0.,1.,0.));
#1416=DIRECTION('ref_axis',(1.,0.,0.));
#1417=DIRECTION('',(0.,-1.,0.));
#1418=DIRECTION('center_axis',(0.,1.,0.));
#1419=DIRECTION('ref_axis',(1.,0.,0.));
#1420=DIRECTION('',(0.,-1.,0.));
#1421=DIRECTION('center_axis',(0.,1.,0.));
#1422=DIRECTION('ref_axis',(1.,0.,0.));
#1423=DIRECTION('',(0.,-1.,0.));
#1424=DIRECTION('center_axis',(0.,1.,0.));
#1425=DIRECTION('ref_axis',(1.,0.,0.));
#1426=DIRECTION('center_axis',(0.,1.,0.));
#1427=DIRECTION('ref_axis',(0.,0.,-1.));
#1428=DIRECTION('center_axis',(0.,1.,0.));
#1429=DIRECTION('ref_axis',(0.,0.,-1.));
#1430=DIRECTION('',(0.,1.,0.));
#1431=DIRECTION('center_axis',(0.,-1.,0.));
#1432=DIRECTION('ref_axis',(0.,0.,-1.));
#1433=DIRECTION('center_axis',(0.,1.,0.));
#1434=DIRECTION('ref_axis',(0.,0.,-1.));
#1435=DIRECTION('center_axis',(0.,1.,0.));
#1436=DIRECTION('ref_axis',(0.,0.,-1.));
#1437=DIRECTION('',(0.,1.,0.));
#1438=DIRECTION('center_axis',(0.,-1.,0.));
#1439=DIRECTION('ref_axis',(0.,0.,-1.));
#1440=DIRECTION('center_axis',(0.,1.,0.));
#1441=DIRECTION('ref_axis',(0.,0.,-1.));
#1442=DIRECTION('center_axis',(0.,1.,0.));
#1443=DIRECTION('ref_axis',(0.,0.,-1.));
#1444=DIRECTION('',(0.,1.,0.));
#1445=DIRECTION('center_axis',(0.,-1.,0.));
#1446=DIRECTION('ref_axis',(0.,0.,-1.));
#1447=DIRECTION('center_axis',(0.,1.,0.));
#1448=DIRECTION('ref_axis',(0.,0.,-1.));
#1449=DIRECTION('center_axis',(0.,1.,0.));
#1450=DIRECTION('ref_axis',(0.,0.,-1.));
#1451=DIRECTION('',(0.,1.,0.));
#1452=DIRECTION('center_axis',(0.,-1.,0.));
#1453=DIRECTION('ref_axis',(0.,0.,-1.));
#1454=DIRECTION('center_axis',(1.,0.,0.));
#1455=DIRECTION('ref_axis',(0.,0.,-1.));
#1456=DIRECTION('',(0.,1.,0.));
#1457=DIRECTION('',(0.,0.,1.));
#1458=DIRECTION('',(0.,-1.,0.));
#1459=DIRECTION('',(0.,0.,-1.));
#1460=DIRECTION('center_axis',(0.,0.,1.));
#1461=DIRECTION('ref_axis',(1.,0.,0.));
#1462=DIRECTION('',(0.,-1.,0.));
#1463=DIRECTION('',(-1.,0.,0.));
#1464=DIRECTION('',(1.,0.,0.));
#1465=DIRECTION('center_axis',(0.,1.,0.));
#1466=DIRECTION('ref_axis',(1.,0.,0.));
#1467=DIRECTION('',(0.,0.,1.));
#1468=DIRECTION('',(1.,0.,0.));
#1469=DIRECTION('center_axis',(0.,-1.,0.));
#1470=DIRECTION('ref_axis',(0.,0.,-1.));
#1471=DIRECTION('',(1.,0.,0.));
#1472=DIRECTION('center_axis',(0.,-1.,0.));
#1473=DIRECTION('ref_axis',(1.,0.,0.));
#1474=DIRECTION('',(0.,0.,1.));
#1475=DIRECTION('center_axis',(0.,-1.,0.));
#1476=DIRECTION('ref_axis',(0.,0.,1.));
#1477=DIRECTION('',(-1.,0.,0.));
#1478=DIRECTION('center_axis',(0.,-1.,0.));
#1479=DIRECTION('ref_axis',(-1.,0.,0.));
#1480=DIRECTION('',(0.,0.,-1.));
#1481=DIRECTION('center_axis',(0.,-1.,0.));
#1482=DIRECTION('ref_axis',(0.,0.,-1.));
#1483=DIRECTION('',(1.,0.,0.));
#1484=DIRECTION('center_axis',(0.,-1.,0.));
#1485=DIRECTION('ref_axis',(1.,0.,0.));
#1486=DIRECTION('',(0.,0.,1.));
#1487=DIRECTION('center_axis',(0.,-1.,0.));
#1488=DIRECTION('ref_axis',(0.,0.,1.));
#1489=DIRECTION('',(-1.,0.,0.));
#1490=DIRECTION('center_axis',(0.,-1.,0.));
#1491=DIRECTION('ref_axis',(-1.,0.,0.));
#1492=DIRECTION('',(0.,0.,-1.));
#1493=DIRECTION('center_axis',(0.,-1.,0.));
#1494=DIRECTION('ref_axis',(0.,0.,-1.));
#1495=DIRECTION('',(1.,0.,0.));
#1496=DIRECTION('center_axis',(0.,-1.,0.));
#1497=DIRECTION('ref_axis',(1.,0.,0.));
#1498=DIRECTION('',(0.,0.,1.));
#1499=DIRECTION('center_axis',(0.,-1.,0.));
#1500=DIRECTION('ref_axis',(0.,0.,1.));
#1501=DIRECTION('',(-1.,0.,0.));
#1502=DIRECTION('center_axis',(0.,-1.,0.));
#1503=DIRECTION('ref_axis',(-1.,0.,0.));
#1504=DIRECTION('',(0.,0.,-1.));
#1505=DIRECTION('center_axis',(0.,-1.,0.));
#1506=DIRECTION('ref_axis',(0.,0.,-1.));
#1507=DIRECTION('',(1.,0.,0.));
#1508=DIRECTION('center_axis',(0.,-1.,0.));
#1509=DIRECTION('ref_axis',(1.,0.,0.));
#1510=DIRECTION('',(0.,0.,1.));
#1511=DIRECTION('center_axis',(0.,-1.,0.));
#1512=DIRECTION('ref_axis',(0.,0.,1.));
#1513=DIRECTION('',(-1.,0.,0.));
#1514=DIRECTION('center_axis',(0.,-1.,0.));
#1515=DIRECTION('ref_axis',(-1.,0.,0.));
#1516=DIRECTION('',(0.,0.,-1.));
#1517=DIRECTION('center_axis',(1.,0.,0.));
#1518=DIRECTION('ref_axis',(0.,0.,-1.));
#1519=DIRECTION('',(0.,0.,-1.));
#1520=DIRECTION('',(0.,-1.,0.));
#1521=DIRECTION('center_axis',(0.,0.,1.));
#1522=DIRECTION('ref_axis',(1.,0.,0.));
#1523=DIRECTION('',(1.,0.,0.));
#1524=DIRECTION('center_axis',(1.,0.,0.));
#1525=DIRECTION('ref_axis',(0.,0.,-1.));
#1526=DIRECTION('',(0.,0.,-1.));
#1527=DIRECTION('',(0.,1.,0.));
#1528=DIRECTION('',(0.,1.,0.));
#1529=DIRECTION('center_axis',(0.,1.,0.));
#1530=DIRECTION('ref_axis',(-1.,0.,0.));
#1531=DIRECTION('center_axis',(0.,-1.,0.));
#1532=DIRECTION('ref_axis',(-1.,0.,0.));
#1533=DIRECTION('',(0.,1.,0.));
#1534=DIRECTION('center_axis',(0.,0.,-1.));
#1535=DIRECTION('ref_axis',(-1.,0.,0.));
#1536=DIRECTION('',(-1.,0.,0.));
#1537=DIRECTION('',(0.,1.,0.));
#1538=DIRECTION('center_axis',(0.,1.,0.));
#1539=DIRECTION('ref_axis',(0.,0.,1.));
#1540=DIRECTION('center_axis',(0.,-1.,0.));
#1541=DIRECTION('ref_axis',(0.,0.,1.));
#1542=DIRECTION('',(0.,1.,0.));
#1543=DIRECTION('center_axis',(-1.,0.,0.));
#1544=DIRECTION('ref_axis',(0.,0.,1.));
#1545=DIRECTION('',(0.,0.,1.));
#1546=DIRECTION('',(0.,1.,0.));
#1547=DIRECTION('center_axis',(0.,1.,0.));
#1548=DIRECTION('ref_axis',(1.,0.,0.));
#1549=DIRECTION('center_axis',(0.,-1.,0.));
#1550=DIRECTION('ref_axis',(1.,0.,0.));
#1551=DIRECTION('',(0.,1.,0.));
#1552=DIRECTION('center_axis',(0.,0.,1.));
#1553=DIRECTION('ref_axis',(1.,0.,0.));
#1554=DIRECTION('',(1.,0.,0.));
#1555=DIRECTION('',(0.,1.,0.));
#1556=DIRECTION('center_axis',(0.,1.,0.));
#1557=DIRECTION('ref_axis',(0.,0.,-1.));
#1558=DIRECTION('center_axis',(0.,-1.,0.));
#1559=DIRECTION('ref_axis',(0.,0.,-1.));
#1560=DIRECTION('center_axis',(1.,0.,0.));
#1561=DIRECTION('ref_axis',(0.,0.,-1.));
#1562=DIRECTION('',(0.,0.,-1.));
#1563=DIRECTION('',(0.,1.,0.));
#1564=DIRECTION('',(0.,1.,0.));
#1565=DIRECTION('center_axis',(0.,1.,0.));
#1566=DIRECTION('ref_axis',(-1.,0.,0.));
#1567=DIRECTION('center_axis',(0.,-1.,0.));
#1568=DIRECTION('ref_axis',(-1.,0.,0.));
#1569=DIRECTION('',(0.,1.,0.));
#1570=DIRECTION('center_axis',(0.,0.,-1.));
#1571=DIRECTION('ref_axis',(-1.,0.,0.));
#1572=DIRECTION('',(-1.,0.,0.));
#1573=DIRECTION('',(0.,1.,0.));
#1574=DIRECTION('center_axis',(0.,1.,0.));
#1575=DIRECTION('ref_axis',(0.,0.,1.));
#1576=DIRECTION('center_axis',(0.,-1.,0.));
#1577=DIRECTION('ref_axis',(0.,0.,1.));
#1578=DIRECTION('',(0.,1.,0.));
#1579=DIRECTION('center_axis',(-1.,0.,0.));
#1580=DIRECTION('ref_axis',(0.,0.,1.));
#1581=DIRECTION('',(0.,0.,1.));
#1582=DIRECTION('',(0.,1.,0.));
#1583=DIRECTION('center_axis',(0.,1.,0.));
#1584=DIRECTION('ref_axis',(1.,0.,0.));
#1585=DIRECTION('center_axis',(0.,-1.,0.));
#1586=DIRECTION('ref_axis',(1.,0.,0.));
#1587=DIRECTION('',(0.,1.,0.));
#1588=DIRECTION('center_axis',(0.,0.,1.));
#1589=DIRECTION('ref_axis',(1.,0.,0.));
#1590=DIRECTION('',(1.,0.,0.));
#1591=DIRECTION('',(0.,1.,0.));
#1592=DIRECTION('center_axis',(0.,1.,0.));
#1593=DIRECTION('ref_axis',(0.,0.,-1.));
#1594=DIRECTION('center_axis',(0.,-1.,0.));
#1595=DIRECTION('ref_axis',(0.,0.,-1.));
#1596=DIRECTION('center_axis',(1.,0.,0.));
#1597=DIRECTION('ref_axis',(0.,0.,-1.));
#1598=DIRECTION('',(0.,0.,-1.));
#1599=DIRECTION('',(0.,1.,0.));
#1600=DIRECTION('',(0.,1.,0.));
#1601=DIRECTION('center_axis',(0.,1.,0.));
#1602=DIRECTION('ref_axis',(-1.,0.,0.));
#1603=DIRECTION('center_axis',(0.,-1.,0.));
#1604=DIRECTION('ref_axis',(-1.,0.,0.));
#1605=DIRECTION('',(0.,1.,0.));
#1606=DIRECTION('center_axis',(0.,0.,-1.));
#1607=DIRECTION('ref_axis',(-1.,0.,0.));
#1608=DIRECTION('',(-1.,0.,0.));
#1609=DIRECTION('',(0.,1.,0.));
#1610=DIRECTION('center_axis',(0.,1.,0.));
#1611=DIRECTION('ref_axis',(0.,0.,1.));
#1612=DIRECTION('center_axis',(0.,-1.,0.));
#1613=DIRECTION('ref_axis',(0.,0.,1.));
#1614=DIRECTION('',(0.,1.,0.));
#1615=DIRECTION('center_axis',(-1.,0.,0.));
#1616=DIRECTION('ref_axis',(0.,0.,1.));
#1617=DIRECTION('',(0.,0.,1.));
#1618=DIRECTION('',(0.,1.,0.));
#1619=DIRECTION('center_axis',(0.,1.,0.));
#1620=DIRECTION('ref_axis',(1.,0.,0.));
#1621=DIRECTION('center_axis',(0.,-1.,0.));
#1622=DIRECTION('ref_axis',(1.,0.,0.));
#1623=DIRECTION('',(0.,1.,0.));
#1624=DIRECTION('center_axis',(0.,0.,1.));
#1625=DIRECTION('ref_axis',(1.,0.,0.));
#1626=DIRECTION('',(1.,0.,0.));
#1627=DIRECTION('',(0.,1.,0.));
#1628=DIRECTION('center_axis',(0.,1.,0.));
#1629=DIRECTION('ref_axis',(0.,0.,-1.));
#1630=DIRECTION('center_axis',(0.,-1.,0.));
#1631=DIRECTION('ref_axis',(0.,0.,-1.));
#1632=DIRECTION('center_axis',(1.,0.,0.));
#1633=DIRECTION('ref_axis',(0.,0.,-1.));
#1634=DIRECTION('',(0.,0.,-1.));
#1635=DIRECTION('',(0.,1.,0.));
#1636=DIRECTION('',(0.,1.,0.));
#1637=DIRECTION('center_axis',(0.,1.,0.));
#1638=DIRECTION('ref_axis',(-1.,0.,0.));
#1639=DIRECTION('center_axis',(0.,-1.,0.));
#1640=DIRECTION('ref_axis',(-1.,0.,0.));
#1641=DIRECTION('',(0.,1.,0.));
#1642=DIRECTION('center_axis',(0.,0.,-1.));
#1643=DIRECTION('ref_axis',(-1.,0.,0.));
#1644=DIRECTION('',(-1.,0.,0.));
#1645=DIRECTION('',(0.,1.,0.));
#1646=DIRECTION('center_axis',(0.,1.,0.));
#1647=DIRECTION('ref_axis',(0.,0.,1.));
#1648=DIRECTION('center_axis',(0.,-1.,0.));
#1649=DIRECTION('ref_axis',(0.,0.,1.));
#1650=DIRECTION('',(0.,1.,0.));
#1651=DIRECTION('center_axis',(-1.,0.,0.));
#1652=DIRECTION('ref_axis',(0.,0.,1.));
#1653=DIRECTION('',(0.,0.,1.));
#1654=DIRECTION('',(0.,1.,0.));
#1655=DIRECTION('center_axis',(0.,1.,0.));
#1656=DIRECTION('ref_axis',(1.,0.,0.));
#1657=DIRECTION('center_axis',(0.,-1.,0.));
#1658=DIRECTION('ref_axis',(1.,0.,0.));
#1659=DIRECTION('',(0.,1.,0.));
#1660=DIRECTION('center_axis',(0.,0.,1.));
#1661=DIRECTION('ref_axis',(1.,0.,0.));
#1662=DIRECTION('',(1.,0.,0.));
#1663=DIRECTION('',(0.,1.,0.));
#1664=DIRECTION('center_axis',(0.,1.,0.));
#1665=DIRECTION('ref_axis',(0.,0.,-1.));
#1666=DIRECTION('center_axis',(0.,-1.,0.));
#1667=DIRECTION('ref_axis',(0.,0.,-1.));
#1668=DIRECTION('center_axis',(0.,1.,0.));
#1669=DIRECTION('ref_axis',(1.,0.,0.));
#1670=CARTESIAN_POINT('',(0.,0.,0.));
#1671=CARTESIAN_POINT('Origin',(89.9874738563142,-6.57770612152699,17.1020359159701));
#1672=CARTESIAN_POINT('',(80.,0.,17.1020359159701));
#1673=CARTESIAN_POINT('',(80.,-6.57770612152699,17.1020359159701));
#1674=CARTESIAN_POINT('',(80.,-8.2888530607635,17.1020359159701));
#1675=CARTESIAN_POINT('',(89.9874738563142,0.,17.1020359159701));
#1676=CARTESIAN_POINT('',(64.4249738563142,0.,17.1020359159701));
#1677=CARTESIAN_POINT('',(89.9874738563142,-6.57770612152699,17.1020359159701));
#1678=CARTESIAN_POINT('',(89.9874738563142,-9.7888530607635,17.1020359159701));
#1679=CARTESIAN_POINT('',(89.9874738563142,-6.57770612152699,17.1020359159701));
#1680=CARTESIAN_POINT('Origin',(89.9874738563142,-6.57770612152699,1.3155412243054));
#1681=CARTESIAN_POINT('',(80.,-6.57770612152699,1.3155412243054));
#1682=CARTESIAN_POINT('',(80.,-6.57770612152699,-0.592229387847301));
#1683=CARTESIAN_POINT('',(89.9874738563142,-6.57770612152699,1.3155412243054));
#1684=CARTESIAN_POINT('',(89.9874738563142,-6.57770612152699,16.1057828765773));
#1685=CARTESIAN_POINT('',(89.9874738563142,-6.57770612152699,1.3155412243054));
#1686=CARTESIAN_POINT('Origin',(89.9874738563142,0.,1.3155412243054));
#1687=CARTESIAN_POINT('',(80.,0.,1.3155412243054));
#1688=CARTESIAN_POINT('',(80.,-5.,1.3155412243054));
#1689=CARTESIAN_POINT('',(89.9874738563142,0.,1.3155412243054));
#1690=CARTESIAN_POINT('',(89.9874738563142,-6.5,1.3155412243054));
#1691=CARTESIAN_POINT('',(64.4249738563142,0.,1.3155412243054));
#1692=CARTESIAN_POINT('Origin',(38.8624738563142,0.,8.94602452884925));
#1693=CARTESIAN_POINT('',(80.,0.,21.4));
#1694=CARTESIAN_POINT('',(80.,0.,21.4));
#1695=CARTESIAN_POINT('',(-1.75000000000001,0.,21.4));
#1696=CARTESIAN_POINT('',(-1.75000000000001,0.,21.4));
#1697=CARTESIAN_POINT('',(-1.75000000000001,0.,-2.5));
#1698=CARTESIAN_POINT('',(-1.75000000000001,0.,-2.5));
#1699=CARTESIAN_POINT('',(80.,0.,-2.5));
#1700=CARTESIAN_POINT('',(80.,0.,-2.5));
#1701=CARTESIAN_POINT('',(80.,0.,21.4));
#1702=CARTESIAN_POINT('',(89.9874738563142,0.,-12.5039754711507));
#1703=CARTESIAN_POINT('',(89.9874738563142,0.,30.8960245288493));
#1704=CARTESIAN_POINT('',(-11.7625261436858,0.,-12.5039754711507));
#1705=CARTESIAN_POINT('',(64.3749738563142,0.,-12.5039754711507));
#1706=CARTESIAN_POINT('',(-11.7625261436858,0.,31.3960245288493));
#1707=CARTESIAN_POINT('',(-11.7625261436858,0.,-2.02897547115074));
#1708=CARTESIAN_POINT('',(89.9874738563142,0.,31.3960245288493));
#1709=CARTESIAN_POINT('',(89.8874738563142,0.,31.3960245288493));
#1710=CARTESIAN_POINT('',(89.9874738563142,0.,30.8960245288493));
#1711=CARTESIAN_POINT('',(82.4422432805627,0.,-6.83592909708409));
#1712=CARTESIAN_POINT('Origin',(84.8922432805627,0.,-6.83592909708409));
#1713=CARTESIAN_POINT('',(-8.69302664818012,0.,-7.31860748695937));
#1714=CARTESIAN_POINT('Origin',(-6.24302664818012,0.,-7.31860748695937));
#1715=CARTESIAN_POINT('',(-8.86747203519424,0.,26.0004614327364));
#1716=CARTESIAN_POINT('Origin',(-6.41747203519424,0.,26.0004614327364));
#1717=CARTESIAN_POINT('',(82.55,0.,25.));
#1718=CARTESIAN_POINT('Origin',(85.,0.,25.));
#1719=CARTESIAN_POINT('Origin',(80.,-10.,-2.5));
#1720=CARTESIAN_POINT('',(80.,-10.,-2.5));
#1721=CARTESIAN_POINT('',(80.,-10.,-2.5));
#1722=CARTESIAN_POINT('',(80.,-10.,21.4));
#1723=CARTESIAN_POINT('',(80.,-10.,3.22301226442463));
#1724=CARTESIAN_POINT('',(80.,-10.,21.4));
#1725=CARTESIAN_POINT('Origin',(-11.7625261436858,-13.,-13.0039754711507));
#1726=CARTESIAN_POINT('',(-11.7625261436858,-13.,-12.5039754711507));
#1727=CARTESIAN_POINT('',(-11.7625261436858,-13.,-12.5039754711507));
#1728=CARTESIAN_POINT('',(-11.7625261436858,-13.,31.3960245288493));
#1729=CARTESIAN_POINT('',(-11.7625261436858,-13.,-2.02897547115074));
#1730=CARTESIAN_POINT('',(-11.7625261436858,-13.,31.3960245288493));
#1731=CARTESIAN_POINT('Origin',(38.8624738563142,-13.,8.94602452884925));
#1732=CARTESIAN_POINT('',(89.9874738563142,-13.,-12.5039754711507));
#1733=CARTESIAN_POINT('',(89.8874738563142,-13.,-12.5039754711507));
#1734=CARTESIAN_POINT('',(89.9874738563142,-13.,31.3960245288493));
#1735=CARTESIAN_POINT('',(89.9874738563142,-13.,30.8960245288493));
#1736=CARTESIAN_POINT('',(89.8874738563142,-13.,31.3960245288493));
#1737=CARTESIAN_POINT('',(82.55,-13.,25.));
#1738=CARTESIAN_POINT('Origin',(85.,-13.,25.));
#1739=CARTESIAN_POINT('',(-8.86747203519424,-13.,26.0004614327364));
#1740=CARTESIAN_POINT('Origin',(-6.41747203519424,-13.,26.0004614327364));
#1741=CARTESIAN_POINT('',(-8.69302664818012,-13.,-7.31860748695937));
#1742=CARTESIAN_POINT('Origin',(-6.24302664818012,-13.,-7.31860748695937));
#1743=CARTESIAN_POINT('',(82.4422432805627,-13.,-6.83592909708409));
#1744=CARTESIAN_POINT('Origin',(84.8922432805627,-13.,-6.83592909708409));
#1745=CARTESIAN_POINT('Origin',(89.8874738563142,-13.,-12.5039754711507));
#1746=CARTESIAN_POINT('',(89.9874738563142,-13.,-12.5039754711507));
#1747=CARTESIAN_POINT('Origin',(89.9874738563142,-13.,30.8960245288493));
#1748=CARTESIAN_POINT('',(89.9874738563142,-13.,31.3960245288493));
#1749=CARTESIAN_POINT('Origin',(-12.1625261436858,-13.,31.3960245288493));
#1750=CARTESIAN_POINT('Origin',(-1.75000000000001,-10.,-2.5));
#1751=CARTESIAN_POINT('',(-1.75000000000001,-10.,-2.5));
#1752=CARTESIAN_POINT('',(18.5562369281571,-10.,-2.5));
#1753=CARTESIAN_POINT('',(-1.75000000000001,-10.,-2.5));
#1754=CARTESIAN_POINT('Origin',(-1.75000000000001,-10.,21.4));
#1755=CARTESIAN_POINT('',(-1.75000000000001,-10.,21.4));
#1756=CARTESIAN_POINT('',(-1.75000000000001,-10.,15.1730122644246));
#1757=CARTESIAN_POINT('',(-1.75000000000001,-10.,21.4));
#1758=CARTESIAN_POINT('Origin',(80.,-10.,21.4));
#1759=CARTESIAN_POINT('',(59.4312369281571,-10.,21.4));
#1760=CARTESIAN_POINT('Origin',(84.8922432805627,-13.,-6.83592909708409));
#1761=CARTESIAN_POINT('',(82.4422432805627,-13.,-6.83592909708409));
#1762=CARTESIAN_POINT('Origin',(-6.24302664818012,-13.,-7.31860748695937));
#1763=CARTESIAN_POINT('',(-8.69302664818012,-13.,-7.31860748695937));
#1764=CARTESIAN_POINT('Origin',(-6.41747203519424,-13.,26.0004614327364));
#1765=CARTESIAN_POINT('',(-8.86747203519424,-13.,26.0004614327364));
#1766=CARTESIAN_POINT('Origin',(85.,-13.,25.));
#1767=CARTESIAN_POINT('',(82.55,-13.,25.));
#1768=CARTESIAN_POINT('Origin',(38.8624738563142,-10.,8.94602452884925));
#1769=CARTESIAN_POINT('Origin',(85.,2.45,25.));
#1770=CARTESIAN_POINT('',(85.,0.,27.45));
#1771=CARTESIAN_POINT('Origin',(85.,0.,25.));
#1772=CARTESIAN_POINT('',(85.,3.,27.45));
#1773=CARTESIAN_POINT('',(85.,2.45,27.45));
#1774=CARTESIAN_POINT('Origin',(85.,3.,25.));
#1775=CARTESIAN_POINT('Origin',(84.8922432805627,2.45,-6.83592909708409));
#1776=CARTESIAN_POINT('',(84.8922432805627,0.,-4.38592909708409));
#1777=CARTESIAN_POINT('Origin',(84.8922432805627,0.,-6.83592909708409));
#1778=CARTESIAN_POINT('',(84.8922432805627,3.,-4.38592909708409));
#1779=CARTESIAN_POINT('',(84.8922432805627,2.45,-4.38592909708409));
#1780=CARTESIAN_POINT('Origin',(84.8922432805627,3.,-6.83592909708409));
#1781=CARTESIAN_POINT('Origin',(-6.24302664818012,2.45,-7.31860748695937));
#1782=CARTESIAN_POINT('',(-6.24302664818012,0.,-4.86860748695937));
#1783=CARTESIAN_POINT('Origin',(-6.24302664818012,0.,-7.31860748695937));
#1784=CARTESIAN_POINT('',(-6.24302664818012,3.,-4.86860748695937));
#1785=CARTESIAN_POINT('',(-6.24302664818012,2.45,-4.86860748695937));
#1786=CARTESIAN_POINT('Origin',(-6.24302664818012,3.,-7.31860748695937));
#1787=CARTESIAN_POINT('Origin',(-6.41747203519424,2.45,26.0004614327364));
#1788=CARTESIAN_POINT('',(-6.41747203519424,0.,28.4504614327364));
#1789=CARTESIAN_POINT('Origin',(-6.41747203519424,0.,26.0004614327364));
#1790=CARTESIAN_POINT('',(-6.41747203519424,3.,28.4504614327364));
#1791=CARTESIAN_POINT('',(-6.41747203519424,2.45,28.4504614327364));
#1792=CARTESIAN_POINT('Origin',(-6.41747203519424,3.,26.0004614327364));
#1793=CARTESIAN_POINT('Origin',(90.,0.,18.94));
#1794=CARTESIAN_POINT('',(90.,0.,-12.51));
#1795=CARTESIAN_POINT('',(90.,3.,-12.51));
#1796=CARTESIAN_POINT('',(90.,0.,-12.51));
#1797=CARTESIAN_POINT('',(90.,3.,31.39));
#1798=CARTESIAN_POINT('',(90.,3.,-0.110000000000001));
#1799=CARTESIAN_POINT('',(90.,0.,31.39));
#1800=CARTESIAN_POINT('',(90.,0.,31.39));
#1801=CARTESIAN_POINT('',(90.,0.,18.94));
#1802=CARTESIAN_POINT('Origin',(76.2,0.,-12.51));
#1803=CARTESIAN_POINT('',(-11.7695,3.,-12.51));
#1804=CARTESIAN_POINT('',(-11.7695,0.,-12.51));
#1805=CARTESIAN_POINT('',(-11.7695,0.,-12.51));
#1806=CARTESIAN_POINT('',(57.15,3.,-12.51));
#1807=CARTESIAN_POINT('',(89.9,0.,-12.51));
#1808=CARTESIAN_POINT('Origin',(38.1,3.,9.415));
#1809=CARTESIAN_POINT('',(-11.7695,3.,31.39));
#1810=CARTESIAN_POINT('',(-11.7695,3.,4.6525));
#1811=CARTESIAN_POINT('',(89.9,3.,31.39));
#1812=CARTESIAN_POINT('',(2.525,3.,2.915));
#1813=CARTESIAN_POINT('',(3.025,3.,2.415));
#1814=CARTESIAN_POINT('Origin',(3.025,3.,2.915));
#1815=CARTESIAN_POINT('',(16.025,3.,2.415));
#1816=CARTESIAN_POINT('',(3.025,3.,2.415));
#1817=CARTESIAN_POINT('',(16.525,3.,2.915));
#1818=CARTESIAN_POINT('Origin',(16.025,3.,2.915));
#1819=CARTESIAN_POINT('',(16.525,3.,15.915));
#1820=CARTESIAN_POINT('',(16.525,3.,2.915));
#1821=CARTESIAN_POINT('',(16.025,3.,16.415));
#1822=CARTESIAN_POINT('Origin',(16.025,3.,15.915));
#1823=CARTESIAN_POINT('',(3.025,3.,16.415));
#1824=CARTESIAN_POINT('',(3.025,3.,16.415));
#1825=CARTESIAN_POINT('',(2.525,3.,15.915));
#1826=CARTESIAN_POINT('Origin',(3.025,3.,15.915));
#1827=CARTESIAN_POINT('',(2.525,3.,2.915));
#1828=CARTESIAN_POINT('',(40.625,3.,2.915));
#1829=CARTESIAN_POINT('',(41.125,3.,2.415));
#1830=CARTESIAN_POINT('Origin',(41.125,3.,2.915));
#1831=CARTESIAN_POINT('',(54.125,3.,2.415));
#1832=CARTESIAN_POINT('',(41.125,3.,2.415));
#1833=CARTESIAN_POINT('',(54.625,3.,2.915));
#1834=CARTESIAN_POINT('Origin',(54.125,3.,2.915));
#1835=CARTESIAN_POINT('',(54.625,3.,15.915));
#1836=CARTESIAN_POINT('',(54.625,3.,2.915));
#1837=CARTESIAN_POINT('',(54.125,3.,16.415));
#1838=CARTESIAN_POINT('Origin',(54.125,3.,15.915));
#1839=CARTESIAN_POINT('',(41.125,3.,16.415));
#1840=CARTESIAN_POINT('',(41.125,3.,16.415));
#1841=CARTESIAN_POINT('',(40.625,3.,15.915));
#1842=CARTESIAN_POINT('Origin',(41.125,3.,15.915));
#1843=CARTESIAN_POINT('',(40.625,3.,2.915));
#1844=CARTESIAN_POINT('',(21.575,3.,2.915));
#1845=CARTESIAN_POINT('',(22.075,3.,2.415));
#1846=CARTESIAN_POINT('Origin',(22.075,3.,2.915));
#1847=CARTESIAN_POINT('',(35.075,3.,2.41499999999999));
#1848=CARTESIAN_POINT('',(22.075,3.,2.415));
#1849=CARTESIAN_POINT('',(35.575,3.,2.915));
#1850=CARTESIAN_POINT('Origin',(35.075,3.,2.915));
#1851=CARTESIAN_POINT('',(35.575,3.,15.915));
#1852=CARTESIAN_POINT('',(35.575,3.,2.915));
#1853=CARTESIAN_POINT('',(35.075,3.,16.415));
#1854=CARTESIAN_POINT('Origin',(35.075,3.,15.915));
#1855=CARTESIAN_POINT('',(22.075,3.,16.415));
#1856=CARTESIAN_POINT('',(22.075,3.,16.415));
#1857=CARTESIAN_POINT('',(21.575,3.,15.915));
#1858=CARTESIAN_POINT('Origin',(22.075,3.,15.915));
#1859=CARTESIAN_POINT('',(21.575,3.,2.915));
#1860=CARTESIAN_POINT('',(59.675,3.,2.915));
#1861=CARTESIAN_POINT('',(60.175,3.,2.415));
#1862=CARTESIAN_POINT('Origin',(60.175,3.,2.915));
#1863=CARTESIAN_POINT('',(73.175,3.,2.415));
#1864=CARTESIAN_POINT('',(60.175,3.,2.415));
#1865=CARTESIAN_POINT('',(73.675,3.,2.915));
#1866=CARTESIAN_POINT('Origin',(73.175,3.,2.915));
#1867=CARTESIAN_POINT('',(73.675,3.,15.915));
#1868=CARTESIAN_POINT('',(73.675,3.,2.915));
#1869=CARTESIAN_POINT('',(73.175,3.,16.415));
#1870=CARTESIAN_POINT('Origin',(73.175,3.,15.915));
#1871=CARTESIAN_POINT('',(60.175,3.,16.415));
#1872=CARTESIAN_POINT('',(60.175,3.,16.415));
#1873=CARTESIAN_POINT('',(59.675,3.,15.915));
#1874=CARTESIAN_POINT('Origin',(60.175,3.,15.915));
#1875=CARTESIAN_POINT('',(59.675,3.,2.915));
#1876=CARTESIAN_POINT('Origin',(-11.7695,0.,-0.110000000000001));
#1877=CARTESIAN_POINT('',(-11.7695,0.,31.39));
#1878=CARTESIAN_POINT('',(-11.7695,0.,4.6525));
#1879=CARTESIAN_POINT('',(-11.7695,0.,31.39));
#1880=CARTESIAN_POINT('Origin',(0.,0.,31.39));
#1881=CARTESIAN_POINT('',(0.,0.,31.39));
#1882=CARTESIAN_POINT('Origin',(59.675,0.,15.915));
#1883=CARTESIAN_POINT('',(59.675,0.,15.915));
#1884=CARTESIAN_POINT('',(59.675,0.,2.915));
#1885=CARTESIAN_POINT('',(59.675,0.,2.915));
#1886=CARTESIAN_POINT('',(59.675,0.,2.915));
#1887=CARTESIAN_POINT('',(59.675,0.,15.915));
#1888=CARTESIAN_POINT('Origin',(60.175,0.,15.915));
#1889=CARTESIAN_POINT('',(60.175,0.,16.415));
#1890=CARTESIAN_POINT('Origin',(60.175,0.,15.915));
#1891=CARTESIAN_POINT('',(60.175,0.,16.415));
#1892=CARTESIAN_POINT('Origin',(73.175,0.,16.415));
#1893=CARTESIAN_POINT('',(73.175,0.,16.415));
#1894=CARTESIAN_POINT('',(60.175,0.,16.415));
#1895=CARTESIAN_POINT('',(73.175,0.,16.415));
#1896=CARTESIAN_POINT('Origin',(73.175,0.,15.915));
#1897=CARTESIAN_POINT('',(73.675,0.,15.915));
#1898=CARTESIAN_POINT('Origin',(73.175,0.,15.915));
#1899=CARTESIAN_POINT('',(73.675,0.,15.915));
#1900=CARTESIAN_POINT('Origin',(73.675,0.,2.915));
#1901=CARTESIAN_POINT('',(73.675,0.,2.915));
#1902=CARTESIAN_POINT('',(73.675,0.,2.915));
#1903=CARTESIAN_POINT('',(73.675,0.,2.915));
#1904=CARTESIAN_POINT('Origin',(73.175,0.,2.915));
#1905=CARTESIAN_POINT('',(73.175,0.,2.415));
#1906=CARTESIAN_POINT('Origin',(73.175,0.,2.915));
#1907=CARTESIAN_POINT('',(73.175,0.,2.415));
#1908=CARTESIAN_POINT('Origin',(60.175,0.,2.415));
#1909=CARTESIAN_POINT('',(60.175,0.,2.415));
#1910=CARTESIAN_POINT('',(60.175,0.,2.415));
#1911=CARTESIAN_POINT('',(60.175,0.,2.415));
#1912=CARTESIAN_POINT('Origin',(60.175,0.,2.915));
#1913=CARTESIAN_POINT('Origin',(60.175,0.,2.915));
#1914=CARTESIAN_POINT('Origin',(21.575,0.,15.915));
#1915=CARTESIAN_POINT('',(21.575,0.,15.915));
#1916=CARTESIAN_POINT('',(21.575,0.,2.915));
#1917=CARTESIAN_POINT('',(21.575,0.,2.915));
#1918=CARTESIAN_POINT('',(21.575,0.,2.915));
#1919=CARTESIAN_POINT('',(21.575,0.,15.915));
#1920=CARTESIAN_POINT('Origin',(22.075,0.,15.915));
#1921=CARTESIAN_POINT('',(22.075,0.,16.415));
#1922=CARTESIAN_POINT('Origin',(22.075,0.,15.915));
#1923=CARTESIAN_POINT('',(22.075,0.,16.415));
#1924=CARTESIAN_POINT('Origin',(35.075,0.,16.415));
#1925=CARTESIAN_POINT('',(35.075,0.,16.415));
#1926=CARTESIAN_POINT('',(22.075,0.,16.415));
#1927=CARTESIAN_POINT('',(35.075,0.,16.415));
#1928=CARTESIAN_POINT('Origin',(35.075,0.,15.915));
#1929=CARTESIAN_POINT('',(35.575,0.,15.915));
#1930=CARTESIAN_POINT('Origin',(35.075,0.,15.915));
#1931=CARTESIAN_POINT('',(35.575,0.,15.915));
#1932=CARTESIAN_POINT('Origin',(35.575,0.,2.915));
#1933=CARTESIAN_POINT('',(35.575,0.,2.915));
#1934=CARTESIAN_POINT('',(35.575,0.,2.915));
#1935=CARTESIAN_POINT('',(35.575,0.,2.915));
#1936=CARTESIAN_POINT('Origin',(35.075,0.,2.915));
#1937=CARTESIAN_POINT('',(35.075,0.,2.41499999999999));
#1938=CARTESIAN_POINT('Origin',(35.075,0.,2.915));
#1939=CARTESIAN_POINT('',(35.075,0.,2.41499999999999));
#1940=CARTESIAN_POINT('Origin',(22.075,0.,2.415));
#1941=CARTESIAN_POINT('',(22.075,0.,2.415));
#1942=CARTESIAN_POINT('',(22.075,0.,2.415));
#1943=CARTESIAN_POINT('',(22.075,0.,2.415));
#1944=CARTESIAN_POINT('Origin',(22.075,0.,2.915));
#1945=CARTESIAN_POINT('Origin',(22.075,0.,2.915));
#1946=CARTESIAN_POINT('Origin',(40.625,0.,15.915));
#1947=CARTESIAN_POINT('',(40.625,0.,15.915));
#1948=CARTESIAN_POINT('',(40.625,0.,2.915));
#1949=CARTESIAN_POINT('',(40.625,0.,2.915));
#1950=CARTESIAN_POINT('',(40.625,0.,2.915));
#1951=CARTESIAN_POINT('',(40.625,0.,15.915));
#1952=CARTESIAN_POINT('Origin',(41.125,0.,15.915));
#1953=CARTESIAN_POINT('',(41.125,0.,16.415));
#1954=CARTESIAN_POINT('Origin',(41.125,0.,15.915));
#1955=CARTESIAN_POINT('',(41.125,0.,16.415));
#1956=CARTESIAN_POINT('Origin',(54.125,0.,16.415));
#1957=CARTESIAN_POINT('',(54.125,0.,16.415));
#1958=CARTESIAN_POINT('',(41.125,0.,16.415));
#1959=CARTESIAN_POINT('',(54.125,0.,16.415));
#1960=CARTESIAN_POINT('Origin',(54.125,0.,15.915));
#1961=CARTESIAN_POINT('',(54.625,0.,15.915));
#1962=CARTESIAN_POINT('Origin',(54.125,0.,15.915));
#1963=CARTESIAN_POINT('',(54.625,0.,15.915));
#1964=CARTESIAN_POINT('Origin',(54.625,0.,2.915));
#1965=CARTESIAN_POINT('',(54.625,0.,2.915));
#1966=CARTESIAN_POINT('',(54.625,0.,2.915));
#1967=CARTESIAN_POINT('',(54.625,0.,2.915));
#1968=CARTESIAN_POINT('Origin',(54.125,0.,2.915));
#1969=CARTESIAN_POINT('',(54.125,0.,2.415));
#1970=CARTESIAN_POINT('Origin',(54.125,0.,2.915));
#1971=CARTESIAN_POINT('',(54.125,0.,2.415));
#1972=CARTESIAN_POINT('Origin',(41.125,0.,2.415));
#1973=CARTESIAN_POINT('',(41.125,0.,2.415));
#1974=CARTESIAN_POINT('',(41.125,0.,2.415));
#1975=CARTESIAN_POINT('',(41.125,0.,2.415));
#1976=CARTESIAN_POINT('Origin',(41.125,0.,2.915));
#1977=CARTESIAN_POINT('Origin',(41.125,0.,2.915));
#1978=CARTESIAN_POINT('Origin',(2.525,0.,15.915));
#1979=CARTESIAN_POINT('',(2.525,0.,15.915));
#1980=CARTESIAN_POINT('',(2.525,0.,2.915));
#1981=CARTESIAN_POINT('',(2.525,0.,2.915));
#1982=CARTESIAN_POINT('',(2.525,0.,2.915));
#1983=CARTESIAN_POINT('',(2.525,0.,15.915));
#1984=CARTESIAN_POINT('Origin',(3.025,0.,15.915));
#1985=CARTESIAN_POINT('',(3.025,0.,16.415));
#1986=CARTESIAN_POINT('Origin',(3.025,0.,15.915));
#1987=CARTESIAN_POINT('',(3.025,0.,16.415));
#1988=CARTESIAN_POINT('Origin',(16.025,0.,16.415));
#1989=CARTESIAN_POINT('',(16.025,0.,16.415));
#1990=CARTESIAN_POINT('',(3.025,0.,16.415));
#1991=CARTESIAN_POINT('',(16.025,0.,16.415));
#1992=CARTESIAN_POINT('Origin',(16.025,0.,15.915));
#1993=CARTESIAN_POINT('',(16.525,0.,15.915));
#1994=CARTESIAN_POINT('Origin',(16.025,0.,15.915));
#1995=CARTESIAN_POINT('',(16.525,0.,15.915));
#1996=CARTESIAN_POINT('Origin',(16.525,0.,2.915));
#1997=CARTESIAN_POINT('',(16.525,0.,2.915));
#1998=CARTESIAN_POINT('',(16.525,0.,2.915));
#1999=CARTESIAN_POINT('',(16.525,0.,2.915));
#2000=CARTESIAN_POINT('Origin',(16.025,0.,2.915));
#2001=CARTESIAN_POINT('',(16.025,0.,2.415));
#2002=CARTESIAN_POINT('Origin',(16.025,0.,2.915));
#2003=CARTESIAN_POINT('',(16.025,0.,2.415));
#2004=CARTESIAN_POINT('Origin',(3.025,0.,2.415));
#2005=CARTESIAN_POINT('',(3.025,0.,2.415));
#2006=CARTESIAN_POINT('',(3.025,0.,2.415));
#2007=CARTESIAN_POINT('',(3.025,0.,2.415));
#2008=CARTESIAN_POINT('Origin',(3.025,0.,2.915));
#2009=CARTESIAN_POINT('Origin',(3.025,0.,2.915));
#2010=CARTESIAN_POINT('Origin',(38.1,0.,9.415));
#2011=UNCERTAINTY_MEASURE_WITH_UNIT(LENGTH_MEASURE(0.01),#2015,
'DISTANCE_ACCURACY_VALUE',
'Maximum model space distance between geometric entities at asserted c
onnectivities');
#2012=UNCERTAINTY_MEASURE_WITH_UNIT(LENGTH_MEASURE(0.01),#2015,
'DISTANCE_ACCURACY_VALUE',
'Maximum model space distance between geometric entities at asserted c
onnectivities');
#2013=(
GEOMETRIC_REPRESENTATION_CONTEXT(3)
GLOBAL_UNCERTAINTY_ASSIGNED_CONTEXT((#2011))
GLOBAL_UNIT_ASSIGNED_CONTEXT((#2015,#2017,#2018))
REPRESENTATION_CONTEXT('','3D')
);
#2014=(
GEOMETRIC_REPRESENTATION_CONTEXT(3)
GLOBAL_UNCERTAINTY_ASSIGNED_CONTEXT((#2012))
GLOBAL_UNIT_ASSIGNED_CONTEXT((#2015,#2017,#2018))
REPRESENTATION_CONTEXT('','3D')
);
#2015=(
LENGTH_UNIT()
NAMED_UNIT(*)
SI_UNIT(.MILLI.,.METRE.)
);
#2016=(
LENGTH_UNIT()
NAMED_UNIT(*)
SI_UNIT($,.METRE.)
);
#2017=(
NAMED_UNIT(*)
PLANE_ANGLE_UNIT()
SI_UNIT($,.RADIAN.)
);
#2018=(
NAMED_UNIT(*)
SI_UNIT($,.STERADIAN.)
SOLID_ANGLE_UNIT()
);
#2019=SHAPE_DEFINITION_REPRESENTATION(#2020,#2021);
#2020=PRODUCT_DEFINITION_SHAPE('',$,#2023);
#2021=SHAPE_REPRESENTATION('',(#1223),#2013);
#2022=PRODUCT_DEFINITION_CONTEXT('part definition',#2027,'design');
#2023=PRODUCT_DEFINITION('2026-06-06-21-35-58-979','Top Plate',#2024,#2022);
#2024=PRODUCT_DEFINITION_FORMATION('',$,#2029);
#2025=PRODUCT_RELATED_PRODUCT_CATEGORY('Top Plate','Top Plate',(#2029));
#2026=APPLICATION_PROTOCOL_DEFINITION('international standard',
'automotive_design',2009,#2027);
#2027=APPLICATION_CONTEXT(
'Core Data for Automotive Mechanical Design Process');
#2028=PRODUCT_CONTEXT('part definition',#2027,'mechanical');
#2029=PRODUCT('2026-06-06-21-35-58-979','Top Plate',$,(#2028));
#2030=PRESENTATION_STYLE_ASSIGNMENT((#2031));
#2031=SURFACE_STYLE_USAGE(.BOTH.,#2032);
#2032=SURFACE_SIDE_STYLE('',(#2033));
#2033=SURFACE_STYLE_FILL_AREA(#2034);
#2034=FILL_AREA_STYLE('Steel - Satin',(#2035));
#2035=FILL_AREA_STYLE_COLOUR('Steel - Satin',#2036);
#2036=COLOUR_RGB('Steel - Satin',0.627450980392157,0.627450980392157,0.627450980392157);
ENDSEC;
END-ISO-10303-21;
